<?xml version="1.0" encoding="UTF-8"?>
<svg id="Layer_2" data-name="Layer 2" xmlns="http://www.w3.org/2000/svg" viewBox="0 0 814.97 932.8">
  <defs>
    <style>
      .cls-1 {
        fill: #ce7246;
      }

      .cls-1, .cls-2, .cls-3, .cls-4, .cls-5, .cls-6, .cls-7, .cls-8 {
        stroke-width: 0px;
      }

      .cls-2 {
        fill: #c6061e;
      }

      .cls-3 {
        fill: #000;
      }

      .cls-4 {
        fill: #2bca39;
      }

      .cls-5 {
        fill: #329d4d;
      }

      .cls-6 {
        fill: #fff;
      }

      .cls-7 {
        fill: #a0a6c5;
      }

      .cls-8 {
        fill: #e0081b;
      }
    </style>
  </defs>
  <g id="Layer_2-2" data-name="Layer 2">
    <path class="cls-8" d="M792.25,536.37c.72-19.2-2.44-37.33-9.47-54.41.44-13.48.15-26.99-.88-40.44-1.11-14.45-3.25-28.75-5.18-43.11-2.01-14.99-3.81-29.96-6.69-44.8-5.26-22.12-15.4-41.39-30.43-57.81-9.45-14.59-21.34-26.73-35.64-36.46-4.55-7.79-9.93-15.09-16.15-21.89-11.99-18.51-27.89-33.1-47.7-43.78-7.95-3.94-15.9-7.88-23.86-11.82-19.51-12.42-40.58-19.15-63.21-20.17-22.6-5.06-45.19-4.05-67.79,3.04-14.03,3.34-26.91,8.64-38.65,15.91-34.35,3.24-68.7,6.48-103.05,9.72-4.62.44-9.24.89-13.85,1.36-48.37-15.59-103.61-9.07-147.35,16.57-23.61,13.84-44.19,33.29-59.43,56.09-1.23,1.01-2.46,2.02-3.67,3.04-4.45,3.74-8.51,7.93-12.17,12.44-10.61,13.11-21.36,26.44-31.01,40.3-1.8,2.59-3.49,5.25-5.07,7.98-10.08,17.41-16.8,36.97-24.47,55.35-5.49,13.15-9.38,26.85-12.27,40.79-5.9,28.39-8.98,57.49-12.51,86.19-.77,20.5,2.87,39.79,10.94,57.87.15,3.81.42,7.62.83,11.42,2.5,23.16,4.75,47.38,10.64,70.22,5.79,22.42,16.22,43.61,25.24,64.73,3.66,8.57,7.85,16.88,12.75,24.81,12.06,19.49,26.78,37.6,41.55,54.98,5.65,6.65,11.82,12.85,18.42,18.55,13.74,11.88,28.52,22.68,43.02,33.56,3.59,2.69,7.26,5.28,11.03,7.72,7.33,4.72,15,8.91,22.94,12.5,17.42,7.89,35.09,15.67,53.08,22.23,4.71,1.72,9.5,3.24,14.34,4.55,4.59,1.24,9.23,2.29,13.9,3.15,14.03,2.56,28.23,4.55,42.43,6.21,19.67,7.76,40.39,11.7,62.16,11.76,20.02-.96,40.88-4.68,60.15-7.37,5.95-.83,11.85-1.85,17.7-3.22,24.44-5.73,47.78-17.08,70.54-26.89,10.13-4.37,19.91-9.43,29.2-15.39,21.19-13.61,41.38-29.25,59.98-46.23,7.2-6.58,13.84-13.81,20.14-21.35,5.17-3.5,10.11-7.39,14.81-11.69,18.51-11.99,33.1-27.89,43.78-47.7,5.25-12.44,10.5-24.89,15.75-37.33,12.73-15.33,21.48-32.98,26.23-52.97.72-5.39,1.45-10.78,2.17-16.17,5-8.28,9.03-17.11,12.09-26.52,10.64-20.26,15.52-42.09,14.64-65.5Z"/>
  </g>
  <g id="Layer_3" data-name="Layer 3">
    <path class="cls-4" d="M301.83,88.88c-1.49-4.6-5.16-8.89-9.69-11.12-.09-.79-.22-1.59-.39-2.39-2.13-10.14-10.12-17.63-19.03-22.25-8.5-4.41-17.42-8.11-26.11-12.12-8.93-4.13-17.81-8.42-26.84-12.35-11.36-4.95-23.89-6.98-34.71.58-10.06,7.04-15.93,19.94-12.5,32.14,2.81,10.02,10.8,18.81,20.98,21.54,9.66,14.77,25.99,24.63,44.48,23.26,1.35-.1,2.68-.36,3.99-.72,14.15,8.36,32.65,10.11,47.94,4.34,8.29-3.13,14.88-11.62,11.87-20.91Z"/>
    <path class="cls-1" d="M402.91,156.65c-.34-7.65-3.52-14.68-8.61-19.73.19-3.09.05-6.22-.35-9.32,3.66-4.64,5.85-10.38,5.57-16.5-.67-14.9-12.08-27.5-27.5-27.5-4.71,0-9.35,1.36-13.44,3.7-12.78-3.07-26.77-.98-36.36,8.61-6,6-4.96,14.23-4.89,21.93.04,4.62.09,9.25.13,13.87.1,10.57.2,21.13.29,31.7.08,8.89,7.76,17.41,17,17,2.94-.13,5.76-.96,8.22-2.33.46.16.93.29,1.41.39,5.17,1.09,10.16,1.12,14.87.28,4.46,3.38,9.99,5.4,16.16,5.4,14.38,0,28.17-12.65,27.5-27.5Z"/>
    <ellipse class="cls-3" cx="282.93" cy="451.39" rx="58" ry="83"/>
    <ellipse class="cls-6" cx="273.77" cy="434.39" rx="28.65" ry="41"/>
    <ellipse class="cls-7" cx="308.71" cy="489.93" rx="13.59" ry="6.48" transform="translate(-269.94 512.32) rotate(-60)"/>
    <ellipse class="cls-3" cx="521.93" cy="451.39" rx="58" ry="83"/>
    <ellipse class="cls-6" cx="521.77" cy="435.39" rx="28.65" ry="41"/>
    <ellipse class="cls-7" cx="556.71" cy="490.93" rx="13.59" ry="6.48" transform="translate(-146.81 727.59) rotate(-60)"/>
    <path class="cls-3" d="M462.8,539.41c-2.86-6.19-11.47-4.83-14.68,0-9.58,14.42-26.09,24.61-43.49,25.86-14.23,1.02-28.03-3.25-39.25-11.53-2.94-4.44-5.88-8.89-8.82-13.33-2.75-4.15-9.66-6.2-13.35-1.72-4.07,4.94-6.1,10.23-6.32,16.12-6.52,31.91,11.55,66.05,42.64,77.24,33.14,11.92,71-4.46,84.46-36.9,7.47-17.99,6.96-38.11-1.19-55.74ZM384.46,615.53c.47-.28.93-.6,1.38-.99,10.32-8.9,27.11-8.67,37.46.02-12.5,5.53-26.58,5.63-38.84.97Z"/>
    <path class="cls-5" d="M302.64,84.74c-.09-2.26-.18-4.52-.26-6.78-.12-3.02-1.2-5.97-3.37-8.13-1.99-1.99-5.27-3.5-8.13-3.37-2.97.13-6.06,1.11-8.13,3.37-1.2,1.31-2.19,2.85-2.79,4.52-1.76.32-3.45,1.09-4.74,2.19-24.08,20.44-60.36,11.52-74.22-16.04-4.92-9.78-19.59-1.18-14.68,8.58,2.94,5.84,6.82,11.21,11.39,15.93-2.68,3.69-2.86,9.39,2.14,12.49,25.98,16.12,57.57,21.13,87.33,14.32,3.26-.75,6.67-4.67,6.24-8.2l-.91-7.52c2.53-.34,5.01-1.33,6.77-3.24,2.02-2.2,3.49-5.06,3.37-8.13Z"/>
    <path class="cls-2" d="M788.83,508.21c-.5-49.66-9.99-99.47-28.68-145.52-1.91-4.7-5.34-8.92-9.68-11.2,1.56-4.25,3.13-8.5,4.69-12.76.56-1.52.8-3.12.79-4.73l.62-1.65c.92-1.42,1.64-3.02,2.11-4.77,1.41-5.3,2.82-10.59,4.23-15.89,2.35-8.84-2.95-19.42-12.22-21.53-3.97-.9-8.05-.51-11.62.99-2.13-1.37-4.91-1.88-7.19-1.26-4.83,1.33-6.66,5.91-5.94,10.46.47,2.94.94,5.88,1.4,8.82-.57,2.14-1.14,4.29-1.71,6.43-.12.29-.25.57-.36.87-1.97,5.28-3.94,10.55-5.92,15.83-.81,1.31-1.48,2.74-1.98,4.3l-7.43,23.56c-.13.42-.23.84-.32,1.27-7.47,20.15-15.08,40.25-23.08,60.2-3,7.48-6.05,14.94-9.17,22.37-.18.43-.39.92-.44,1.04-.35.83-.71,1.66-1.06,2.49-.83,1.94-1.66,3.87-2.5,5.81-1.67,3.87-3.37,7.72-5.09,11.57-6.61,14.81-13.55,29.48-20.92,43.94-14.68,28.81-31.07,56.82-49.84,83.17-1.97,2.76-3.96,5.51-5.99,8.23-1.09,1.47-2.19,2.93-3.3,4.39-.26.34-.52.69-.79,1.03-.16.2-.82,1.06-1.27,1.64-4.37,5.56-8.85,11.03-13.46,16.4-9.22,10.75-18.91,21.09-29.08,30.94-10.32,10-21.13,19.5-32.42,28.39-.48.38-.95.75-1.43,1.12-.17.13-.35.27-.59.44-1.25.94-2.49,1.88-3.75,2.81-2.92,2.16-5.88,4.29-8.86,6.36-5.95,4.15-12.03,8.12-18.22,11.9-11.89,7.26-24.22,13.83-36.92,19.55-1.41.63-2.83,1.25-4.24,1.87-.14.06-.26.11-.38.17-.62.25-1.23.51-1.85.76-3.34,1.36-6.71,2.66-10.09,3.9-6.54,2.39-13.17,4.56-19.87,6.49-6.98,2.01-14.03,3.75-21.14,5.22-3.48.72-6.98,1.37-10.48,1.96-1.61.27-3.23.53-4.84.77-.22.03-1.04.15-1.67.24-.63.08-1.59.21-1.76.23-14.76,1.78-29.64,2.42-44.5,1.97-7.28-.22-14.54-.69-21.79-1.41-3.15-.31-6.3-.67-9.44-1.08-.49-.08-2.14-.31-2.79-.41-2.14-.32-4.27-.67-6.41-1.03-14.73-2.52-29.29-5.99-43.6-10.3-7.07-2.13-14.09-4.46-21.03-6.98-3.36-1.22-6.69-2.48-10.02-3.78-1.79-.7-3.58-1.42-5.36-2.15-.76-.31-1.53-.63-2.29-.94-.09-.03-.14-.06-.21-.09-.06-.03-.11-.05-.18-.08-13.95-6.11-27.63-12.71-40.96-20.08-13.12-7.26-25.91-15.12-38.32-23.53-6.43-4.36-12.77-8.86-19-13.5-1.33-.99-2.66-1.99-3.99-3-.66-.5-1.32-1.01-1.98-1.51,0,0,0,0-.01,0-.1-.08-.22-.17-.38-.3-3.04-2.39-6.07-4.8-9.06-7.24-5.74-4.69-11.37-9.5-16.91-14.41-.99-1.38-1.99-2.75-2.98-4.13-1.63-2.26-3.38-4.21-5.51-5.69-3.08-3.81-6.15-7.61-9.23-11.42-2.64-3.27-8.36-5.13-12.37-5.13-1.12,0-2.3.14-3.48.39-4.6.13-9.18,1.87-12.12,5.08-6.61,7.2-6.31,16.48-.69,23.86.52,1.96,1.36,3.89,2.5,5.74.75,1.33,1.64,2.62,2.68,3.96,3.49,4.48,6.99,8.95,10.48,13.43.55.7,1.25,1.33,2.05,1.9.38.46.75.92,1.13,1.38,3.24,3.97,8.71,5.52,13.94,5,3.18,2.67,6.38,5.32,9.62,7.92-3.98,6.85-2.87,14.93,2.55,21.27,18.03,21.07,36.06,42.15,54.1,63.22-1.93,6.26.02,12.27,4.24,17.38,47.29,57.28,113.91,98.61,185.81,116.9,69.37,17.64,142.9,12.88,209.69-12.2,3.63,1.79,7.78,2.36,11.65.85,73.84-28.62,137.49-78.24,183.87-142.38,49.31-68.18,74.85-152.09,74-236.1Z"/>
    <path class="cls-8" d="M727.92,337.83c-1.76-22.31-4.76-44.59-8.8-66.6-1.96-10.66-11.88-21.91-20.91-27.19-9.75-5.71-24.13-8.13-35.06-4.59-11.01,3.56-21.63,10.39-27.19,20.91-6,11.35-6.9,22.44-4.59,35.06,1.16,6.31,2.21,12.64,3.15,18.98,1.07,8.76,1.92,17.54,2.56,26.33-.59.33-1.17.67-1.74,1.04-9.3,6-19.13,15.76-20.91,27.19-10.48,67.21-21.25,135.18-46.86,198.56-10.5,23.78-23.24,46.41-38.7,67.32-12.54,15.56-26.53,29.88-42.02,42.5-12.17,8.91-25.1,16.68-38.76,23.06-5.85,1.32-11.74,2.46-17.67,3.4-16.88,1.85-33.86,2.16-50.8.81-7.5-.6-16.11,2.24-23.25,6.5-29.22-4.69-57.59-13.51-84.99-24.63-36.1-15.75-70.24-35.67-101.75-59.28-23.18-18.33-44.75-38.59-64.4-60.67-7.48-8.41-21.19-13.33-32.17-13.33s-24.49,4.96-32.17,13.33c-7.96,8.67-13.87,20.06-13.33,32.17.56,12.46,4.99,22.8,13.33,32.17,39.92,44.86,88.21,83.32,140.68,112.52,27.98,15.57,57.57,28.65,87.78,39.24,32.81,11.5,67.22,18.84,101.97,20.82,32.3,1.84,66.1-2.26,96.53-13.48,1.61-.59,3.22-1.21,4.83-1.82,4.89-1.15,9.74-2.39,14.55-3.76,34.22-9.73,67.76-25.15,96.73-45.89,32.36-23.18,59.49-50.57,81.68-83.71,19.89-29.71,34.63-63.94,43.17-98.63,4.89-19.87,7.89-40.44,9.11-60.89,10.59-51.69,14.14-105.12,10.01-157.45Z"/>
    <path class="cls-2" d="M745.46,328.56c-.42-3.77-.95-7.51-1.58-11.21.64-1.53.78-3.36.15-5.43l-5.93-19.48c-.23-.77-.55-1.44-.91-2.05-2.56-7.77-5.64-15.39-9.26-22.86-4.77-9.84-19.44-1.23-14.68,8.58,7.97,16.43,13.2,34.29,15.21,52.45.51,4.56,3.54,8.5,8.5,8.5,4.2,0,9.01-3.91,8.5-8.5Z"/>
  </g>
  <g id="Layer_1-2" data-name="Layer 1">
    <g>
      <path class="cls-3" d="M606.48,181.9s-.1-.04-.15-.07c.41.18.59.26.63.28-.16-.07-.32-.14-.48-.21Z"/>
      <path class="cls-3" d="M802.99,400.36c-18.11-78.64-58.14-157.46-120.48-210.14-33.35-28.18-72.71-48.2-116.25-54.2-50.24-6.92-100.66,3.01-148.47,18.38-.88.28-1.76.58-2.64.87-.12-24.7-.25-49.39-.37-74.09-.05-9.18-7.75-17.01-17-17l-77.57.12c-.4-1.14-.97-2.24-1.73-3.28C282.29,11.42,215.61-12.35,156.47,6.38c-6.72,2.13-13.04,8.84-12.48,16.39,2.61,35.59,19.47,69.53,47.78,91.63,28.87,22.54,66.11,31.34,101.97,24.8.51,7.41,1.03,14.81,1.54,22.22-64.64-4.76-130.27,20.51-179.05,64.73C50.43,285.8,15.21,373.68,3.8,460.26c-12.05,91.43,4.57,186.78,49.67,267.48,40.19,71.91,102.63,132.65,177.12,168.31,71.01,33.99,150.21,43.54,227.78,32.21,76.11-11.12,148.73-43.57,208.18-92.27,61.76-50.59,105.69-120.35,128.82-196.47,23.45-77.14,25.69-160.66,7.62-239.16ZM290.47,105.24c-2.12.49-4.26.87-6.4,1.31-.47.1-.81.17-1.04.23-.2.01-.49.04-.9.08-3.79.37-7.58.63-11.4.64-3.82.02-7.61-.25-11.41-.54-.81-.1-1.3-.15-1.51-.17-.69-.11-1.37-.21-2.06-.33-1.61-.28-3.21-.59-4.81-.94-3.72-.81-7.4-1.82-11.02-3.01-2.07-.68-4.11-1.44-6.14-2.22-.45-.17-.74-.28-.93-.34-.2-.11-.51-.27-1-.52-3.41-1.72-6.8-3.38-10.08-5.36-1.63-.98-3.23-2.01-4.81-3.08-.44-.3-3.37-2.42-3.19-2.24-5.4-4.25-10.34-9.17-14.77-14.41-.11-.13-1.82-2.28-1.9-2.35-1-1.35-1.98-2.73-2.91-4.12-2.01-3.01-3.89-6.12-5.6-9.31-.73-1.37-1.44-2.75-2.12-4.15-.24-.48-2.06-4.72-1.78-3.93-1.2-3.08-2.28-6.19-3.21-9.36-.54-1.86-1.03-3.73-1.47-5.62,1.32-.25,2.66-.47,3.99-.68.51-.06,1.46-.18,2.17-.25,1.42-.14,2.84-.25,4.27-.34,3.32-.21,6.66-.28,9.99-.23,3.1.05,6.19.22,9.28.49,1.12.1,2.24.22,3.35.35-.56-.05,2.34.35,2.77.42,6.36,1.08,12.63,2.62,18.77,4.6,2.96.95,5.86,2.05,8.76,3.15.24.09.43.16.6.22.16.08.35.17.62.3,1.72.82,3.46,1.6,5.17,2.46,5.54,2.78,10.89,5.94,15.98,9.47,1.17.81,2.32,1.66,3.48,2.5.04.03.07.05.1.08.69.55,1.38,1.11,2.06,1.68,2.19,1.83,4.32,3.74,6.38,5.71,2.4,2.31,4.71,4.71,6.92,7.21.95,1.07,1.85,2.18,2.78,3.27.29.37.51.64.66.82.35.47.7.94,1.05,1.42.21.29.44.57.67.85-.08.75-.11,1.51-.06,2.29.55,7.92,1.1,15.84,1.65,23.76-.3.05-.6.1-.91.17ZM380.86,98.2l.34,68.96c-7.86,2.92-15.69,5.9-23.51,8.93-9.21-3.8-18.58-6.84-28.04-9.19-1.59-22.87-3.17-45.74-4.76-68.61,18.65-.03,37.31-.06,55.96-.08ZM780.73,521.34c-.33,9.51-.95,19.02-1.88,28.49-.46,4.73-1.03,9.46-1.62,14.18,0,.04,0,.06-.01.1-.03.17-.06.37-.09.59-.15.99-.28,1.98-.43,2.97-.37,2.47-.76,4.94-1.17,7.41-3.15,18.97-7.54,37.74-13.16,56.13-2.77,9.06-5.84,18.02-9.21,26.87-.8,2.09-1.61,4.18-2.44,6.27-.37.93-.74,1.85-1.12,2.77-.1.23-.75,1.79-1.03,2.47-1.71,4.01-3.49,7.99-5.33,11.94-8.11,17.38-17.46,34.19-28.01,50.21-2.47,3.75-5.01,7.46-7.61,11.13-1.16,1.63-2.33,3.25-3.51,4.86-.89,1.21-1.78,2.41-2.69,3.61-.25.33-1.2,1.57-1.62,2.12-5.44,6.96-11.12,13.72-17.05,20.26-12.12,13.37-25.23,25.84-39.14,37.32-1.65,1.36-3.31,2.71-4.98,4.04-.63.5-4.08,3.16-3.59,2.81-3.51,2.64-7.02,5.27-10.61,7.81-7.36,5.22-14.9,10.2-22.6,14.91-15.41,9.44-31.45,17.84-47.97,25.17-.87.39-1.74.77-2.61,1.15,0,0-.85.37-1.59.69-.74.31-2.25.94-2.24.94-.88.36-1.76.72-2.64,1.08-4.41,1.78-8.86,3.48-13.33,5.11-8.49,3.09-17.09,5.9-25.77,8.44-17.33,5.07-34.99,9-52.84,11.77-1.94.3-3.89.58-5.83.85-.61.07-2.9.37-3.75.47-4.71.56-9.42,1.04-14.15,1.44-8.96.75-17.95,1.21-26.95,1.35-17.99.29-35.87-.82-53.73-2.87-.28-.03-.51-.06-.7-.08-.12-.02-.25-.04-.4-.06-.93-.14-1.87-.27-2.8-.4-2.1-.31-4.2-.64-6.29-.99-4.65-.77-9.29-1.63-13.92-2.58-8.79-1.81-17.51-3.95-26.13-6.41-8.65-2.47-17.2-5.28-25.62-8.41-3.88-1.44-7.73-2.97-11.56-4.55-.52-.23-2.79-1.2-3.52-1.52-2.57-1.14-5.13-2.31-7.68-3.51-17.8-8.39-34.91-18.23-51.16-29.33-3.8-2.59-7.55-5.26-11.25-7.99-1.65-1.21-3.28-2.45-4.91-3.68-.27-.2-.48-.36-.66-.5-.19-.16-.43-.35-.75-.6-1.2-.96-2.4-1.91-3.6-2.87-7.56-6.1-14.89-12.49-21.98-19.14-14.19-13.31-27.39-27.66-39.48-42.9-.39-.5-.78-.99-1.18-1.49.41.51-.98-1.25-1.35-1.74-1.39-1.83-2.77-3.68-4.14-5.54-3.03-4.13-5.98-8.32-8.85-12.56-5.45-8.06-10.6-16.32-15.45-24.76-4.84-8.44-9.38-17.05-13.59-25.82-1.99-4.15-3.91-8.34-5.76-12.57.04.09-.49-1.15-.87-2.01-.38-.93-1.25-3.02-1.18-2.84-1.11-2.72-2.19-5.46-3.24-8.21-7.97-20.87-14.16-42.4-18.61-64.28-4.54-22.33-6.64-40.06-7.57-63.72-.88-22.35-.02-44.77,2.53-67,.17-1.46.34-2.92.53-4.38.05-.37.22-1.67.3-2.29.34-2.4.69-4.79,1.07-7.18.87-5.52,1.85-11.03,2.94-16.52,2.23-11.26,4.9-22.43,8.02-33.48,2.81-9.97,5.98-19.84,9.53-29.58,1.63-4.47,3.34-8.92,5.13-13.33.45-1.11.91-2.23,1.37-3.33.08-.19.17-.4.29-.66,1.17-2.67,2.34-5.33,3.56-7.98,8.38-18.23,18.22-35.8,29.61-52.32,2.68-3.89,5.46-7.71,8.31-11.48.3-.36,2.22-2.84,2.68-3.4,1.81-2.25,3.65-4.47,5.52-6.66,6.63-7.76,13.67-15.17,21.12-22.16,3.44-3.23,6.96-6.36,10.56-9.4,1.6-1.35,3.22-2.68,4.86-3.99.14-.11,2.09-1.62,2.43-1.9.96-.72,1.91-1.44,2.88-2.15,8.14-5.96,16.67-11.39,25.53-16.22,4.21-2.3,8.5-4.47,12.85-6.5.97-.45,1.94-.9,2.91-1.33-.14.06,1.23-.54,2.15-.95.81-.33,2.8-1.16,2.63-1.1,1.49-.6,2.98-1.18,4.48-1.74,9.48-3.57,19.2-6.51,29.07-8.78,4.66-1.07,9.36-1.99,14.08-2.75,1.05-.17,2.1-.32,3.15-.48.22-.03.41-.06.59-.09.11,0,.24-.02.41-.04,2.9-.27,5.79-.64,8.69-.86,9.98-.78,20.03-.84,30.02-.11,2.36.17,4.71.39,7.06.65.47.05,1.76.21,2.22.26.62.09,1.23.18,1.85.27,4.67.74,9.3,1.65,13.9,2.75,4.6,1.1,9.16,2.39,13.65,3.86,2.5.82,4.99,1.7,7.46,2.63.96.36,1.91.75,2.87,1.12.09.09.18.18.27.27,4.1,1.54,8.05,3.47,11.74,5.58,1.59.02,3.2-.25,4.79-.87,12.27-4.77,24.59-9.52,37.01-14.06.09,0,.18,0,.27.01,2.7-2.13,11.18-4.14,11.99-4.17.16-.13.33-.26.49-.4,28.3-9.89,57.1-18.27,86.75-22.73.39-.06,2.14-.31,2.61-.38.96-.12,1.91-.24,2.87-.35,2.72-.32,5.45-.6,8.18-.84,6.04-.53,12.1-.87,18.17-.99,5.74-.11,11.49-.02,17.23.3,2.42.13,4.83.3,7.24.52,1.51.13,3.01.28,4.52.45.9.1,1.81.2,2.71.31q-1.21-.18,0,0c10.84,1.54,21.56,4.01,31.98,7.36,4.59,1.47,9.08,3.16,13.56,4.92.18.07.53.22.85.36-.19-.08-.42-.19-.72-.32.29.13.58.26.88.39.3.13.53.23.48.21.47.21.95.41,1.42.63,2.76,1.24,5.49,2.55,8.19,3.91,8.56,4.32,16.83,9.22,24.75,14.62,3.64,2.47,7.21,5.05,10.7,7.72.16.13.33.27.55.45.99.8,1.98,1.59,2.97,2.4,2.17,1.78,4.31,3.59,6.41,5.43,7.32,6.41,14.3,13.22,20.93,20.34,3.16,3.39,6.24,6.86,9.24,10.38,1.5,1.77,2.99,3.55,4.46,5.35.82,1,1.62,2,2.43,3.01.25.32,1.31,1.67,1.72,2.2,11.65,15.25,22,31.49,31.14,48.35,4.54,8.37,8.78,16.9,12.72,25.56.93,2.05,1.85,4.11,2.75,6.18.41.94.81,1.88,1.21,2.82.08.2.18.43.3.73,1.89,4.64,3.73,9.29,5.47,13.99,6.61,17.85,12.02,36.14,16.23,54.7,2.11,9.29,3.91,18.64,5.41,28.05.4,2.48.75,4.96,1.12,7.44.04.24.1.72.16,1.1.08.61.16,1.22.24,1.83.63,4.98,1.17,9.96,1.63,14.95,1.74,18.97,2.29,38.06,1.63,57.1Z"/>
    </g>
    <line class="cls-3" x1="469.91" y1="107.5" x2="478.93" y2="110.39"/>
    <path class="cls-4" d="M264.57,62.89c-7.86,4.5-16.78,5.66-25.03,3.98-1.37-1.56-3.15-2.7-5.27-3-.11-.02-.21-.04-.32-.05-1.72-4.18-5.92-6.71-10.66-7.2-.96-.1-2-.38-3.07-.79-2.6-2.96-4.73-6.43-6.2-10.38-2.17-5.82-7.78-9.78-14.15-8.03-1.08.3-2.13.8-3.1,1.44-.16.04-.32.06-.49.11-2.35.65-4.59,2.28-6.19,4.39-3.4,3.63-3.83,9.07-1.55,13.68,4.74,9.6,12.62,17.68,22.02,22.95,4.72,3.02,9.88,5.35,15.3,6.94,16.39,6.44,35.11,4.53,50.31-4.17,12.84-7.35,1.27-27.23-11.61-19.86Z"/>
    <path class="cls-3" d="M304.27,59.87c-.31-.32-.63-.64-.94-.97-.53-1.1-1.25-2.13-2.19-3.04-1.6-1.55-3.2-3.1-4.8-4.65-.39-.57-.82-1.12-1.33-1.63-.72-.58-1.44-1.16-2.15-1.74-.49-.48-.98-.95-1.48-1.43-4.33-4.19-12.01-4.63-16.26,0-.03.03-.06.07-.09.11-.01.01-.02.02-.03.03-2.01,2.19-3.51,5.07-3.37,8.13.14,1.02.27,2.04.41,3.06.55,1.95,1.53,3.64,2.96,5.07.39.32.79.63,1.18.95.37.53.77,1.04,1.24,1.52,3.53,3.62,7.07,7.23,10.6,10.85,4.21,4.31,12.09,4.54,16.26,0,4.25-4.63,4.49-11.67,0-16.26Z"/>
  </g>
</svg>