<?xml version="1.0" encoding="UTF-8"?>
<svg id="Layer_2" data-name="Layer 2" xmlns="http://www.w3.org/2000/svg" viewBox="0 0 679.71 664.1">
  <defs>
    <style>
      .cls-1 {
        fill: #f9f6c1;
      }

      .cls-1, .cls-2, .cls-3, .cls-4, .cls-5, .cls-6, .cls-7, .cls-8, .cls-9 {
        stroke-width: 0px;
      }

      .cls-2 {
        fill: #ca7730;
      }

      .cls-10 {
        stroke: #000;
        stroke-miterlimit: 10;
      }

      .cls-10, .cls-3 {
        fill: #000;
      }

      .cls-4 {
        fill: #ff6e6c;
      }

      .cls-5 {
        fill: #f1ba79;
      }

      .cls-6 {
        fill: #eda759;
      }

      .cls-7 {
        fill: #efba7c;
      }

      .cls-8 {
        fill: #fff;
      }

      .cls-9 {
        fill: #a94e15;
      }
    </style>
  </defs>
  <g id="Layer_2-2" data-name="Layer 2">
    <path class="cls-6" d="M614.76,321.54c.02-.28.13-1.11.19-1.5.07-.44.14-.87.22-1.31.7-3.76,1.66-7.46,2.95-11.06.2-.56.42-1.13.63-1.69.05-.1.1-.2.17-.34.86-1.75,1.74-3.48,2.73-5.16.85-1.44,1.76-2.85,2.71-4.24.47-.69.97-1.37,1.46-2.05.18-.26.3-.43.38-.55,0,0,0-.01.01-.02,10.99-14.03,24.03-26.47,29.21-44.06,4.9-16.66,2.55-37.09-11.34-48.88-.59-.5-1.22-.95-1.86-1.38-1-6.08-2.5-12.11-4.55-18.02-9.13-26.29-26.84-48.52-50.41-63.31-1.95-1.22-4.16-1.93-6.45-2.18-1.08-2.34-2.16-4.68-3.26-7.02-4.72-10.08-10.8-19.27-19.68-26.13-10.18-7.87-23.48-11.11-36-7.58-8.55,2.41-14.71,12.14-11.87,20.91,2.82,8.72,11.74,14.46,20.91,11.87.58-.14.97-.24,1.19-.31.38,0,.76.01,1.15.03-1.96-.03-.83.39.27.59-.63.28-1.24.59-1.82.96-8.12,5.23-10.41,14.76-6.1,23.26,11.58,22.85,23.16,45.7,34.73,68.55-1.77,7.78-4.03,15.43-6.82,22.91-.46,1.24-.94,2.47-1.42,3.69-.15.37-.87,2.06-.9,2.16-.91,2.04-1.83,4.08-2.81,6.09-2.31,4.75-4.82,9.4-7.53,13.93-2.71,4.53-5.61,8.95-8.7,13.23-.62.86-1.25,1.7-1.87,2.55-.23.31-.41.56-.56.76-.17.2-.38.46-.66.81-1.5,1.84-3.01,3.67-4.57,5.47-7.11,8.18-14.95,15.65-23.39,22.43-.9.72-1.67,1.57-2.31,2.5-7.01,2.18-11.74,8.32-12.16,16.16-.03.57-.06,1.14-.09,1.7-.88-.14-1.75-.2-2.61-.16-10.2.46-15.76,7.51-17,17-8.8,67.22-6.43,135.54,6.21,202.12,3.57,18.8,8.03,37.41,13.3,55.81,3.09,10.77,15.3,15.44,24.97,10.16,28.21-15.41,56.62-31.28,80.2-53.46,21.8-20.51,39.96-47.96,44.76-77.95,5.65-35.31-6.94-67.52-16.13-100.97-1.95-7.1-3.61-14.28-4.78-21.55-.08-.53-.16-1.06-.24-1.59-.05-.43-.15-1.24-.17-1.47-.15-1.68-.33-3.36-.44-5.05-.26-3.9-.34-7.81-.19-11.71.07-1.66.21-3.3.33-4.96ZM603.23,438.26c-.17-.71-.35-1.41-.54-2.12-.03-1.41-.07-2.83-.13-4.24.25,1.39.51,2.78.72,4.18.02.14.04.26.06.37.1.81.18,1.62.26,2.42.02.21.03.42.05.64-.13-.42-.27-.84-.42-1.25Z"/>
    <g>
      <path class="cls-1" d="M104.25,167.91c.01.07,0,0-.04-.27.02.11.03.2.04.25,0,0,0,.01,0,.02Z"/>
      <path class="cls-1" d="M503.77,122.77c-17.05-23.74-38.6-43.63-63.22-59.36-50.76-32.41-111.89-45.22-171.58-43.18-33.88,1.16-67.69,6.7-100.5,15.06-30.13,7.68-61.3,17.06-87.37,34.51-24.88,16.66-46.39,41.51-52.67,71.48-5.81,27.71,1.64,58.88,22.94,78.46,5.1,4.69,10.86,8.81,17.15,11.73,1.87.87,3.88,1.46,5.92,1.76-.5,5.14-1.06,10.27-1.7,15.4-9.55,66.71-28.13,132.19-30.77,199.82-1.18,30.22.64,62.23,10.91,90.92,11.65,32.53,32.66,62.98,65.2,77.37,9.22,4.08,18.4,7.79,28.25,9.99,10.24,2.29,20.77,3.58,31.2,4.55,15.74,1.48,31.6,1.51,47.39,1.91l104.67,2.68c30.58.78,62.47.02,89.93-15.23,18.43-10.23,31.02-26.67,38.28-46.16,6.36-17.07,5.31-36.13,4.17-53.97-4.5-70.56-9.01-141.12-13.51-211.68-.22-3.5-.45-7-.67-10.49,13.16-5.55,25.9-12.04,37.45-20.29,24-17.16,40.88-40.32,44.53-70.11,3.68-30.01-8.74-61.16-26-85.19ZM120.5,86.78c.06.51.15,1.02.25,1.54-.66-.07-1.32-.1-1.99-.07-.57.03-1.12.08-1.67.15,1.13-.55,2.27-1.08,3.41-1.61ZM105.03,171.81c-.12-.54-.25-1.08-.36-1.63-.15-.76-.29-1.52-.42-2.28,0,0,0-.01,0-.02-.07-.43-.15-.86-.23-1.29.09.49.15.83.19,1.04-.06-.39-.17-1.11-.23-1.8-.3-3.21-.45-6.42-.46-9.64,0-.39,0-.77,0-1.16.64,5.53,1.44,11.04,2.37,16.52-.29.08-.58.17-.87.25ZM184.72,81.71c-1.36-4.81-2.75-9.61-4.2-14.39.52-.13,1.04-.25,1.56-.38,1.62,4.52,3.17,9.07,4.68,13.63-.7.34-1.38.72-2.04,1.14ZM329.61,58.96c-2.38-.81-4.76-1.61-7.14-2.42,3.63.49,7.28,1.08,11.08,1.77-1.34.15-2.65.37-3.95.65Z"/>
    </g>
    <path class="cls-5" d="M381.26,469.99c.03-.36.04-.72.03-1.07-.13-2.97-1.11-6.06-3.37-8.13-.15-.14-.31-.26-.46-.39-.53-1.01-1.19-1.94-2.02-2.78-1.04-1.12-2.28-1.91-3.7-2.38-3.22-1.36-7.2-1.42-10.23.58-2.76,1.82-4.74,3.99-6.02,7.03-.9,2.14-1.48,4.4-1.27,6.76.25,2.79.8,5.3,2.32,7.72,2.07,3.29,4.93,5.13,8.49,6.49,1.77.68,4.11.53,6.17-.06,3.16-.43,5.77-1.78,7.8-4.41,1.9-2.46,3.19-6.19,2.28-9.36Z"/>
    <path class="cls-9" d="M623.05,414.98c-2.81-15.7-7.58-30.93-12.85-45.97,4.54-4.35,6.79-11.61,4.95-17.29-1.18-3.66-3.16-6.48-5.67-8.49,1.6-2.52,2.51-5.47,2.37-8.67-.4-8.95-7.48-17.33-17-17l-25.92.9c-2.34-1.32-5.03-2.05-7.95-1.89-13.18.74-26.35,1.47-39.53,2.21-1.78.1-3.55.47-5.23,1.06-5.17-.86-10.28-1.93-15.29-3.23-8.6-2.23-18.85,2.83-20.91,11.87-.53,2.32-.59,4.68-.24,6.96-1.98,2.78-3.15,6.12-3.09,9.64,1.46,76.93,2.93,153.87,4.39,230.8.23,12.16,14.53,22.14,25.58,14.68,16.85-11.38,33.71-22.76,50.56-34.15,14.75-9.96,30.6-19.74,42.36-33.33.93.16,1.85.23,2.74.19,7.46-.33,14.4-5.03,16.39-12.48,3.23-12.07,4.72-24.52,4.48-36.93,3.9-19.1,3.38-39.27-.13-58.9Z"/>
    <path class="cls-2" d="M655.86,267.98c-1.99-6.16-6.79-11.28-12.66-13.54,3.29-1.22,6.54-2.56,9.75-4.03,3.5-1.61.46-6.79-3.03-5.18-30.6,14.08-65.84,15.65-97.66,4.73-2.28-.78-3.75,1.17-3.65,3.05-9.44-1.49-20.03,5.14-22.17,14.54-.68,3-.72,5.93-.24,8.69-1.76-.06-3.53-.12-5.29-.17-10.47-.31-20.47,9.42-20,20,.5,11.1,8.79,19.67,20,20,10.86.32,21.74.84,32.61,1.01,3.04,2.05,6.66,3.21,10.64,3.02l6.41-.31c.91.13,1.84.2,2.8.2s1.86-.08,2.77-.22c.33.02.66.03.99.03.58,0,1.16-.03,1.73-.09.6.06,1.22.09,1.84.09.09,0,.18,0,.27,0,.89.12,1.81.2,2.74.2,1.68,0,3.36-.24,4.98-.69.27-.03.53-.05.8-.09,1.09-.03,2.17-.14,3.24-.36.7-.02,1.39-.07,2.06-.18.08-.01.17-.02.25-.03.1,0,.2,0,.31-.01.08,0,.17-.01.25-.02.02,0,.03,0,.05,0l5.58-.27c4.65-.22,9.22-2,12.82-4.89,2.82-2.05,5.14-4.76,6.56-7.91,3.07-2.1,5.25-5.39,6.45-9.1,5-1.06,9.94-2.35,14.81-3.87,9.97-3.11,17.37-14.08,13.97-24.6Z"/>
    <path class="cls-9" d="M621.8,334.05c-.47-10.46-8.8-20.47-20-20-16.18.69-32.37,1.37-48.55,2.06-10.44.44-20.5,8.88-20,20,.47,10.46,8.8,20.47,20,20,16.18-.69,32.37-1.37,48.55-2.06,10.44-.44,20.5-8.88,20-20Z"/>
    <path class="cls-2" d="M582.77,178.5c-.62-2.36-3.66-4.53-6.15-3.49-4.84,2.02-9.87,1.43-13.67-2.35-4.57-4.54-11.64,2.52-7.07,7.07,6.07,6.04,15.4,8.26,23.4,4.92,2.51-1.05,4.24-3.3,3.49-6.15Z"/>
  </g>
  <g id="Layer_1-2" data-name="Layer 1">
    <g>
      <path class="cls-3" d="M460.25,575.57c.05-.29.1-.59.14-.88.01-.07.02-.14.03-.2-.26,1.49-.25,1.51-.17,1.08Z"/>
      <path class="cls-3" d="M678.04,259.42c5.12-31.81-1.8-62.96-17.51-90.95-15.37-27.39-37.88-50.63-62.47-69.89-26.09-20.44-54.57-36.62-85.43-48.71-31.81-12.46-65.65-19.57-99.75-21.52C353.54,5.07,288.28-4.07,224.84,1.66c-33.55,3.03-66.82,9.7-98.63,20.84-31.99,11.2-63.42,26.88-87.33,51.44C15.83,97.62-.16,129.67,0,163.18c.15,31.61,15.94,62.44,42.1,80.28,1.18.81,2.4,1.56,3.63,2.29-21.97,75.19-32.36,154.03-30.32,232.34.94,36.03,3.29,73.62,19.86,106.34,16.01,31.59,45.94,51.17,78.99,61.49,34.52,10.77,71.95,13.18,107.82,15.64,41.08,2.81,82.32,3.3,123.45,1.45,18.55-.84,37.22-1.78,55.64-4.23,17.47-2.32,34.64-6.02,50.26-14.55.88-.48,1.75-.99,2.61-1.51,2.46-.17,4.95-.85,7.32-2.15,3.26-1.78,6.51-3.56,9.77-5.35,2.42-.2,4.9-.83,7.37-1.88,59.71-25.34,114.88-60.23,163.95-102.61,1.88-1.63,3.2-3.76,4-6.12,2.86-2.99,4.62-7.08,4.99-11.78,4.85-61.91-.27-124.58-14.76-184.96,22.34-16.05,37-41.3,41.36-68.45ZM454.97,291.3c-5.54,39.53-8.35,79.32-7.62,119.25.71,38.73,5.4,76.78,10.97,115.06.09.6.52,3.79.59,4.2.18,1.42.36,2.83.53,4.25.48,4.09.89,8.18,1.19,12.29.55,7.55.74,15.15.26,22.71-.11,1.72-.29,3.44-.44,5.16,0,.08-.02.17-.03.28.02-.14.05-.28.08-.44-.04.21-.07.43-.11.65-.05.31-.1.66-.14.88-.03.21-.07.42-.1.62-.66,3.77-1.54,7.51-2.69,11.16-.39,1.23-.82,2.43-1.27,3.64.28-.82-.84,1.93-1.29,2.81-.75,1.48-1.56,2.94-2.42,4.36-.41.67-.84,1.33-1.28,1.99-10.04,6.2-20.08,12.4-30.12,18.6-.89.42-1.78.85-2.67,1.27-.95.45-1.81,1.02-2.61,1.68-2.58.67-5.18,1.28-7.8,1.8-1.75.35-3.51.67-5.27.96-1.01.17-2.02.31-3.03.48-.28.05-.48.08-.65.11-.05,0-.08,0-.14.02-8.24.97-16.48,1.67-24.75,2.26-39.43,2.82-79.01,3.48-118.51,2-19.75-.74-39.48-2.02-59.16-3.84-9.15-.84-18.3-1.77-27.42-2.9-.81-.1-3.6-.48-3.46-.45-1.64-.23-3.27-.46-4.91-.71-3.8-.58-7.59-1.23-11.37-1.94-7.78-1.47-15.51-3.25-23.11-5.48-3.39-1-6.76-2.09-10.09-3.28-1.65-.59-3.29-1.21-4.92-1.86-.21-.08-.97-.4-1.51-.63-.78-.36-2.02-.91-1.98-.9-6.7-3.11-13.15-6.77-19.16-11.07-.54-.39-1.08-.79-1.61-1.19-.06-.06-.12-.11-.2-.19-1.26-1.17-2.64-2.22-3.91-3.38-2.94-2.68-5.71-5.55-8.28-8.58-.5-.59-.98-1.18-1.46-1.78-.07-.11-.16-.23-.29-.42-1.06-1.51-2.12-3.02-3.11-4.57-2.26-3.54-4.29-7.22-6.11-11.01-.34-.71-.67-1.43-1-2.14-.1-.22-.54-1.27-.78-1.82-.12-.32-.24-.62-.26-.67-.37-.99-.75-1.98-1.1-2.97-1.43-4-2.67-8.07-3.75-12.18-.95-3.63-1.78-7.29-2.5-10.98-.36-1.85-.7-3.71-1.01-5.57-.18-1.07-.35-2.13-.51-3.2-.05-.34-.24-1.65-.31-2.17-.97-7.67-1.6-15.39-2.05-23.11-2.2-37.85-1.33-75.92,2.37-113.65,3.52-35.98,10.15-73.08,19.71-109.87,2.4-9.23,4.99-18.4,7.73-27.53.17-.56.3-1.13.39-1.7,1.5-1.8,2.62-3.88,3.14-6.15,2.13-9.37-2.83-17.91-11.87-20.91-.97-.32-1.93-.68-2.88-1.03-.05-.07-2.21-1-2.95-1.39-2.74-1.43-5.33-3.08-7.87-4.83-.05-.04-.19-.14-.35-.26-.42-.36-1.05-.88-1.23-1.04-1.08-.93-2.13-1.9-3.15-2.89-1.02-1-2.02-2.02-2.98-3.08-.48-.53-.96-1.06-1.43-1.6-.15-.17-.9-1.1-1.38-1.68-.47-.66-1.41-1.96-1.63-2.29-.81-1.2-1.58-2.41-2.33-3.65-1.69-2.81-3.12-5.73-4.54-8.69-.2-.54-.41-1.08-.61-1.62-.5-1.36-.96-2.74-1.39-4.13-1-3.24-1.8-6.53-2.4-9.86-.08-.44-.15-.88-.22-1.32-.1-1.65-.3-3.29-.37-4.94-.14-3.43-.07-6.87.19-10.3.07-.87.76-5.88.21-2.65.27-1.58.53-3.16.85-4.73.75-3.67,1.72-7.29,2.87-10.86.5-1.53,1.03-3.05,1.59-4.56.22-.6,1.17-2.84,1.11-2.74,1.44-3.16,3-6.26,4.7-9.29,1.6-2.83,3.31-5.6,5.12-8.29,1.06-1.58,2.17-3.12,3.29-4.65.09-.12.15-.21.22-.3.54-.68,1.09-1.36,1.64-2.03,4.54-5.48,9.54-10.57,14.88-15.28,1.49-1.31,3-2.59,4.54-3.85.55-.45,1.1-.89,1.65-1.32.08-.06.17-.12.27-.2,2.95-2.2,5.97-4.31,9.05-6.32,6.42-4.19,13.1-7.98,19.95-11.42,3.06-1.54,6.14-3,9.26-4.41.47-.21,3.29-1.44,3.65-1.61,1.63-.68,3.27-1.34,4.91-1.98,13.94-5.47,28.28-9.97,42.78-13.68,7.59-1.94,15.24-3.65,22.93-5.13,3.42-.66,6.85-1.27,10.28-1.84,2-.33,4.01-.65,6.02-.95.63-.09,3.8-.53,3.95-.56,29.99-3.85,60.42-4.28,90.51-1.37,3.76.36,7.51.79,11.25,1.25.02,0,.7.09,1.2.15.5.07,1.17.16,1.19.16,2.01.29,4.02.59,6.03.91,7.45,1.18,14.87,2.56,22.25,4.15,15.03,3.24,29.88,7.35,44.43,12.31,3.93,1.34,7.53,2.61,10.94,3.88,2.35,1.7,5.16,2.83,8.29,3.21,6.53,2.64,12.77,5.44,19.92,8.9,13.31,6.43,26.24,13.69,38.44,22.04,2.98,2.04,5.92,4.15,8.81,6.33.01.01.53.41.91.71.38.3.89.72.91.73,1.51,1.23,3.01,2.45,4.49,3.71,5.49,4.66,10.74,9.6,15.67,14.85,2.47,2.62,4.87,5.32,7.17,8.09.86,1.04,1.72,2.09,2.55,3.15.08.11.21.29.4.56.81,1.11,1.62,2.22,2.41,3.35,4.1,5.87,7.79,12.03,11.03,18.42.75,1.47,1.47,2.96,2.16,4.46.25.53,1.25,2.85,1.24,2.78,1.33,3.3,2.54,6.65,3.61,10.05,1.07,3.39,2,6.82,2.8,10.29.36,1.6.7,3.2,1,4.81.13.7.64,3.74.66,3.69.91,6.94,1.03,14.05.56,21.02-.11,1.61-.29,3.21-.43,4.81-.11.65-.21,1.3-.32,1.94-.58,3.29-1.34,6.55-2.27,9.76-.8,2.76-1.72,5.48-2.75,8.16-.09.24-.44,1.05-.66,1.56-.07.16-.13.29-.16.33-.73,1.51-1.45,3.02-2.24,4.51-1.45,2.76-3.03,5.45-4.73,8.06-.78,1.2-1.59,2.39-2.43,3.56-.36.51-.74,1-1.1,1.5-.05.05-.1.1-.16.17-4.14,4.51-8.19,8.75-12.76,12.8-.28.23-1.32,1.08-1.92,1.51-1.15.81-2.33,1.6-3.52,2.36-2.78,1.76-5.66,3.37-8.63,4.78-1.21.58-3.89,1.48-1.11.53-1.34.45-2.64.99-3.99,1.44-2.01.67-4.05,1.22-6.1,1.71-8-1.62-19.25,2.66-20.56,11.95ZM645.96,241.52c-.1,2.87-.32,5.73-.65,8.58.04-.59-.49,2.86-.66,3.76-.32,1.62-.67,3.22-1.06,4.82-.83,3.41-1.84,6.78-3.02,10.09-.24.66-.48,1.31-.73,1.97-.07.17-.39.96-.59,1.46-.06.12-.1.22-.12.27-.4.84-.79,1.68-1.2,2.51-1.54,3.1-3.25,6.11-5.14,9.01-.83,1.27-1.73,2.48-2.58,3.73-.6.72-1.19,1.45-1.81,2.16-2.12,2.41-4.38,4.7-6.77,6.83-.81.72-4.26,3.29-2.44,2.04-1.36.95-2.72,1.89-4.12,2.78-1.2.76-2.29,1.69-3.28,2.72-8.29,3.17-13.26,11.68-10.93,20.56,4.02,15.35,7.45,30.85,10.21,46.48.72,4.06,1.39,8.13,2.02,12.21.34,2.2.65,4.39.98,6.59l.27,1.89c-.17-1.38-.12-.99.15,1.14,1.02,7.87,1.87,15.76,2.56,23.66,2.63,30.06,2.87,60.29.8,90.38-23.19,19.98-45.99,36.79-73.08,53.61-17.17,10.66-34.88,20.43-53.03,29.31,2.61-10.75,3.6-21.84,3.39-33.05-.32-17.1-3.02-34.1-5.62-50.97-2.81-18.24-4.98-36.7-6.41-56.56-2.92-40.53-2.44-81.29,1.46-121.74.22-2.24.44-4.48.68-6.71.51.06,1.03.11,1.59.09,27.05-.56,54.09-1.12,81.14-1.68,12.21-.25,12.25-19.25,0-19-19.28.4-38.56.8-57.84,1.2,16.79-9.91,30.8-24.74,40.19-41.67,15.82-28.53,18.27-62.2,9.87-93.47-8.93-33.21-28.06-60.28-52.48-82.25.28.11.55.23.77.31.43.18.97.41,1,.42.76.33,1.51.66,2.27.99,1.76.78,3.52,1.57,5.27,2.38,3.25,1.5,6.47,3.06,9.66,4.68,13.01,6.58,25.57,14.06,37.53,22.4,2.71,1.89,5.38,3.82,8.03,5.79.78.58,1.55,1.16,2.32,1.75.04.04.08.07.14.11,1.51,1.19,3.02,2.39,4.51,3.61,5.52,4.51,10.88,9.2,16.05,14.1,5.15,4.87,10.1,9.95,14.81,15.25,2.35,2.65,4.65,5.36,6.87,8.12.39.49.78.98,1.17,1.47.05.07.11.15.18.24,1.3,1.74,2.58,3.5,3.83,5.28,4.03,5.76,7.73,11.75,11.01,17.96,1.51,2.86,2.89,5.77,4.24,8.7.1.21.16.35.22.47.29.72.58,1.43.86,2.16.68,1.75,1.32,3.52,1.92,5.3,2.21,6.52,3.61,13.11,4.97,19.84,0,.01,0,.02,0,.03.07.58.14,1.15.19,1.73.14,1.4.24,2.81.33,4.22.19,3.3.22,6.6.11,9.9Z"/>
    </g>
    <g>
      <path class="cls-7" d="M540.78,187.58c-8.48-81.06-92.69-120.67-161.81-141.49-39.34-11.85-80.55-18.27-121.62-19.25-40.32-.95-82.16,2.84-121,14.07-37.71,10.9-73.69,31.8-94.38,66.17-18.95,31.48-21.33,74.23.85,104.92,5.89,8.16,12.48,14.67,20.68,20.51.36.26.74.47,1.12.69-8.33,50.26-17.29,100.53-23.21,151.13-5.44,46.51-8.71,95.04,2.71,140.96,5.05,20.31,13.44,40.29,26.13,57.03,14.05,18.52,32.25,32.74,53.62,41.95,22.24,9.59,45.55,14.24,69.51,17.1,25.1,3,50.49,4.17,75.76,4.16,59.67-.02,119.46-7.58,177.31-22.18,2.38-.6,4.56-1.83,6.41-3.44.24,0,.47.02.72,0,8.69-.39,17.65-7.5,17-17-3.05-44.53-6.1-89.07-9.15-133.6-1.51-22.1-3.03-44.2-4.54-66.31-1.19-17.33-2.44-34.68-1.63-52.06.19-4.18.5-8.36.96-12.52.08-.7.16-1.4.25-2.09.03-.18.07-.38.11-.63.37-2.14.72-4.27,1.16-6.4.76-3.72,1.69-7.41,2.8-11.04.55-1.79,1.15-3.56,1.8-5.32.3-.82.63-1.62.94-2.44.08-.15.17-.32.29-.57,1.65-3.31,3.33-6.57,5.35-9.68.4-.61,2.16-3.04,2.18-3.16,1.21-1.49,2.48-2.94,3.81-4.32,1.32-1.37,2.7-2.69,4.13-3.95.66-.58,1.34-1.14,2.02-1.7.35-.27.95-.73,1.1-.83,4.13-2.89,8.37-5.6,12.61-8.32,15.74-10.08,29.76-21.97,37.59-39.36,7.18-15.95,10.25-33.59,8.43-51.04ZM506.9,205.68s0,.08-.01.13c-.06.51-.15,1.24-.19,1.49-.3,1.8-.67,3.59-1.09,5.37-.79,3.29-1.8,6.52-3.02,9.68-.05.01-.92,1.93-1.34,2.75-.83,1.6-1.72,3.16-2.67,4.69-.53.85-1.09,1.66-1.66,2.48.12-.15-.4.66-.76,1.11-.08.11-.15.22-.23.34.07-.11.14-.2.2-.3-.02.02-.04.05-.06.07-.9,1.03-1.79,2.06-2.74,3.06-1.15,1.2-2.35,2.35-3.59,3.45-.83.74-1.68,1.46-2.55,2.17-.03.03-.05.04-.08.06-.11.08-.26.18-.47.33-3.88,2.76-7.88,5.32-11.89,7.88-15.45,9.87-29.06,21.14-38.05,37.42-8.43,15.26-12.27,31.96-14.33,49.12-1.89,15.72-1.61,31.64-.73,47.42,1.12,20.07,2.7,40.13,4.07,60.19,2.89,42.22,5.79,84.45,8.68,126.67.45,6.57.9,13.15,1.35,19.72-49.01,12.26-95.12,18.71-145.52,20.24-25.25.77-50.54.17-75.72-1.8-5.44-.42-10.88-.9-16.31-1.49-2.42-.26-4.82-.58-7.24-.85-.17-.02-.31-.03-.42-.04-.2-.03-.43-.06-.69-.1-1.61-.23-3.22-.47-4.82-.72-10.65-1.68-21.23-3.92-31.55-7.05-4.59-1.4-9.09-3.02-13.57-4.74-.27-.1-.5-.19-.7-.27-.1-.05-.21-.11-.36-.18-1.19-.57-2.41-1.08-3.6-1.65-2.61-1.25-5.19-2.58-7.72-4-4.26-2.4-8.37-5.05-12.31-7.94-.26-.19-.51-.39-.62-.48-1.23-1.03-2.46-2.04-3.65-3.11-1.85-1.64-3.63-3.35-5.36-5.11-1.71-1.75-3.36-3.55-4.95-5.41-.63-.74-1.24-1.5-1.87-2.24-.18-.21-.33-.39-.46-.54-.12-.17-.26-.38-.44-.64-2.77-3.99-5.46-7.99-7.84-12.23-1.9-3.39-3.61-6.88-5.23-10.41-.08-.22-1.04-2.39-1.16-2.71-.36-.91-.71-1.83-1.05-2.75-.95-2.54-1.82-5.11-2.64-7.7-2.94-9.31-5.09-18.86-6.63-28.49-.2-1.25-.37-2.5-.57-3.75,0-.06-.02-.11-.03-.16-.02-.18-.04-.37-.07-.59-.29-2.52-.58-5.04-.81-7.57-.47-5.05-.8-10.12-1.01-15.19-.95-23.11.48-46.31,2.69-69.31,2.77-28.87,6.83-54.98,11.58-84.3,4.7-29.03,9.48-58.05,14.22-87.08,1.43-8.74-2.27-18.72-11.87-20.91-.28-.06-.57-.1-.86-.15-1.41-2.4-3.42-4.56-5.93-6.35-.22-.16-.39-.28-.55-.39-.54-.45-1.08-.9-1.61-1.37-1.41-1.26-2.76-2.59-4.05-3.97-.42-.45-1.73-2-2.29-2.63-.31-.42-.68-.93-.8-1.1-.67-.97-1.32-1.96-1.94-2.97-.99-1.62-1.92-3.27-2.77-4.96-.53-1.05-2.28-5.83-1.19-2.46-1.18-3.67-2.49-7.21-3.33-10.99-.32-1.45-.59-2.91-.84-4.38.1.34-.29-3.12-.34-3.96-.22-3.87-.05-7.69.19-11.54.01-.22.03-.41.04-.57.11-.68.21-1.36.34-2.04.37-1.95.81-3.88,1.32-5.8.52-1.98,1.12-3.93,1.78-5.87.25-.72.51-1.44.78-2.16.24-.63.58-1.46.71-1.78,1.56-3.41,3.3-6.74,5.23-9.96,1.05-1.75,2.17-3.47,3.32-5.16.53-.77,2.94-3.92,2.42-3.33,5.11-6.18,10.69-11.88,16.88-16.98.56-.46,1.13-.92,1.7-1.37.33-.24.8-.59.98-.72,1.69-1.18,3.36-2.39,5.08-3.52,3.8-2.5,7.74-4.81,11.76-6.94,2.07-1.1,4.17-2.15,6.29-3.16,1.06-.5,2.13-.99,3.19-1.48.5-.23.87-.4,1.15-.53,4.48-1.89,9.07-3.52,13.69-5.04,8.97-2.94,18.13-5.29,27.36-7.23,4.33-.91,8.68-1.73,13.04-2.48,2.34-.4,4.69-.78,7.04-1.15,1.18-.18,2.36-.36,3.54-.53.35-.05,3.84-.53,3.37-.47,2.21-.28,8.24-.98,11.63-1.31,5.04-.5,10.09-.91,15.15-1.24,9.52-.61,19.06-.91,28.59-.9,39.15.05,72.58,4.5,110.38,14.71,9.21,2.49,18.33,5.28,27.36,8.36,8.34,2.85,18.69,6.78,25.54,9.64,14.09,5.88,30.97,14.28,44.92,23.39,3.56,2.32,7.03,4.76,10.44,7.29.08.06.14.1.2.15.66.52,1.32,1.05,1.98,1.58,1.83,1.5,3.64,3.03,5.4,4.61,3.13,2.79,6.14,5.71,9.02,8.77,1.25,1.33,2.48,2.69,3.68,4.07.68.79,1.35,1.6,2.02,2.4.28.32.48.56.65.77.03.04.05.07.08.11,4.67,6.2,8.74,12.86,11.94,19.94,0,.07.83,2.16,1.13,2.98.63,1.77,1.21,3.55,1.73,5.35,1.12,3.84,1.95,7.73,2.65,11.67,0,.05.02.14.04.26.06.53.14,1.25.16,1.5.18,1.86.31,3.72.37,5.59.15,3.95-.04,7.87-.32,11.81Z"/>
      <path class="cls-7" d="M496.92,232.27c-.06.07-.29.4-.79,1.14,0-.01.02-.02.03-.03.25-.37.51-.74.76-1.11Z"/>
    </g>
    <path class="cls-7" d="M151.96,554.01c-3.51-5.98-13.66-8.69-17.74-1.74-.47.8-.8,1.67-1.01,2.56-.84.75-1.45,1.73-1.67,2.93-.79,4.27.78,8.36,4.62,10.59,2.73,1.59,6.16,1.77,8.95.44,3.04-.23,5.84-1.83,7.33-4.59,1.73-3.21,1.34-7.12-.47-10.2Z"/>
    <path class="cls-7" d="M115.88,482.72c-.03-1.82-.68-3.46-1.78-4.89-1.14-1.47-2.55-2.36-4.28-3-.93-.34-2.02-.48-3-.41-2.18.17-3.97.9-5.58,2.4-1.32,1.22-1.9,2.97-1.87,4.71-.52,2-.33,4.19.76,6.15.48.86,1.25,1.62,2.12,2.18,1.86,1.75,4.68,2.35,7.25,1.61,2.24-.65,4.06-2.27,5.14-4.29.82-1.35,1.27-2.92,1.25-4.46Z"/>
    <path class="cls-7" d="M187.1,466.9c-.26-.81-.71-1.5-1.34-2.09-.59-.63-1.29-1.08-2.09-1.34-.77-.41-1.61-.59-2.5-.56-1.68.08-3.42.63-4.6,1.9-1.17,1.27-1.9,2.84-1.9,4.6v1.89c-.03.89.15,1.73.56,2.5.26.81.71,1.5,1.34,2.09.59.63,1.29,1.08,2.09,1.34.77.41,1.61.59,2.5.56,1.68-.08,3.42-.63,4.6-1.9,1.17-1.27,1.9-2.84,1.9-4.6v-1.89c.03-.89-.15-1.73-.56-2.5Z"/>
    <path class="cls-7" d="M129.41,156.32c-.05-.09-.11-.17-.16-.26-5.2-10.48-22.11-11.9-29.16-1.06-4.14,6.38-2.77,15.19,2.23,20.68,5.2,5.71,13.63,6.84,20.29,3.01,7.82-4.5,11.23-14.28,6.81-22.37Z"/>
    <path class="cls-7" d="M392.68,114.96c-.29-1.05-.81-2.04-1.49-2.9-.38-1.7-1.2-3.28-2.58-4.38-1.87-1.49-3.89-2.34-6.32-1.67-1.98.55-4.21,2.38-4.54,4.54-.18,1.16-.35,2.32-.53,3.48-.04.23-.07.46-.11.69-.44,1.06-.6,2.23-.35,3.42.02,1.04.22,2.06.79,3.07,1.88,3.31,6.02,4.73,9.59,3.68,4.22-1.24,6.73-5.68,5.54-9.93Z"/>
    <path class="cls-7" d="M426.22,238.93c.34-1.09.37-2.27-.02-3.44l-1.05-3.14c-1.08-3.22-4.53-5.66-8-4.54-3.65,1.18-5.13,4.39-4.54,8,.39,2.38.77,4.75,1.16,7.13.55,3.37,4.91,5.54,8,4.54,3.65-1.18,5.13-4.39,4.54-8l-.09-.54Z"/>
    <path class="cls-7" d="M158.69,282.11c-2.14.66-3.63,2.18-4.3,4.06-.02.03-.05.05-.07.09-1.27,1.64-1.69,3.64-1.16,5.67.25.95.67,1.78,1.19,2.51-.08,1.27.19,2.55.87,3.59,2.01,3.12,5.63,3.96,8.89,2.33,2.56-1.28,4.02-3.95,4.28-6.73,3.03-6.04-2.98-13.58-9.68-11.52Z"/>
    <circle class="cls-10" cx="161.2" cy="349.89" r="83.5"/>
    <circle class="cls-8" cx="142.7" cy="337.39" r="44.5"/>
    <circle class="cls-8" cx="179.7" cy="397.39" r="8.5"/>
    <circle class="cls-10" cx="325.2" cy="360.89" r="83.5"/>
    <circle class="cls-8" cx="306.7" cy="348.39" r="44.5"/>
    <circle class="cls-8" cx="343.7" cy="408.39" r="8.5"/>
    <path class="cls-3" d="M330.99,462.46c-4.1-4.46-11.08-6.17-16.92-4.41-2.05.29-4.11.95-6.08,2.02-2.55,1.39-5.14,2.71-7.77,3.93-.56.26-1.46.66-1.82.82-1.2.48-2.4.96-3.61,1.41-5.19,1.92-10.51,3.49-15.91,4.74-2.83.65-5.68,1.16-8.54,1.68-.4.07-.68.13-.88.17-.03,0-.05,0-.09,0-1.31.15-2.62.31-3.94.43-5.79.54-11.6.71-17.41.53-2.64-.08-5.28-.24-7.91-.48-1.28-.11-2.55-.26-3.82-.41-.41-.06-1.24-.18-1.87-.28-5.47-.9-10.88-2.13-16.2-3.69-2.78-.82-5.54-1.72-8.26-2.72-1.24-.45-2.47-.93-3.69-1.41-.29-.12-.54-.21-.74-.29-.24-.12-.57-.28-1.01-.49-5.26-2.5-10.35-5.21-15.28-8.32-7.54-4.75-19.07-1.84-23.26,6.1-2.67,5.05-2.81,10.62-.75,15.36.31,1.44.77,2.83,1.35,4.17,6.14,28.78,28.49,52.59,55.75,63.01,29.82,11.41,63.36,2.58,86.42-18.69,12.91-11.91,22.36-27.83,25.85-45.09.18-.89.24-1.78.21-2.65.34-1.26.56-2.58.59-4,.1-4.2-1.58-8.39-4.41-11.46ZM215.64,519.82c17.47-11.46,40.94-9.02,56.08,5.89.23.22.46.43.69.62-1.26.47-2.53.91-3.82,1.3-18.37,5.62-37.36,2.12-52.95-7.82Z"/>
    <path class="cls-4" d="M272.17,523.36c-11.52-10.96-27.35-14.91-42.03-11.23-2.8.51-5.45,1.41-7.94,2.66-1.96.46-3.8,1.37-5.26,2.75-1.3.48-2.25,1.5-2.71,2.82-.11.33-.17.68-.19,1.03-.45,1.15-.22,2.47,1.14,3.2.35.34.76.61,1.26.75.2.06.42.08.65.09,17.05,7.33,35.95,8.5,53.75,2.94,2.09-.65,3.01-3.41,1.32-5.01Z"/>
  </g>
</svg>