<?xml version="1.0" encoding="UTF-8"?>
<svg id="Layer_2" data-name="Layer 2" xmlns="http://www.w3.org/2000/svg" viewBox="0 0 634.99 742.86">
  <defs>
    <style>
      .cls-1 {
        fill: #c6fa72;
      }

      .cls-1, .cls-2, .cls-3, .cls-4, .cls-5 {
        stroke-width: 0px;
      }

      .cls-2 {
        fill: #358d29;
      }

      .cls-6 {
        stroke: #000;
      }

      .cls-6, .cls-3 {
        fill: #000;
      }

      .cls-6, .cls-7 {
        stroke-miterlimit: 10;
      }

      .cls-4 {
        fill: #8bc231;
      }

      .cls-5 {
        fill: #144d22;
      }

      .cls-7 {
        fill: #fff;
        stroke: #fff;
      }
    </style>
  </defs>
  <g id="Layer_3" data-name="Layer 3">
    <path class="cls-4" d="M456.27,532.57c.7-14.96-.67-30.02-6.76-43.78,1.8-2.74,2.93-5.69,2.93-9.26,0-4.17-1.85-9.15-4.98-12.02-4.95-4.54-13.31-6.46-19.59-3.45-12.35-7.62-27.48-11.09-42.39-12.65l-.95-3.65c-.75-2.86-4.95-3.49-6.4-.84-.66,1.21-1.32,2.42-1.98,3.63-.02.03-.03.07-.04.1-1.09-.06-2.17-.12-3.24-.17-19.43-.85-38.92-1.71-58.41-2.36-6.01-1.83-12.36-2.62-18.82-2.81-.04-.57-.07-1.13-.11-1.7-.09-1.42-.81-2.63-2.15-3.2-1.18-.5-2.95-.35-3.82.72-.68.84-1.36,1.68-2.03,2.52-.41.51-.71,1.11-.87,1.74-6.15.26-12.3.89-18.25,1.52-.71.08-1.43.15-2.14.22-8.37.11-16.99.78-25.27,2.6-4.12.49-8.23,1.05-12.31,1.73-12.24,2.05-24.02,7.73-30.92,18.42-4.64,7.19-6.11,15.77-5.12,24.12-.86,4.01-1.17,8.17-.8,12.44.22,2.52.91,5,2,7.28-.06.73-.07,1.47,0,2.23,2.24,27.17,4.48,54.35,6.71,81.52,1.11,13.42,2.21,26.85,3.32,40.27.95,11.52,1.81,23.2,4.56,34.46.32,1.32.68,2.62,1.07,3.92-.74.85-1.39,1.79-1.93,2.85-.72,1.39-1.45,2.79-2.17,4.18-3.38,6.49-3.05,15.36,2.66,20.6,5.95,5.46,13.08,5.79,20.22,2.81,7.33,6.42,16.41,10.9,27.15,12.62,13.28,2.12,26.81,1.71,40.21,1.34,12.82-.36,25.64-1.14,38.41-2.33,23.98-2.23,47.84-5.82,71.42-10.75,10.1,3.4,20.77,5.13,31.39,5.11,8.89-.02,17.41-7.8,17-17-.3-6.75-4.2-12.76-10.02-15.47,2.8-32.66,5.6-65.33,8.4-97.99,1.41-16.48,3.29-32.99,4.06-49.52ZM391.93,646.1c-.15-.34-.31-.68-.48-1,.17-.07.33-.14.5-.21,0,.4-.01.81-.02,1.21Z"/>
    <path class="cls-2" d="M251.36,443.27c-6.7-1.53-13.47.7-17.62,5.65-5.28-3.59-12.28-4.5-18.07-.82-12.54,7.96-17.43,20.14-20.01,33.34-1.42.12-2.76.89-3.51,2.11-.66,1.06-.9,2.47-.55,3.68.22.75.57,1.35,1.08,1.94.23.26.52.47.8.69.25.2.49.37.75.52-.4,2.95-.74,5.92-1.09,8.87-2.52,21.35-5.04,42.7-7.57,64.05-1.05,8.86,8.57,17.38,17,17,.7-.03,1.37-.1,2.03-.19-5.05,38.99-7.4,78.33-6.99,117.62.09,8.89,7.75,17.41,17,17,9.13-.41,17.1-7.47,17-17-.84-80.35,9.45-156.3,31.62-233.54,2.45-8.54-2.99-18.89-11.87-20.91Z"/>
    <path class="cls-2" d="M615.2,356.15c-2.11-7.54-5.93-14.08-11.44-19.64-.75-.75-1.51-1.51-2.26-2.26-4.03-4.34-8.8-7.41-14.32-9.2-.56-.29-1.12-.56-1.68-.82l-.12-.86c5.96-5.71,10.41-13.06,12.54-20.77,3.97-14.42.33-33.17-11.44-43.3-9.89-8.51-20.5-15.86-31.43-22.75.04-.15.1-.29.14-.44.16-1.18.33-2.35.49-3.53,1.82-1.12,3.54-2.41,5.16-3.89,4.84-3.14,8.66-7.3,11.46-12.49,3.25-5.11,5.01-10.62,5.28-16.55,1.32-5.91,1.06-11.83-.79-17.74-1.5-3.54-2.99-7.09-4.49-10.63-3.96-6.69-9.28-12.01-15.96-15.96-3.54-1.5-7.09-2.99-10.63-4.49-5.34-1.43-10.68-1.87-16.02-1.37.62-2.6,1.25-5.19,1.82-7.78,1.99-8.95,3.88-17.92,6.62-26.68,6.94-22.22-8.2-49.53-31.08-54.74-13.71-3.12-27.07-.36-37.43,6.95-.85-2.72-1.71-5.44-2.56-8.15-5.67-18.05-23.03-33.56-42.91-32.67-7.9.35-15.47,2.38-22.46,6.08-8.45,4.47-13.79,11.94-17.7,20.18.42-1.01.85-2.01,1.27-3.02-.76,1.79-1.62,3.5-2.58,5.16-.13.13-.25.27-.38.4-.51.31-1.03.62-1.55.92-.65.19-1.29.38-1.94.55-.19,0-.37.01-.56.01-4.78-2.71-9.28-5.91-13.86-8.97-8.5-5.67-17.83-10.57-27.71-13.32-17.2-4.8-33.65-2.19-49.57,5.09-5.62,2.57-10.6,6.25-15.41,10.15-.09-.03-.19-.06-.28-.09-7.13-2.22-13.7-3.14-21.32-3.99-16.91-1.9-35,4.11-47.33,15.89-5.77,5.51-10.23,12.26-13.22,19.62-2.8-2.94-5.97-5.51-9.42-7.53-9.54-5.58-23.6-7.95-34.29-4.49-22.71,7.35-38,30.78-31.08,54.74.09.32.17.64.26.97,0,.08,0,.16,0,.24-.02.06-.03.12-.05.18-.11.03-.21.06-.32.09-1.56,0-3.13-.06-4.72-.21-13.61-1.29-27.06,7.32-34.95,17.54-8.69,11.25-11.56,24.88-7.97,38.79l2.52,9.74c-2.67.26-5.32.73-7.95,1.47-12.19,3.41-21.75,12.32-25.71,24.36-6.89,20.9,4.91,39.38,18.96,53.76.35,1.07.72,2.13,1.1,3.18-.92.34-1.84.76-2.72,1.3-.5.3-.99.62-1.47.95-3.3-.29-6.73.38-9.96,2.13-10.52,5.72-16.78,17.74-15.18,29.59,1.29,9.59,7.01,17.62,15.19,22.16,7.57,9.93,19.98,16.27,32.6,15.17,2.62-.23,5.18-.98,7.49-2.15,1.55,3.01,3.46,5.94,5.64,8.61-2.98,1.82-5.76,3.98-8.32,6.53-2.59,2.31-5.18,4.62-7.77,6.93-4.34,4.03-7.41,8.8-9.2,14.32-2.79,5.3-4.06,11.02-3.83,17.14-.23,6.13,1.05,11.84,3.83,17.14,1.79,5.52,4.86,10.29,9.2,14.32l9.01,6.96c6.94,4.03,14.43,6.05,22.46,6.08,3.94-.53,7.89-1.06,11.83-1.59,3.21-.9,6.22-2.13,9.07-3.64,2.1,3.72,4.61,7.09,7.26,9.74,7.72,7.72,20.38,13.53,31.47,13.03,11.51-.52,23.45-4.3,31.47-13.03,7.52-8.19,11.33-17.22,12.68-27.97.13.02.26.03.39.05.85,0,1.69-.04,2.53-.09,5.49,5.42,12.45,9.79,19.43,11.38,23.85,5.43,47.72-7.17,54.74-31.08.47-1.6.86-3.21,1.18-4.81.41.75.83,1.51,1.27,2.25,1.85,3.12,4.15,6.04,6.78,8.67.26,2.01.68,3.96,1.27,5.81,3.48,10.77,10.16,21.16,20.45,26.59.39.21.79.4,1.19.6,6.11,4.42,12.88,7.21,20.68,8.26,9.49,1.27,20.09.06,28.37-5.28,5.34-3.44,10.63-8.03,14.56-13.44.96.34,1.93.65,2.93.93,11.15,4.3,22.29,8.61,33.44,12.91,10.14,3.92,25.27.79,34.29-4.49,5.7-3.33,11.23-8.65,15.2-14.72.18,1.35.36,2.71.55,4.06,2.11,7.54,5.93,14.08,11.44,19.64,6.34,6.07,13.69,10.75,22.25,13.05,8.51,2.28,13.04,2.13,20.83,1.08,7.68-1.03,11.99-1.85,19.49-6.24,8.19-4.79,12.99-10.31,18.16-18.1,3.25-5.11,5.01-10.62,5.28-16.55.47-2.1.72-4.19.78-6.29,2.63.52,5.34.75,8.13.64,6.13.23,11.84-1.05,17.14-3.83,5.52-1.79,10.29-4.86,14.32-9.2,2.32-3,4.64-6,6.96-9.01,4.03-6.94,6.05-14.43,6.08-22.46l-1.59-11.83ZM236.11,227.2c-6.53,4.58-13.4,8.59-20.6,12.01-4.88,1.8-9.85,3.32-14.89,4.56.31-.27.62-.54.93-.8,7.18-5.18,14.63-9.99,21.99-14.9,8.26-5.52,16.48-11.1,25.35-15.55.96-.33,1.93-.65,2.9-.95-4.8,5.63-10.04,10.84-15.68,15.62Z"/>
    <path class="cls-5" d="M366.73,413.6c-5.2-5.2-15.41-6-20.51,0-.42.54-.89,1.05-1.38,1.53-.14.09-.3.19-.49.31,0,0-.01,0-.02.01-.09,0-.49.12-1.22.37-.09.02-.16.03-.25.05-.56.03-1.11.04-1.67.02-.23-.01-.4-.02-.51-.02-.49-.11-.97-.23-1.45-.37-.2-.04-.36-.07-.5-.09.19,0,.12-.11-.86-.47-.48-.32-.8-.52-.97-.62-.35-.33-.7-.67-1.03-1.02.55.51-1.39-1.95-1.54-2.17-.53-1.1-.75-1.49-.68-1.21-.17-.46-.34-.91-.48-1.38-1.77-5.63-1.51-9.74.32-15.94,2.01-6.81,5.71-13,9.83-19.62,4.14-6.65,1.42-15.96-5.2-19.84-6.94-4.06-15.69-1.47-19.84,5.2-12.44,20-21.45,44.37-9.34,66.79,10.89,20.16,41.78,27.85,57.8,8.99,5.07-5.96,5.85-14.65,0-20.51Z"/>
    <path class="cls-5" d="M204.68,428.21c-3.76-3.76-8.44-4.75-12.91-3.76-1.25-.38-2.56-.63-3.91-.72-18.97-1.24-37.63-5.17-55.89-11.39-8.75-5.01-17.82-9.72-26.15-15.38-2.35-1.59-5.43-4.2-6.8-6.01-.64-.84-1.17-1.79-1.7-2.71,0-.09.02-.18.02-.27.75-17.9-3.19-35.12-10.62-51.34-1.14-2.49-3.15-4.31-5.54-5.48-3.41-4.75-7.26-9.22-11.05-13.72-2.92-3.46-5.79-7.08-8.12-12.14.26.47-.97-2.76-.97-2.75-.23-.79-.44-1.61-.6-2.42.1.19.05-1.28,0-2.2.16-.25.63-2.65.7-2.88,2.39-7.45-2.8-15.82-10.13-17.84-.08-.02-.16-.03-.24-.05,3.1-2.69,5.01-6.73,5.34-11.14,1.81-24.64,7.34-49.2,15.95-72.75.6-1.65.76-3.36.6-5.03,6.13-.26,12.19-4.37,13.6-10.59.6-2.64,1.3-5.24,2.19-7.8.33-.94.67-1.89,1.04-2.81.06-.04,1.24-2.54,1.24-2.54,1.11-2.19,2.34-4.33,3.67-6.39.7-1.09,1.44-2.15,2.2-3.2.24-.3.97-1.25,1.24-1.56,7.18-8.48,13.04-12.77,23.48-17.3,7.19-3.12,8.82-13.66,5.2-19.84-4.34-7.42-12.62-8.33-19.84-5.2-24.14,10.47-42.57,33.37-48.38,58.95-.38,1.66-.46,3.34-.31,4.98-6.37.04-11.65,4.49-13.89,10.64-9.46,25.9-14.97,52.97-16.99,80.46-.48,6.59,4.88,12.35,11.02,14.01-2.25,1.85-4.01,4.37-4.95,7.31-4.52,14.08.4,29.09,8.68,40.75,3.99,5.61,8.59,10.71,12.96,16.01,2.27,2.75,6.48,8.77,7.31,11.73,1.34,4.76,1.1,9.81.25,14.96-5.51,1.75-10.16,6.45-10.42,13.45-.51,13.78,3.49,26.84,10.84,38.13,1.6,2.86,3.59,5.54,5.99,7.97,5.08,5.15,13.56,5.48,19.17,1.16,7.33,3.66,15.35,6.12,23.72,7.15,2.12.26,4.15-.18,5.99-1.08.07.04.14.08.2.12.84.48,1.68.87,2.51,1.17.52.24,1.04.46,1.59.66,3.01,1.06,6.04,2.05,9.09,2.98-.35,5.39,2.09,11.04,7.05,13.58,22.08,11.28,47.42,8.09,66.55-7.36,6.1-4.92,5.12-15.38,0-20.51Z"/>
    <path class="cls-5" d="M505.29,48.35c-7.1-3.5-15.56-1.9-19.84,5.2-.79,1.31-1.57,2.62-2.36,3.92-.5.84-.9,1.71-1.21,2.61-7.32-1.11-14.75,2.81-16.8,10.3-1.99,7.24,2.44,16.17,10.13,17.84,2.85.62,5.65,1.36,8.41,2.33.04.01,2.72,1.1,2.59,1.01,1.1.51,2.18,1.04,3.25,1.61,5.72,3.03,7.96,4.63,11.87,8.22,1.97,1.81,3.83,3.72,5.58,5.73,0,.01,1.92,2.44,1.74,2.13.73,1.01,1.43,2.03,2.1,3.07,1.58,2.46,2.92,5.02,4.24,7.62.13.29.27.58.4.87.04.1.08.2.13.34.6,1.59,1.14,3.2,1.63,4.82,2.1,6.86,8.72,11.47,15.91,10.39,7.67-1.15,11.68-6.86,12.57-14.24,3.57-29.57-13.74-60.65-40.35-73.77Z"/>
    <path class="cls-5" d="M556.93,396.43c-7.73,0-14.67,6.64-14.5,14.5.03,1.3-.07,2.57-.31,3.82-.21.22-.42.45-.65.66-.14.09-.29.19-.47.31-.47.24-.79.41-.99.52-.65.21-1.31.4-1.98.56-.25.05-.45.09-.63.12-.85.05-1.71.07-2.56.05-.79-.06-1.23-.09-1.37-.08-.6-.12-1.2-.26-1.79-.42-3.48-.92-6.13-2.33-9.94-4.74-3.75-2.37-7.27-5.08-10.79-7.77-3.09-2.37-7.12-2.62-10.84-1.51-1.38-4.35-4.48-7.99-9.51-9.13-6.94-1.58-16.58,2.11-17.84,10.13-1.59,10.17.51,19.12,7.13,27.1,3.63,4.38,8.36,7.46,13.59,9.23,9.97,11.99,25.52,18.54,41.81,15.87,20.92-3.43,36.57-23.83,36.13-44.69-.17-7.83-6.55-14.5-14.5-14.5Z"/>
    <circle class="cls-6" cx="275.14" cy="542.05" r="39.5"/>
    <circle class="cls-7" cx="269.14" cy="534.05" r="18.5"/>
    <circle class="cls-7" cx="272.64" cy="565.55" r="6"/>
    <circle class="cls-7" cx="300.64" cy="545.55" r="5"/>
    <circle class="cls-6" cx="373.14" cy="542.05" r="39.5"/>
    <circle class="cls-7" cx="367.14" cy="534.05" r="18.5"/>
    <circle class="cls-7" cx="370.64" cy="565.55" r="6"/>
    <circle class="cls-7" cx="398.64" cy="545.55" r="5"/>
    <path class="cls-3" d="M339.39,592.49c-2.51-4.21-6.89-4.31-11.24-4.26-6.31.06-12.63.13-18.94.19-.95,0-1.79.2-2.5.53-.12-.01-.25-.02-.37-.02-1.42-.02-2.7.53-3.73,1.48-.99.93-1.5,2.4-1.47,3.73,0,.27.04.55.09.83-.03.24-.06.48-.06.73-.05,9.37,3.23,18.73,11.46,23.93,7.36,4.65,17.56,3.85,23.53-2.7,2.88-3.16,4.16-7.24,4.6-11.42.4-3.84.71-9.57-1.35-13.02Z"/>
    <path class="cls-1" d="M325.67,607.35c-2.16,0-4.32.01-6.48.02-2.33,0-4.57,1.07-4.46,2.34.11,1.26,1.96,2.35,4.46,2.34,2.16,0,4.32-.01,6.48-.02,2.33,0,4.57-1.07,4.46-2.34-.11-1.26-1.96-2.35-4.46-2.34Z"/>
  </g>
  <g id="Layer_1-2" data-name="Layer 1">
    <g>
      <path class="cls-3" d="M46.88,289.63s.07.08.11.13c.02,0,.03.01.05.02-.04-.04-.08-.09-.12-.13-.01,0-.02,0-.03-.01Z"/>
      <g>
        <path class="cls-3" d="M76.34,162.56s-.02-.03-.03-.05c0,0,0,0,0,0,0,.02.02.03.03.05Z"/>
        <path class="cls-3" d="M86.49,133.86c1.62-.48.87-.32,0,0h0Z"/>
        <path class="cls-3" d="M78.85,139.45c.7-.72.43-.48,0,0h0Z"/>
        <g>
          <path class="cls-3" d="M213.86,59.05c.26-.29.4-.46.46-.53-.13.15-.27.31-.41.46-.02.02-.04.05-.06.07Z"/>
          <g>
            <g>
              <path class="cls-3" d="M359.58,422.96s-.05.08-.08.12c0,0,0,0,0,0,.02-.04.05-.08.07-.11Z"/>
              <path class="cls-3" d="M362.71,417.58c-.07.12-.12.23-.18.34.06-.1.11-.21.17-.31,0,0,0-.02,0-.03Z"/>
              <path class="cls-3" d="M324.95,428.43s-.01-.01-.02-.02c0,0,.01.01.02.02,0,0,0,0,0,0Z"/>
              <path class="cls-3" d="M330.55,431.75c-1.42-.84-.81-.43,0,0h0Z"/>
              <g>
                <path class="cls-3" d="M488.76,411.74s0,.02,0,.03c.03-.1.05-.2.07-.29-.02.09-.04.18-.07.26Z"/>
                <path class="cls-3" d="M634.93,377.79c-.87-16.67-8.85-30.98-18.99-43.78-2.35-2.96-4.81-5.83-7.29-8.67,11.49-9.21,17.96-22.59,18.24-37.61.49-26.24-15.86-45.69-35.6-60.38,11.45-15.36,16.23-35.59,11.99-54.62-4.88-21.92-22.22-39.17-42.98-46.43,11.85-24.34,7.2-55.63-11.17-75.59-17.24-18.73-44.97-24.84-68.92-17.86C469.66,12.81,446.89-1.5,424.31.13c-17.48,1.26-32.95,10.09-43.29,23.13-10.01-11.09-23.82-18.61-39.9-20.46-21.55-2.47-42.06,7.97-55.04,24.44-15.36-12.43-35.16-18.25-55.55-15.1-19.54,3.01-36.16,15-46.73,31.14-4.81-2.57-10.03-4.45-15.62-5.46-14.77-2.69-30.64-1.06-43.48,7.29-17.96,11.68-27.57,32.32-26.88,52.88-1.82-.04-3.67.02-5.52.19-14.32,1.29-28.65,6.84-38.23,17.99-12.11,14.11-16.06,33.78-11.72,51.39-20.32,7.02-37.05,24.56-41.04,46.65-3.18,17.6.16,35.84,11.05,50.27.58.77,1.18,1.52,1.79,2.27C5.25,275.47.44,288.24.03,300.71c-.57,17.15,8.17,33.62,20.32,45.26,6.34,6.07,13.49,10.86,21.07,14.93-3.14,3.31-5.91,7.07-8.21,11.29-9.3,17.02-8.78,36.27-.5,53.54,15,31.29,51.83,41.05,82.64,30.87,8.36,18,25.38,32.02,45.25,34.51,14.17,74.43,21.13,149.35,20.98,226.35-.01,6.38,4.04,12.55,9.71,15.39.56-.03,1.11-.04,1.64-.04,2.66,0,5.39.5,8.07,1.37.37-.07.74-.12,1.11-.21,1.01.25,2.04.44,3.12.57,82.06,9.91,165.06,10.96,247.35,3.12,8.29-.79,16.39-6.46,16.98-15.26.9-2.04,1.43-4.3,1.51-6.73l6.45-199.7c.52-16.16,1.04-32.32,1.57-48.48,19.37,13.84,45.96,18.18,68.19,9.48,23.21-9.09,40.62-29.88,45.62-53.97,7.81.17,15.73-2.19,22.27-6.55,12.92-8.62,20.61-23.04,19.79-38.68ZM438.87,659.05c-.5,15.32-.99,30.64-1.49,45.96-73.88,6.05-148.24,4.94-221.91-3.29-.81-72.9-8.16-145.7-21.68-217.34,12.58-6.92,22.74-18.31,27.77-31.67,14.08,7.63,31.37,9.83,46.44,5.01,9.53-3.05,17.75-8.26,24.37-14.97,10.11,13.91,25.93,23.42,44.09,24.8,16.7,1.28,33.44-6.25,45.22-18.37,12.57,15.1,32.57,24.44,52.28,22.14,3.81-.44,7.5-1.22,11.05-2.28-2.05,63.33-4.09,126.67-6.14,190ZM600.97,381.35c-.16.71-.34,1.4-.49,2.11-.01.05-.02.09-.03.13-.48.64-.89,1.45-1.29,2.19-.1.1-.2.2-.32.32-.56.53-1.13,1.06-1.69,1.59-.07.03-.13.07-.21.11-.05.02-.25.15-.51.32-.13-.03-1.69.74-2.12.91-.07.03-.11.05-.17.07-.16,0-.29.02-.39.02-.34-.2-.67-.41-.99-.64-1.09-.71-2.27-1.25-3.5-1.62-.34-.26-.68-.53-1.02-.79-2.37-1.38-4.91-2.13-7.62-2.29-.06-.29-.34-1.09-.63-1.97,0-.02,0-.04-.01-.06-.02-.46-.02-.92,0-1.38.17-.67.36-1.33.59-1.99,2.74-8.46-3.19-18.94-11.87-20.91-9.32-2.12-17.98,2.81-20.91,11.87-4.59,14.18-.14,29.1,9.22,39.7.02.63.08,1.25.19,1.86-.55,3.88-.4,7.85.52,11.78-.15.41-.31.8-.44,1.09-1.08,2.19-2.21,4.34-3.52,6.41-.65,1.03-1.37,2.01-2.05,3.02,1.99-2.97-.64.69-1,1.1-1.62,1.82-3.39,3.46-5.18,5.11-.25.23-.44.41-.59.56-.16.1-.34.22-.56.36-1.01.67-2.01,1.35-3.05,1.97-1.04.62-2.1,1.22-3.18,1.77-.73.37-4.64,1.59-1.25.62-2.29.65-4.49,1.5-6.83,2.02-.53.12-3.54.51-2.61.46-.68.06-1.36.12-2.04.16-2.63.13-5.22.01-7.84-.15-.13,0-.23-.01-.33-.02-.04,0-.06-.02-.1-.03-1.15-.28-2.34-.44-3.5-.72-2.57-.61-5-1.5-7.5-2.32-.02,0-.03,0-.04-.01-.13-.07-.29-.16-.48-.26-1.27-.67-2.53-1.29-3.77-2.01-1.03-.6-2.03-1.23-3.01-1.9-.48-.33-.94-.67-1.22-.89-.7-.61-1.38-1.23-2.05-1.86-.23-.69-.48-1.37-.78-2.05-.14-.32-.48-1.12-.6-1.41-.38-.93-.77-1.86-1.13-2.8-.98-2.5-1.88-5.03-2.65-7.6-.34-1.14-.65-2.28-.92-3.43-.04-.17-.3-1.34-.46-1.99-.05-.58-.23-1.99-.24-2.21-.07-1.32-.04-2.62,0-3.94-.02.07-.04.14-.06.21.02-.07.04-.16.06-.23,0-.03,0-.06,0-.09.05-1.76.29-1.2.07-.17.21-.74.37-1.52.54-2.26.09-.4.16-.68.21-.86.26-.53.53-1.05.82-1.55.2-.35.42-.7.64-1.04-.21.41.71-.64,1.2-1.21.77-.28,3.74-1.4.28-.23,8.4-2.85,14.82-11.82,11.87-20.91-2.7-8.35-11.9-14.93-20.91-11.87-14.55,4.94-25.32,17.51-27.82,32.8-.68,4.19-.85,8.26-.62,12.25-.7,1.17-1.31,2.44-1.79,3.81-.15.41-.26.71-.34.94-.25.52-.5,1.05-.78,1.57-.69,1.28-1.46,2.5-2.28,3.7.04-.17-1.83,2.17-2.26,2.62-.9.92-1.84,1.79-2.81,2.63.59-.6-2.75,1.89-3.31,2.22-.59.35-4.55,2.13-3.47,1.8-.98.35-1.97.68-2.97.96-.72.2-4.36.67-4,.75-1.46.05-2.92.06-4.4.06-.33,0-.59,0-.8.01-.15-.04-.32-.08-.53-.12-1.93-.43-3.79-1.01-5.7-1.5-.51-.19-.87-.32-1.1-.4-.54-.26-1.09-.51-1.62-.79-1.31-.69-2.52-1.53-3.81-2.25-.44-.32-.75-.53-.95-.67-.47-.4-.95-.79-1.4-1.22-1.15-1.07-2.23-2.21-3.26-3.4.28.17-1.96-3.03-2.25-3.53-.81-1.41-1.86-2.66-3.05-3.75-1.6-3.77-3.42-7.12-5.7-10.36-1.67-5.06-5.37-9.28-11.16-10.6-8.29-1.89-19.25,2.51-20.91,11.87-.41,2.29-.98,4.47-1.7,6.67.03-.06.07-.12.1-.18-.04.07-.07.14-.11.21,0,0,0,.01,0,.02-.5,1.52-.58,1.16-.16.29-.46.84-.87,1.71-1.35,2.53-.51.86-1.06,1.69-1.61,2.52.72-1.09.55-.68-.07.11-.06.1-.13.19-.19.28.07-.1.13-.19.18-.28-.16.2-.34.42-.54.65-1.39,1.57-2.9,3-4.45,4.4-.09.08-.15.14-.23.21-.06.03-.12.06-.2.1-1.01.55-1.94,1.28-2.94,1.86-1,.58-2.07,1.04-3.08,1.62-.01,0-.02.01-.03.02-.13.04-.24.07-.39.12-1.97.61-3.96,1.05-5.95,1.56-.11,0-.21,0-.35-.01-1.16-.03-2.31.07-3.47.02-.14,0-.59-.04-1.03-.08-.71-.14-1.76-.32-2-.38-1.12-.28-2.22-.61-3.32-.98-.27-.09-.63-.27-.96-.44.16.09.33.2.54.32-1.79-1.07-3.67-1.94-5.41-3.11-.27-.18-.52-.36-.73-.53.09.08.18.16.28.25-.1-.09-.19-.17-.29-.26-.78-.6-1.04-.92-.02-.02-.76-.68-1.53-1.36-2.26-2.08-.83-.82-1.6-1.68-2.39-2.53-.05-.06-.09-.1-.14-.15-1.19-1.85-2.29-3.7-3.4-5.61-.07-.12-.12-.21-.18-.3,0-.03-.01-.05-.02-.08-.3-1.11-.75-2.18-1.05-3.3-.24-.89-.42-1.8-.62-2.7,0,0,0,0,0,0,0-.23-.01-.55-.04-1-.05-.75-.15-1.5-.29-2.24-.05-1.42-.34-2.85-.93-4.27-1.69-4.06-3.06-8.25-3.82-12.59.26,1.21-.24-4.02-.24-4.63,0-.67.61-5.85.28-4.56.37-1.77.85-3.49,1.41-5.2-.54,1.76,1.29-2.61,1.7-3.29.37-.61.77-1.19,1.17-1.77.14-.17.31-.37.53-.63.43-.41,3.59-3.25,2.88-2.86,1.28-.86,2.62-1.6,3.97-2.35-3.32,1.83,1.77-.43,2.68-.73.14-.03.25-.05.38-.07.66-.03,1.33-.05,1.99-.03.28.02.5.04.69.05.49.11.97.23,1.45.36.47.13.93.27,1.4.43.2.1.45.23.79.4.69.38,1.35.79,2.01,1.22,0,0,0,0,0,0,.57.52,1.1,1.07,1.62,1.64.26.41.5.82.73,1.24.06.2.14.43.24.74,2.62,8.49,11.99,14.76,20.91,11.87,8.55-2.77,14.68-11.81,11.87-20.91-8.55-27.73-42.02-39.07-66.45-24.18-21.35,13.02-29.38,38.37-24.9,61.81-.32,1.21-.56,2.47-.69,3.78.42-4.3-.36,1.61-.59,2.49-.16.62-1.52,4.16-1.27,3.84-.64,1.3-1.32,2.58-2.08,3.82-.45.73-.93,1.44-1.42,2.15-.05.06-.08.1-.13.16-1.3,1.39-2.67,2.7-3.99,4.08-.39.33-.67.56-.84.72-.45.32-.9.64-1.37.94-1.2.77-2.45,1.45-3.72,2.1.29-.22-2.55.96-3.21,1.15-.63.18-3.34.66-3.39.75-1.35.1-2.7.16-4.05.13-.89-.02-1.77-.07-2.66-.14-1.83-.41-3.64-.79-5.43-1.37-.62-.2-1.23-.43-1.84-.65-.19-.09-.41-.19-.7-.33-1.64-.96-3.28-1.9-4.91-2.88-.12-.09-.22-.16-.33-.23-.6-.51-1.19-1.03-1.76-1.58-1.38-1.32-2.62-2.75-3.82-4.23-2.91-3.6-7.71-5.14-12.47-4.93-3.02-.49-6.1-.38-8.83.37-2.88.8-5.44,2.11-7.65,3.83-5.47,2.88-9.75,8.28-9.06,14.76.25,2.32.26,4.57.19,6.9,0,.13,0,.24,0,.35-.05.16-.1.35-.16.57-.23.89-.42,1.78-.67,2.67-.26.91-.57,1.8-.9,2.69-.1.18-.4.79-.8,1.53-.55,1.02-1.13,2.01-1.76,2.98-.14.22-.93,1.26-1.34,1.83-.46.52-1.01,1.13-1.14,1.27-.79.84-1.63,1.64-2.48,2.42-.43.38-.82.7-1.08.9-.7.47-1.4.94-2.12,1.38-.99.59-2,1.12-3.02,1.65-.12.06-.22.12-.32.17-.19.04-.42.1-.71.18-.89.24-1.75.53-2.65.75-1.28.31-4.55.18-.94.28-1.94-.05-3.84.05-5.78-.04-.3-.06-.76-.16-1.34-.3-1.12-.27-2.19-.67-3.3-.95-.17-.04-.3-.08-.43-.1-1-.55-2.05-1.01-3.05-1.58-.99-.57-1.93-1.31-2.93-1.85-.09-.05-.15-.08-.22-.11-.07-.06-.12-.11-.2-.18-1.73-1.56-3.35-3.16-4.9-4.9-.12-.13-.2-.22-.29-.32-.09-.18-.21-.38-.37-.66-.58-.99-1.22-1.95-1.77-2.96-.26-.48-.89-1.89-.93-1.9-.19-.54-.37-1.09-.53-1.64-.33-1.1-.55-2.22-.83-3.34,0-.02,0-.03-.01-.05,0-.17,0-.42-.03-.73,0-.14.01-.28,0-.43-.2-1.51-.4-3.01-.61-4.52-.81-2.88-2.27-5.38-4.37-7.5-.09-.11-.19-.21-.29-.3-.8-.77-2.74-2.27-3.69-2.84-.72-.43-1.51-.67-2.3-1.01-.56-.24-1.62-.77-2.42-1-.14-.04-.27-.06-.41-.09-1.51-.2-3.01-.4-4.52-.61-.1-.02-.21-.02-.32-.02-.14,0-.28,0-.42.02-1.28.06-3.6.35-4.84.65-.14.03-.27.07-.41.11-1.02.31-2.44.92-3.57,1.46-1.48.37-2.94.93-4.36,1.73-1.4.79-2.81,1.54-4.25,2.25-.32.15-.57.28-.77.39-.26.07-.61.17-1.12.33-2.73.86-5.44,1.61-8.24,2.16-.14-.01-2.29.28-2.95.32-1.33.07-2.67.09-4,.07-.32,0-2.07-.1-3.06-.14-.75-.13-2.44-.37-2.71-.43-1.56-.34-3.1-.75-4.61-1.24-.44-.14-4.62-2.11-1.87-.64-2.26-1.21-4.49-2.42-6.59-3.89-.09-.14-1.47-1.32-1.99-1.82-.88-.85-1.73-1.74-2.55-2.66-.27-.3-.53-.62-.79-.93-.05-.08-.11-.16-.18-.26-.7-1.28-1.61-2.46-2.33-3.74-.36-.64-.7-1.3-1.03-1.96.16.24-.83-2.08-1.01-2.69-.43-1.4-.75-2.8-1.07-4.23-.05-.21-.09-.38-.13-.53,0-.19,0-.43,0-.72,0-1.46.03-2.93.02-4.39,0-.17,0-.31,0-.44.05-.15.11-.33.18-.54.34-1.1.56-2.25.91-3.35.13-.43.29-.85.44-1.28,1-1.73,1.91-3.47,3-5.14.28-.28,1.41-1.65,1.78-2.04.98-1,2.03-1.87,3.05-2.83-2.66,2.49.32-.13,1.03-.57.91-.56,1.86-1.06,2.81-1.55.29-.11.72-.27,1.23-.43.91-.28,5.86-1.22,1.56-.66,8.78-1.14,17.45-7,17-17-.21-4.6-2.55-9.76-6.22-13.19-2.15-3.39-5.57-6.05-9.86-7.73-6.82-2.67-8.84-3.36-15.4-6.63-2.62-1.31-5.21-2.7-7.72-4.22-1.51-.91-2.95-1.9-4.43-2.86-.46-.32-.91-.64-1.37-.96-2.08-1.75-4.1-3.55-5.97-5.52-.89-.94-1.7-1.94-2.56-2.9-.07-.07-.12-.13-.17-.18-.09-.16-.23-.39-.41-.69-.81-1.31-1.65-2.58-2.39-3.93-.11-.21-.72-1.53-1.06-2.23-.26-.77-.68-1.97-.74-2.18-.3-1.03-.53-2.05-.74-3.09-.03-.29-.08-.91-.1-1.66-.03-1.2.03-2.39.08-3.58,0-.15.01-.27.01-.39.07-.19.15-.43.24-.74.34-1.12.73-2.28,1-3.41,0-.02,0-.04.01-.06.07-.11.16-.25.25-.4.2-.32,1.31-1.93,1.46-2.28.5-.49,1-.96,1.41-1.5.04-.05.06-.08.08-.12.06-.03.1-.05.17-.08,1.22-.61,3.4-1.12,1.3-.66.79-.18,1.66-.4,2.29-.7.54,0,1.58-.12,2.48-.11.22.12.57.26,1.1.43.13.04.24.08.35.12,1.17.86,2,1.89.71.35-.16-.07-.36-.17-.6-.31.19.07.36.13.49.19-.09-.11-.18-.22-.29-.35.1.12.22.24.33.36.58.25.55.32.12.13.7.76,1.47,1.46,2.12,2.27,5.62,6.94,18.27,6.28,24.04,0,4.43-4.83,5.61-10.47,4.23-15.87.27-7.59-4.03-16.65-12.27-17.76-2.91-.39-5.77-.97-8.58-1.83-.75-.23-2.38-.84-2.52-.85-.96-.45-1.91-.93-2.84-1.43-1.28-.7-2.54-1.46-3.76-2.27-.44-.29-2.56-2.16-2.12-1.7-1.53-1.47-3.02-2.96-4.49-4.48.55.53-1.35-1.62-1.66-2.09-.8-1.22-1.54-2.48-2.22-3.77-.36-.68-1.67-4.61-.68-1.28-.42-1.41-.95-2.76-1.32-4.18-.38-1.42-.63-2.85-.91-4.29.77,3.86.05-.6.02-1.3-.06-1.46-.05-2.93.02-4.39.04-.83.92-4.99.04-1.3.69-2.88,1.33-5.65,2.26-8.47.08-.24.14-.43.18-.58.12-.17.26-.38.45-.69.76-1.22,1.51-2.52,2.2-3.78.18-.34.29-.57.37-.73.13-.13.28-.28.48-.49,1-1.07,1.97-2.16,3.04-3.17.5-.47,2.81-2.13,2.14-1.72.87-.57,1.75-1.14,2.66-1.65.92-.52,1.86-1,2.82-1.45.15,0,1.78-.6,2.53-.83,1.17-.35,2.35-.65,3.55-.9.44-.1.88-.17,1.32-.25,1.44,0,2.88-.17,4.32-.15.3,0,1.88.13,2.8.18.04,0,.08.02.12.03,1.03.32,2.08.55,3.14.7,1.48.41,2.92.91,4.35,1.46,8.32,3.21,19.01-3.53,20.91-11.87,1.56-6.86-.57-12.73-5.07-16.8-.39-.55-.8-1.11-1.24-1.67-3.39-4.28-7.57-8.04-12.13-11.16-.25-.97-.44-1.95-.67-2.92,0-.01,0-.02,0-.03,0-.03,0-.05,0-.09.04-2-.1-4.01-.04-6.02,0-.19,0-.34,0-.49.02-.09.05-.18.07-.29.21-.86.37-1.74.6-2.6.26-.99.85-2.16,1-3.17,0,0,0,0,0,0,.04-.07.08-.12.12-.2.57-.94,1.1-1.93,1.65-2.88.18-.32.54-.75.83-1.07-.18.18-.41.42-.72.74.63-.63,1.18-1.34,1.81-1.97.01-.01.43-.42.86-.85.41-.3,1.62-1.29,1.91-1.47.94-.59,1.92-1.1,2.88-1.65.24-.13.58-.27.91-.39-.2.06-.43.13-.71.21,1.07-.31,2.1-.74,3.17-1.04,1.08-.31,2.16-.54,3.25-.8.07-.02.12-.03.18-.04,1.99-.11,3.95-.24,5.96-.14.41.02,2.24.35,2.53.36.45.12.82.21.85.22.86.22,1.7.51,2.55.74.17.05.31.08.45.11.89.51,1.86.91,2.74,1.44.79.47,4.02,2.85.93.4,6.96,5.51,17.34,7.3,24.04,0,3.69-4.02,5.71-10.53,4.6-16.22.23-1.14.34-2.31.29-3.52-.19-4.15-1.73-8.01-4.24-11-.12-.34-.24-.68-.34-1.03-.32-1.05-.51-2.13-.82-3.18-.04-.14-.07-.24-.11-.34-.05-2.31-.11-4.61-.13-6.92,0-.15,0-.27,0-.39.22-.97.36-1.96.59-2.92.39-1.62.89-3.2,1.44-4.77-.26.79.82-1.73,1.1-2.24.53-.96,1.12-1.89,1.69-2.82.22-.36.41-.65.57-.88.54-.63,1.09-1.25,1.66-1.84.76-.79,1.57-1.52,2.37-2.27.1-.09.17-.16.25-.24.15-.08.31-.17.52-.29.95-.55,1.9-1.12,2.85-1.67.28-.16.53-.29.74-.4,1.88-.63,3.76-1.13,5.68-1.64.19-.05.34-.09.48-.13.07,0,.13,0,.21,0,1.1-.05,2.19-.13,3.29-.14,1.1,0,2.2.07,3.3.09.14,0,.26,0,.38,0,2.26.56,4.52.94,6.75,1.69.34.11,1.86.81,2.27.96.41.22.78.43.91.5,1.16.64,2.24,1.36,3.36,2.06.03.02.05.03.08.05.84.78,1.71,1.5,2.52,2.33.65.66,3.19,3.76.76.58,5.37,7.05,14.89,11.49,23.26,6.1,4.25-2.74,7.73-7.98,8.49-13.37.57-1.02,1.07-2.1,1.48-3.25.2-.56.32-.9.37-1.04.35-.75.72-1.49,1.11-2.22.91-1.71,1.92-3.36,3.02-4.96.23-.33.47-.65.69-.91-.08.09-.17.19-.27.3.11-.12.22-.25.33-.37.33-.4.54-.63.41-.46.39-.45.79-.9,1.19-1.34,1.5-1.6,3.19-2.98,4.75-4.51.03-.03.04-.04.06-.06,1-.64,1.95-1.36,2.97-1.99,1.65-1.03,3.36-1.92,5.1-2.8.09-.05.16-.08.24-.12,1.05-.35,2.08-.75,3.13-1.07,1.93-.59,3.88-.99,5.86-1.39.12,0,.24-.02.4-.02.99-.05,1.98-.11,2.98-.13,1.24-.02,2.48.02,3.72.09.16,0,.84.07,1.39.12.56.09,1.31.21,1.47.25,1.22.25,2.43.53,3.63.87,1.63.45,3.23.99,4.81,1.59-.67-.18,3.33,1.71,4.16,2.19.81.47,4.37,2.97,3.97,2.54,1.31,1.09,2.57,2.23,3.76,3.44.87.88,1.64,1.88,2.51,2.75.03.03.04.04.07.07.12.18.26.38.44.64,3.41,4.84,8.99,8.27,14.75,8.45,1.51.44,3.13.66,4.69.53,3.7-.3,5.85-.63,9.12-2.51,2.88-1.66,4.38-3.4,6.18-5.97.08-.11.15-.22.23-.33.04-.06.08-.11.12-.17.02-.03.04-.06.06-.09.97-1.42,1.79-3.01,2.42-4.75.08-.22.14-.39.19-.53.57-.98,1.02-2.03,1.6-3.01.47-.8.99-1.57,1.49-2.36.1-.16.18-.29.26-.41.01-.01.02-.02.03-.03,1.64-1.69,3.12-3.43,4.89-4.99.66-.59,3.24-2.19.39-.39.79-.5,1.53-1.07,2.32-1.57,1.69-1.07,3.46-2.01,5.27-2.87.31-.11.82-.3,1.4-.49,1.11-.36,2.22-.69,3.35-.97.9-.22,1.82-.4,2.73-.59.03,0,.06-.01.1-.02.06,0,.14,0,.22.01,2.18.08,4.37,0,6.56.07.02,0,.03.01.05.02,1.1.35,2.28.5,3.39.82,1.09.31,2.14.73,3.21,1.07.15.08.3.17.5.28,1.83,1.01,3.57,2.22,5.4,3.21.1.06.19.1.25.13.07.06.12.11.2.19.86.79,1.75,1.54,2.58,2.36.84.82,1.61,1.68,2.42,2.53.21.22.35.38.47.51,1.18,1.67,2.29,3.4,3.26,5.21.1.19.51,1.06.83,1.71.26.74.7,1.9.71,1.92.28.89.53,1.78.75,2.69.16.65.87,5.21.35.99.41,3.33,1.52,6.63,3.28,9.44.06.14.12.29.18.43,1.51,2.55,3.54,4.59,6.1,6.1.71.45,1.63.73,2.33,1.03.73.31,1.54.72,2.35.97.8.17,1.61.28,2.42.34.81.12,1.61.23,2.42.32.11,0,.22,0,.33,0,.81-.09,1.62-.19,2.43-.32.81-.08,1.62-.19,2.43-.33.11-.03.22-.06.33-.09.74-.28,1.47-.59,2.19-.92.74-.29,1.47-.6,2.19-.93.13-.07.25-.14.37-.22.62-.43,1.22-.89,1.79-1.38.62-.47,1.24-.95,1.86-1.44.11-.1.21-.2.31-.3.5-.57.96-1.16,1.39-1.78.48-.62.96-1.24,1.43-1.86.08-.12.15-.24.21-.36.33-.69.63-1.39.89-2.11.33-.72.63-1.45.92-2.19.24-.84.27-1.69.39-2.58.43-3.2.38-3.03-.13-6.29.1-.52.2-1,.24-1.15.28-1.13.62-2.24,1-3.34.1-.31.32-.73.51-1.09-.1.18-.22.37-.38.63,1.21-2,2.22-4.08,3.51-6.05.04-.05.06-.09.09-.14.89-.96,1.71-1.96,2.64-2.88.66-.66,1.37-1.28,2.05-1.92.16-.15.28-.27.4-.38,0,0,0,0,.01,0,1.97-1.22,4.05-2.35,6-3.58.08-.05.13-.08.18-.12.08-.02.16-.04.25-.07,1.11-.33,2.21-.73,3.33-1.02.75-.2,1.51-.35,2.27-.51.3-.03.84-.08,1.51-.1,1.17-.04,2.33.01,3.51.04.1,0,.18,0,.27,0,2.07.47,4.08.97,6.12,1.59.15.05.26.08.38.11.03.02.04.03.07.05,1,.59,2.09,1.05,3.1,1.63,1.01.58,1.94,1.33,2.96,1.88.09.05.15.08.22.11.08.07.15.14.24.22,1.76,1.58,3.39,3.2,4.97,4.95.02.02.03.04.06.06-.04-.07-.08-.12-.12-.19.04.07.09.13.13.2.94,1.06.72,1.06.16.25.65,1.03,1.36,2.02,1.97,3.09.46.81.88,1.64,1.31,2.47.04.08.07.14.11.21.01.07.02.14.04.24.54,2.53,1.39,4.89,1.79,7.48.84,5.55,5.73,9.85,11.24,11.62,2.28,1.2,4.88,1.9,7.71,1.9,3.38,0,6.7-1.14,9.51-3.04.77-.3,1.53-.65,2.28-1.07.97-.54,1.95-1.04,2.94-1.53.3-.12.73-.29,1.23-.46,2.1-.71,4.22-1.17,6.36-1.64.47-.08,1.28-.22,2.03-.26,1.16-.07,2.32-.1,3.48-.1,1.16,0,2.32.09,3.48.12.3,0,.54,0,.73,0,.09.02.18.04.28.06,2.28.45,4.54.94,6.77,1.64.94.29,1.86.62,2.78.96.22.11.82.38,1.51.74,1.97,1.02,3.84,2.18,5.67,3.43.25.2.69.55,1.15.97,1.03.93,2.02,1.91,2.97,2.94.52.57,1,1.15,1.16,1.34.59.85,1.16,1.7,1.69,2.59.61,1.01,1.18,2.05,1.71,3.1.24.47.44.92.57,1.23.77,2.2,1.47,4.41,1.98,6.7.15.66.28,1.33.4,2-.2-1,.19,2.11.21,2.64.11,2.38-.04,4.73-.14,7.11,0,.16-.01.31-.02.44-.05.17-.1.38-.17.67-.33,1.39-.6,2.76-.99,4.14-.32,1.13-.8,2.23-1.09,3.37-.02.08-.03.14-.05.2-.05.09-.1.18-.16.3-1.32,2.54-2.73,4.95-4.4,7.28-.95,1.33-1.6,2.81-1.98,4.37-1.01,1.23-1.78,2.61-2.28,4.14-1.06,2.03-1.55,4.21-1.46,6.55.02.16.04.32.06.48-.02.27-.03.54-.04.81,0,.02,0,.04,0,.05,0,.18-.02.36-.02.54v.38c0,.1,0,.19,0,.29,0,.16-.01.31,0,.47,0,.09.02.18.02.28.02.48.06.95.13,1.41,0,.03,0,.05.01.08.06.37.11.73.2,1.09.76,3.8,2.66,7.2,5.38,9.72,2.96,4.76,8.08,7.93,14.25,8.07,1.18.03,2.37.16,3.55.17,0,0,.01,0,.02,0,.11.03.23.06.37.09,2.32.55,4.56,1.16,6.82,1.91.19.06.35.12.5.16.17.1.39.22.66.36.84.45,1.68.87,2.51,1.34,1.24.71,2.42,1.49,3.62,2.27.15.09.26.17.37.25,1.66,1.44,3.29,2.9,4.79,4.52.3.32,2.13,2.67,1.74,2.04.28.41.58.81.85,1.22,1.12,1.73,2.08,3.53,2.99,5.36-.88-1.73.56,1.52.73,2.08.35,1.13.65,2.27.91,3.43.21.92.48,4.11.19.28.09,1.15.2,2.3.24,3.46.04,1.16.03,2.31-.01,3.47,0,.19-.06.88-.1,1.52-.13.73-.34,2.15-.35,2.22-.24,1.13-.53,2.26-.85,3.37-.32,1.12-.71,2.21-1.07,3.31-.04.13-.07.22-.1.32-.02.04-.04.06-.07.11-1.16,2.02-2.12,4.11-3.4,6.07-.44.68-.85,1.26-.97,1.45-.48.57-.98,1.14-1.48,1.69-.78.85-1.59,1.67-2.44,2.47-.14.13-.78.69-1.3,1.16-.58.41-1.59,1.17-1.8,1.31-1.17.75-2.39,1.43-3.61,2.09-7.85,4.21-10.95,15.74-6.1,23.26,3.16,4.9,8.05,7.77,13.3,8.22,3.27,1.97,6.5,3.99,9.65,6.15,1.15.79,2.29,1.6,3.42,2.42.29.21.46.33.57.4.18.15.38.32.62.52,2.13,1.77,4.22,3.6,6.19,5.55,1.77,1.75,3.47,3.59,5.03,5.53.13.16.21.25.27.32.09.17.22.4.42.75.66,1.13,1.4,2.21,2.05,3.35.51.9.98,1.81,1.43,2.73.16.37.54,1.21.75,1.8.85,2.46,1.42,4.94,1.94,7.48,0,.24-.01.54-.02.92,0,1.02,0,2.05,0,3.07,0,.3,0,.55.01.76,0,.01,0,.02,0,.03-.33,1.23-.6,2.48-.91,3.72-.06.22-.1.41-.14.58,0,0,0,.01-.02.02-.46.6-.85,1.35-1.23,2.07-1.08-.43-2.19-.79-3.36-1-4.49-.79-6.93-.79-11.42,0-1.42.25-2.77.66-4.06,1.17-1.12.14-2.21.34-3.21.64-3.55,1.04-7.74,3.2-10.1,6.14-1.66,1.54-2.83,3.36-3.52,5.47-1.06,2.03-1.55,4.21-1.46,6.55-.03.86.04,1.69.16,2.51.34,4.89,2.58,9.59,6.84,12.39,1.22,1.41,2.42,2.36,4.69,3.97,1.42,1,3.11,1.68,4.78,2.18l5.53,2.92c2.72,3.33,5.53,6.59,8.34,9.81,1.84,2.11,3.68,4.22,5.47,6.37.15.18,1.25,1.54,1.77,2.18.44.63,1.76,2.43,1.72,2.37,1.45,2.1,2.81,4.27,4.05,6.51.55,1,1.07,2.02,1.58,3.04.1.26.68,1.57.87,2.14.73,2.12,1.38,4.33,1.74,6.56-.38-1.6-.42,4.92-.02,3.76Z"/>
              </g>
            </g>
            <path class="cls-3" d="M404.13,49.69c-.03-.76-.13-1.52-.3-2.29-.1-2.26-.78-4.37-2.02-6.32-1.07-1.98-2.53-3.57-4.38-4.77-1.64-1.5-3.57-2.52-5.78-3.04-1.51-.2-3.01-.4-4.52-.61-3.07,0-5.93.78-8.58,2.32-1.15.89-2.29,1.77-3.44,2.66-2.11,2.12-3.56,4.62-4.37,7.5-.4,1.12-.79,2.24-1.19,3.37-.71,2.26-.81,4.52-.3,6.78.1,2.26.78,4.37,2.02,6.32,1.07,1.98,2.53,3.57,4.38,4.77,1.64,1.5,3.57,2.52,5.78,3.04,1.51.2,3.01.4,4.52.61,3.07,0,5.93-.78,8.58-2.32,1.15-.89,2.29-1.77,3.44-2.66,2.11-2.12,3.56-4.62,4.37-7.5.4-1.12.79-2.24,1.19-3.37.47-1.49.66-2.98.6-4.47.17-.3.13-.25,0-.02Z"/>
            <path class="cls-3" d="M447.61,44.72c.06.09.11.18.17.25-.05-.08-.11-.16-.16-.25,0,0,0,0,0,0Z"/>
          </g>
        </g>
      </g>
    </g>
    <path class="cls-3" d="M293.36,221.55c-15.81-14.7-39.36-21.3-60.24-14.33-13.57,4.53-25.19,13.67-32.79,25.53-21.08-4.16-45.5,5.74-55.11,25.23-13.49,27.35,2.05,62.66,31.65,70.72,8.57,2.34,18.87-2.91,20.91-11.87,2.04-8.96-2.69-18.41-11.87-20.91-.07-.02-.43-.1-.85-.18.86.13-1.45-.53-2-.84-.78-.43-1.59-1.11-2.4-1.52-.05-.05-.09-.1-.14-.16-.69-.76-1.46-1.47-2.17-2.21-.09-.09-.15-.16-.22-.24-.96-1.56-1.87-3.12-2.74-4.73-.04-.13-.08-.25-.13-.41-.29-1-.62-1.98-.86-3-.09-.38-.24-1.78-.31-2.25,0-.32-.01-.57-.01-.61-.01-.89.11-1.79.11-2.68.02-.06.03-.09.05-.15.28-.88.64-1.86.82-2.77.03-.04.05-.07.08-.12.43-.68.84-1.4,1.25-2.09.03-.05.04-.08.07-.13.08-.07.16-.14.26-.23.58-.54,1.16-1.13,1.71-1.7.1-.1.17-.18.24-.26.04-.03.07-.04.12-.07,1.32-.8,2.65-1.54,4-2.25-.49.35,2.41-.75,3.63-1.11.49-.14.83-.26,1.05-.36.62-.02,1.26.01,1.69,0,1.02-.03,2.03.04,3.04.03.03,0,.04,0,.07,0,.84.23,1.73.34,2.57.58.18.05.68.22,1.17.39.54.26,1.23.58,1.44.71,1.06.61,2.06,1.31,3.05,2.04,8.88,6.52,22.51-.36,24.97-10.16.37-1.46.81-2.89,1.29-4.31.15-.31.69-1.53,1.07-2.24.69-1.26,1.49-2.42,2.23-3.64.1-.14.18-.25.26-.37.5-.59,1.01-1.18,1.55-1.74.98-1.04,2.06-1.97,3.08-2.97.21-.2.36-.36.48-.49.15-.08.33-.18.59-.33,1.64-.97,3.26-1.93,4.92-2.86.19-.11.34-.2.47-.27.19-.04.42-.1.73-.19,1.44-.4,2.87-.79,4.31-1.18.41-.07.72-.13.96-.18.43-.03.86-.08,1.29-.09,1.78-.09,3.54-.02,5.32.05.28.01.5.02.7.02.21.06.47.13.8.22,1.73.44,3.44.83,5.13,1.4.36.12.71.26,1.07.39.21.11.58.29,1.17.56,1.32.77,2.62,1.52,3.93,2.31.31.22.54.38.73.52.59.51,1.19,1.02,1.75,1.57,6.51,6.06,17.68,6.93,24.04,0,6.04-6.58,6.96-17.57,0-24.04Z"/>
    <g>
      <path class="cls-3" d="M475.14,284.57c1.94.61,1.91.48,1.28.27-.42-.08-.84-.16-1.24-.27-.02,0-.03,0-.04,0Z"/>
      <path class="cls-3" d="M512.64,267.92c-14.03-16.14-36.41-20.61-55.94-14.9-12.59-19.52-37.47-30.74-60.59-26.09-30.82,6.19-49.46,39.31-43.5,68.99,1.75,8.73,12.6,14.56,20.91,11.87,9.27-3,13.75-11.55,11.87-20.91-.04-.2-.08-.37-.11-.52-.03-1.01-.12-2.01-.11-3.02,0-.66.36-3.63.12-2.43.07-.36.14-.72.22-1.07.29-1.32.66-2.63,1.08-3.91.1-.3.7-1.67.91-2.22.31-.58.62-1.16.63-1.18.55-.99,1.14-1.96,1.76-2.91.29-.44.56-.82.75-1.07.55-.63,1.1-1.25,1.68-1.85.79-.82,1.63-1.57,2.44-2.35.1-.1.18-.17.26-.26,0,0,0,0,.01,0,.97-.57,1.87-1.25,2.84-1.82.4-.23,2.25-1.08,2.39-1.21,1.52-.48,3.06-.84,4.6-1.27.15-.01.3-.03.48-.04,1.12-.06,2.25-.07,3.37-.03.34.01,1.8.23,2.37.29.49.12.95.23,1.1.27,1.09.28,2.17.6,3.24.97.25.08.47.17.66.24,1.89,1.02,3.74,2.04,5.57,3.18.19.12.34.21.48.29.11.11.23.22.39.37.67.62,1.35,1.21,1.99,1.85.81.8,1.55,1.65,2.3,2.49.17.23.38.52.61.86.62.94,1.2,1.9,1.73,2.89.14.26.65,1.45.92,2.05.18.58.38,1.19.43,1.36.37,1.31.64,2.64.89,3.98,1.04,5.68,6.55,10.41,11.87,11.87,6.19,1.71,11.85-.33,16.54-4.37.06-.05.09-.08.14-.12,0,0,.01,0,.02,0,.96-.39,1.85-1.18,2.77-1.68.36-.19,2.02-.8,2.28-.95.45-.12.83-.23.86-.24.83-.24,1.69-.4,2.52-.62.09-.02.17-.05.25-.07,2.09.02,4.17-.15,6.27-.07.07,0,.14,0,.21.02-.06-.02-.12-.04-.19-.06.08.02.15.04.23.06.44.05.92.17,1.24.27.36.07.73.13,1.08.22,1.18.3,2.32.68,3.47,1.05,1.54.97,3.16,1.76,4.68,2.76.19.18.42.41.7.7.61.66,1.24,1.34,1.87,1.99.02.03.03.05.05.08.55.93,1.1,1.86,1.64,2.8.1.18.18.33.26.47.29.9.6,1.78.85,2.69.25.92.42,1.85.63,2.77,0,.13.02.25.02.4.06,1.95.04,3.87-.05,5.82-.01.03-.02.04-.03.07-.38.98-.46,2.15-.75,3.18-.27.97-.68,1.91-.96,2.88-.06.1-.12.19-.19.31-.44.74-.82,1.52-1.27,2.26-.04.07-.69.97-1.1,1.56-.41.46-.87.99-1.01,1.13-.92.93-1.9,1.78-2.91,2.62-6.87,5.7-6.34,18.22,0,24.04,7.3,6.7,16.71,6.08,24.04,0,22.49-18.67,23.97-55.13,5.2-76.73Z"/>
    </g>
    <path class="cls-3" d="M395.08,141.71c-1.71-16.41-9.7-29.85-23.3-39.26-12.38-8.56-28.75-11.21-43.12-6.69-3.39,1.07-6.66,2.5-10.01,3.69-1.53.54-3.06,1.04-4.64,1.43-.52.13-1.07.26-1.61.37-.06,0-.14,0-.21-.02-.7-.22-2.86-.79-3.41-.97-.07-.02-.12-.04-.18-.06-.59-.28-1.18-.58-1.76-.88-3.47-1.77-6.8-3.8-10.33-5.44-14.04-6.55-29.23-8.18-44.35-4.5-16.31,3.96-30.33,14.22-39.5,28.17-4.9,7.45-1.73,19.13,6.1,23.26,8.51,4.49,18.03,1.85,23.26-6.1.33-.51.68-1.01,1.03-1.51.11-.13.24-.29.39-.46,1.27-1.27,2.56-2.54,3.81-3.83.2-.2.33-.35.44-.47.11-.07.22-.14.36-.23,1.52-.99,3-1.99,4.59-2.87.84-.46,1.7-.89,2.56-1.3-1.44.73,2.67-.96,3.38-1.17,1.74-.52,3.51-.86,5.28-1.28.16-.04.29-.07.41-.1.13,0,.28,0,.45,0,2.59-.07,5.14-.14,7.71.03.02.09,3.21.63,3.86.81.71.19,4.83,1.77,3.42,1.08,7.44,3.49,14.3,8.32,22.37,10.38,9.51,2.42,18.89,1.01,27.93-2.39,3.77-1.42,7.7-2.45,11.45-3.83.47-.03.94-.04,1.41-.05.74,0,1.47.03,2.21.08,1.18.31,2.42.67,3.6.93.4.15.69.25.9.32.37.18.75.35,1.11.54,1.26.67,2.44,1.66,3.7,2.3.48.42.95.83,1.41,1.27.65.63,3.51,4.37,2.09,2.2.59.88,1.16,1.75,1.68,2.68.23.41.42.83.63,1.25.07.19.14.41.25.7.2.96,1.14,6.58.66,1.94.92,8.82,7.16,17.44,17,17,8.42-.38,17.99-7.53,17-17Z"/>
    <g>
      <path class="cls-3" d="M471.15,170.71c0-.2,0-.37,0-.51,0,.16,0,.32,0,.47,0,.01,0,.03,0,.04Z"/>
      <path class="cls-3" d="M513.42,166.63c-7.68-4.06-19.05-2.41-23.26,6.1-.11.23-.85,1.48-1.34,2.35-.57.57-1.7,1.87-1.78,2.05,0,0,0,0,0,0-.43.28-.84.58-1.28.84-.62.36-2.29.97-2.39,1.04-.69.2-1.38.4-2.09.59-.08.02-.15.04-.22.06-.13-.01-.28-.02-.46-.03-.97-.05-1.79-.14-2.09-.15-.42-.11-.86-.23-1.24-.33-.58-.34-1.64-.88-2.12-1.1-.43-.4-.86-.79-1.27-1.22-.14-.12-.26-.22-.36-.3-.06-.12-.11-.23-.19-.39-.34-.66-.71-1.3-1.07-1.95.15.17-.7-1.71-.88-2.39-.1-.4-.17-.77-.22-1.08,0,.13,0,.27,0,.43,0-.16,0-.32,0-.47-.15-1.09-.02-1.53,0-.47,0-.44.01-.88,0-1.33.07.83.49-2.51.82-3.49,2.86-8.43-3.28-18.96-11.87-20.91-9.43-2.15-17.85,2.85-20.91,11.87-7.15,21.03,4.4,45.46,24.62,53.99,20.16,8.51,45.9-.65,55.7-20.44,3.94-7.96,2.4-18.77-6.1-23.26Z"/>
    </g>
  </g>
</svg>