<?xml version="1.0" encoding="UTF-8"?>
<svg id="Layer_2" data-name="Layer 2" xmlns="http://www.w3.org/2000/svg" viewBox="0 0 971.43 833.51">
  <defs>
    <style>
      .cls-1 {
        fill: #38a9e5;
      }

      .cls-1, .cls-2, .cls-3, .cls-4, .cls-5 {
        stroke-width: 0px;
      }

      .cls-6 {
        stroke: #000;
        stroke-miterlimit: 10;
      }

      .cls-6, .cls-3 {
        fill: #000;
      }

      .cls-2 {
        fill: #7dcfe5;
      }

      .cls-4 {
        fill: #96dbeb;
      }

      .cls-5 {
        fill: #fff;
      }
    </style>
  </defs>
  <g id="Layer_3" data-name="Layer 3">
    <path class="cls-1" d="M714.67,52.17c-3.58-6.28-12.15-10.09-19.2-7.81-1.76.57-3.47,1.44-5.05,2.54-50.48-26.44-111.06-32.86-166.19-18.73-14.4,3.69-28.46,8.95-41.85,15.46-1.68-.06-3.41.15-5.13.71-16.88,5.48-33.75,10.96-50.63,16.44-3.04-1.13-6.38-1.31-9.65-.08-20.33,7.67-40.66,15.34-60.99,23.02-13.7,4.45-27.41,8.9-41.11,13.35-3.48,1.13-6.59,3.36-8.85,6.21-5.86,4.07-9.63,11-7.21,18.45,2.62,8.1,12,15.24,20.91,11.87,1.5-.57,3-1.13,4.5-1.7,3.4,1.58,7.3,2.04,11.24.86,4.7-1.4,9.39-2.8,14.09-4.2,2.6,1.67,5.72,2.7,9.17,2.92,17.45,1.11,34.89,2.24,52.31,3.7,8.87.75,17.73,1.58,26.58,2.54,4.27.47,8.53.96,12.79,1.49,5.16.64,4.89.61,10.04,1.36,34.66,5.04,69.07,12.89,101.62,26.02,2.96,1.19,1.41.53,4.34,1.81,2.23.97,4.44,1.96,6.65,2.98,4.41,2.03,8.78,4.17,13.1,6.39,8.91,4.59,17.59,9.59,26.07,14.94,7.54,4.75,19.07,1.83,23.26-6.1,3.13-5.92,2.79-12.56-.51-17.74,18.96-13.35,38.05-26.62,56.22-40.94,11.27-8.87,20.72-19.52,26.01-33,5.46-13.89,4.91-29.71-2.52-42.76ZM551.56,57.12c.81-.13,1.61-.27,2.42-.4.74-.11,1.48-.22,2.22-.32.08,0,.15-.01.25-.02.32-.03.64-.06.96-.09-1.95.27-3.9.56-5.86.84Z"/>
    <g>
      <path class="cls-1" d="M873.78,385.56c15.04-2.95,30.8-4.77,44.03-13.24,27.02-17.29,31.14-52.27,16.55-79.23-16.2-29.93-51.95-38.73-83.37-32.22-27.43,5.69-49.84,23.1-68.47,43.37-8.96,6.68-17.24,14.26-24.66,22.61-6.7-.63-13.41,1.67-18.5,6.15-8.9,7.84-9.18,20.46-4.19,30.4-.12,1.64-.02,3.29.29,4.9-2.74-1.29-5.8-1.84-8.93-1.36-2.09-3.23-5.23-5.7-9.29-6.5-.35-.07-.7-.15-1.06-.23,4.46-14.86,1.13-31.06-6.01-45.08-8.13-15.96-20.86-30.15-32.8-43.37-11.02-12.2-22.84-23.67-35.34-34.35-34.1-29.12-72.88-52.83-114.41-69.75,0-.02,0-.05,0-.07-.6-8.51-6.01-15.52-14.74-16.7-5.42-.73-11.76,1.5-15.53,5.8-12-3.81-24.17-7.07-36.49-9.74-67.34-14.56-137.69-11.39-203.45,9.22-5.4,1.69-10.77,3.51-16.11,5.42-86.94,15.78-161.62,76.3-195.93,157.6-9.89,23.44-16.1,47.6-19.25,72.8-6.84.7-13.32,5.16-14.93,12.24-1.99,8.74,2.63,18.69,11.87,20.91,91.35,21.99,185.18,34.19,279.12,36.39,93.36,2.18,186.96-5.64,278.73-22.92,51.51-9.7,102.4-22.54,152.36-38.39,2.88-.91,5.49-2.6,7.59-4.76-7.39,19.35-10.79,40.32-9.53,60.81,1.97,31.89,14.46,61.62,35.84,85.36,20.79,23.08,49.75,38.93,80.67,42.49,15.84,1.82,32.98-.7,46.77-9.03,14.01-8.46,24.02-22.7,27.66-38.63,7.59-33.14-7.63-64.2-30.59-87.43-10.8-10.93-23.48-19.57-34.69-30.01-2.23-2.08-4.33-4.27-6.33-6.56.62.66-1.44-1.94-1.89-2.66-.39-.62-.77-1.24-1.12-1.88-.06-.11-.68-1.63-.97-2.23-.13-.57-.33-1.36-.49-2,.27,1-.01-.8-.03-2.1.14-.53.23-1.07.42-1.59.12-.34.5-1.07.69-1.45.08-.13.15-.23.19-.29,0-.01.01-.02.02-.03-.01-.07.29-.64.69-1.05.11-.17.23-.35.33-.52-.09.17-.18.32-.26.45,0,0,0-.01.01-.02,1.04-.98,2.23-2.01,3.19-3.06.51-.35,1.02-.71,1.54-1.05,1.55-.99,3.16-1.89,4.8-2.71,1.21-.61,3.81-1.58,1.03-.57,1.53-.56,3.05-1.14,4.6-1.64,3.39-1.08,6.85-1.88,10.34-2.56ZM223.8,416.56c-.5,1.25-1,2.51-1.51,3.76-.3.97-.49,1.93-.57,2.9-13.17-1.12-26.32-2.43-39.44-3.95-13.86-1.6-22.8-2.78-35.82-4.7-12.81-1.89-25.59-3.97-38.34-6.24-13.96-2.49-27.87-5.22-41.73-8.17.02-.17.05-.33.06-.5.13-1.44.28-2.88.44-4.32.06-.23.52-3.61.62-4.16.07-.42.16-.83.24-1.24,2.54-5.5,5.41-10.85,8.59-16,1.5-2.43,3.07-4.81,4.7-7.15.82-1.17,1.67-2.32,2.5-3.48.14-.2.45-.61.68-.91.34-.43.69-.87,1.04-1.3,3.9-4.81,8.08-9.4,12.5-13.74,4.22-4.13,8.68-7.97,13.27-11.68.05-.03.08-.05.13-.09.59-.41,1.15-.86,1.73-1.28,1.16-.84,2.33-1.67,3.51-2.48,2.56-1.76,5.16-3.44,7.81-5.06,5.3-3.22,10.77-6.14,16.4-8.74.33-.15,1.65-.74,2.42-1.09.69-.27,2.79-1.13,3.39-1.36.28-.11.56-.2.84-.31.51,9.23,7.52,16.65,16.98,16.79,1.9.03,3.77.17,5.66.28.15,0,.28.02.39.02.18.04.4.09.67.15,2.99.65,5.95,1.32,8.86,2.28.57.19,3.33,1.26,3.24,1.16.83.38,1.65.77,2.46,1.19,2.95,1.49,5.79,3.18,8.51,5.06.55.38,2.71,2.09,2.16,1.61.74.61,1.47,1.23,2.18,1.87,2.48,2.23,4.64,4.68,6.91,7.11.23.25.4.41.53.54.09.13.19.28.32.46.81,1.16,1.63,2.31,2.39,3.5,1.79,2.8,3.18,5.73,4.73,8.66-1.77-3.35.17.48.41,1.16.56,1.55,1.05,3.12,1.49,4.7.44,1.59.76,3.2,1.13,4.82.08.37.15.64.21.86.02.22.05.48.08.79.84,8.18,1.04,16.72,3.5,24.62,1.14,3.65,2.82,7.21,4.95,10.51-.5.99-.9,2.03-1.21,3.13ZM269.56,426.4c3.93-3.13,6.44-7.7,6.49-13.12.03-2.95.15-5.9.42-8.84.05-.58.12-1.17.18-1.75,0-.04.01-.07.02-.11.27-1.31.45-2.64.71-3.96,1.17-5.79,2.88-11.44,5.01-16.95.13-.33.23-.59.31-.81.13-.24.3-.58.52-1.04.59-1.2,1.16-2.42,1.78-3.61,1.36-2.62,2.83-5.18,4.41-7.67.72-1.13,1.46-2.25,2.23-3.35.25-.35,1.67-2.26,2.09-2.85.54-.64,1.52-1.81,1.66-1.97,1.05-1.22,2.14-2.41,3.25-3.57,1.85-1.94,3.8-3.79,5.81-5.56.95-.84,1.92-1.66,2.91-2.45-.04.08,2.42-1.77,2.51-1.83,4.87-3.39,10.03-6.16,15.34-8.78.3-.15.51-.25.68-.34.08-.02.21-.07.44-.16,1.25-.49,2.5-.97,3.77-1.41,2.78-.97,5.61-1.83,8.47-2.55,2.86-.73,5.75-1.31,8.66-1.8.3-.05.55-.09.77-.13.27-.01.62-.04,1.1-.07,1.61-.12,3.21-.24,4.82-.33,4.95-.25,9.8-2.56,13.05-6.21,2.32.63,4.62,1.33,6.89,2.12,1.33.46,2.64.95,3.95,1.46,3.2,1.25,1.26.55.59.25,2.5,1.14,4.95,2.35,7.35,3.68,1.74.96,3.44,1.98,5.12,3.05,1.05.67,2.08,1.37,3.1,2.08.46.32,3,2.32,2.86,2.16,3.13,2.64,6.14,5.41,8.93,8.41,1.53,1.64,2.96,3.36,4.39,5.09.03.04.05.05.07.09.11.18.25.39.41.63.81,1.24,1.68,2.44,2.48,3.7,1.06,1.66,2.05,3.37,2.99,5.1.58,1.08,1.14,2.18,1.67,3.28.22.45.72,1.64.87,1.97,1.53,4.16,2.59,8.36,3.57,12.69.04.19.08.48.12.76.11,1.15.21,2.3.27,3.46.13,2.81,0,5.61-.08,8.42-.24,7.35.44,15.16,4.21,21.67,2.01,3.48,4.86,6.44,8.18,8.72-54.98,4.26-110.23,5.06-165.31,2.41Z"/>
      <path class="cls-1" d="M847.5,398.28c0,.06.22-.2.76-1.12-.02.02-.05.05-.07.07-.23.35-.46.7-.69,1.05Z"/>
    </g>
    <path class="cls-4" d="M730.21,426.16c2.16-3.66,2.97-8.04,1.52-12.5-2.68-8.29-11.92-15-20.91-11.87-24.73,8.61-49.46,17.23-74.2,25.84-8.38,2.92-14.83,11.77-11.87,20.91,2.68,8.29,11.92,15.01,20.91,11.87,3.44-1.2,6.88-2.4,10.32-3.59-1.33,1.26-2.61,2.57-3.83,3.97-5.81,6.72-7.1,17.52,0,24.04,1.79,1.65,3.99,2.92,6.36,3.76-5.19,5.49-10.39,10.98-15.58,16.48-2.24.79-4.31,2.08-5.97,3.95-8.89,9.97-17.78,19.95-26.67,29.92-6.24-2.77-13.6-1.49-18.81,3.41-5.44,5.12-11.04,10.11-16.93,14.71-.22.14-2.58,1.9-3.05,2.24-1.56,1.12-3.14,2.23-4.74,3.3-3.19,2.13-6.44,4.16-9.78,6.05-3.33,1.88-6.74,3.57-10.2,5.19-.2.09-.83.36-1.23.52-.5.19-.99.39-1.49.58-2.04.77-4.09,1.48-6.17,2.12-3.26,1.01-6.58,1.87-9.93,2.53-.84.17-1.7.29-2.55.45-1.72.17-3.43.33-5.16.42-3.15.15-6.3.14-9.45-.06-.38-.02-2.59-.23-3.54-.31-.51-.08-1.08-.16-1.29-.2-.95-.17-1.89-.35-2.83-.56-3.28-.71-6.5-1.62-9.66-2.75-.55-.2-1.1-.41-1.64-.62-.07-.04-.14-.07-.22-.11-1.49-.73-2.97-1.46-4.41-2.27-1.44-.81-2.85-1.67-4.22-2.59-.55-.37-1.09-.76-1.63-1.15,0,0,0,0,0,0-2.4-2.32-4.83-4.47-7-7-.07-.17-1.46-2.04-1.75-2.49-1.05-1.61-2.03-3.27-2.94-4.97-.92-1.7-1.76-3.43-2.57-5.18-.01-.03-.23-.54-.41-.97-.28-.75-.93-2.45-1.01-2.68-5.61-15.37-9.45-31.5-13.56-47.39.14-.05.28-.1.41-.15,5.81-2.45,10.8-7.16,13.55-12.83,7.81-2.6,12.69-12.81,10.21-20.48-3.04-9.4-11.52-13.59-20.91-11.87-14.4,2.63-28.8,5.26-43.2,7.89-1.11.2-2.16.56-3.15,1.02-4.11.09-8.16,1.63-11.32,4.84-1.9,1.93-3.85,3.81-5.9,5.59-.6.52-1.22,1.03-1.83,1.53-.25.19-1.25.98-1.75,1.34-3.97,2.84-8.14,5.38-12.49,7.59-1.21.62-2.44,1.18-3.66,1.77-.3.14-.51.25-.68.33-.05,0-.19.05-.5.17-2.28.86-4.57,1.68-6.91,2.4-2.33.71-4.69,1.33-7.07,1.86-1.32.29-2.66.51-3.98.8-.38.08-.65.14-.84.19-.07,0-.16.01-.27.02-5.1.51-10.18.75-15.31.51-1.42-.07-2.84-.19-4.26-.3-.55-.04-1.18-.11-1.4-.13-2.54-.38-5.06-.89-7.56-1.48-2.49-.59-4.96-1.28-7.4-2.07-1.36-.44-2.69-.92-4.04-1.39-.52-.18-1.36-.5-1.44-.52-4.98-2.14-9.72-4.87-14.25-7.83-1.39-.91-2.92-1.54-4.52-1.91.01-.37.03-.74.02-1.11-.42-9.35-7.47-16.83-17-17-12.97-.24-25.95-.47-38.92-.71-6.95-.13-14.43-.05-20.48,3.94-.73.48-1.42.99-2.08,1.52-5.15-.87-10.51.74-14.95,4.57-4.62,3.98-9.25,7.93-14.02,11.72-.21.17-.37.29-.49.38-.3.22-.6.45-.89.67-1.4,1.03-2.8,2.06-4.22,3.05-2.36,1.66-4.78,3.25-7.24,4.75-2.46,1.5-4.98,2.92-7.55,4.21-1.31.66-2.65,1.31-4,1.9-.2.05-1.81.65-2.33.83-2.76.96-5.56,1.78-8.4,2.42-1.12.25-2.24.48-3.37.68.24-.09-3.21.31-3.3.32-2.53.14-5.06.11-7.59-.07-.04-.03-2.05-.28-2.46-.36-1.4-.29-2.8-.64-4.17-1.06-.22-.07-3.64-1.4-3.08-1.08-.84-.4-1.68-.82-2.51-1.25-2.32-1.22-4.58-2.56-6.81-3.94-5.5-3.39-11.05-6.96-16.88-9.84.17-1.91.02-3.88-.55-5.87-2.78-9.72-10.03-17.18-18.81-21.06.02-.09.06-.18.08-.28,1.85-8.11-2.47-19.47-11.87-20.91l-32.37-4.96c-8.75-1.34-18.71,2.21-20.91,11.87-1.58,6.94,1.36,16.26,8.13,19.7,1.32.88,2.77,1.6,4.35,2.16-.39,2.28-.28,4.68.47,7.09,6.55,20.97,17.29,40.34,31.68,56.83-2.18,6-.96,12.76,3.78,17.85,4.31,4.62,8.62,9.25,12.93,13.87-1.41,4.41-1.2,9.3,1.62,13.1,54.18,73.11,137.61,119.6,227.78,129.92.75.09,1.49.16,2.24.24,3.05,3.51,7.6,5.63,12.92,6.2,68.76,7.42,138.64-4.45,201.8-32.28,57.47-25.33,108.66-65.58,147.32-115.03,22.52-28.81,40.72-59.84,54.9-93.54,2.09-4.97-.01-11.58-3.76-15.88,5.04-6.7,8.42-14.4,9.56-23.45ZM308.22,666.24c-1.25-.13-2.49-.27-3.74-.41.03,0-.86-.1-1.68-.2-.7-.1-2.79-.38-2.75-.37-1.24-.18-2.48-.37-3.72-.57-2.72-.43-5.44-.91-8.16-1.41-.23-.04-.45-.09-.68-.14,8.84,1.29,17.68,2.52,26.54,3.64-1.94-.16-3.88-.33-5.82-.53ZM402.62,672.23c-3.48.39-6.96.71-10.45,1.01-.19-.31-.39-.62-.59-.93,4.02,0,8.03-.07,12.04-.19-.33.04-.66.08-.99.12Z"/>
    <path class="cls-1" d="M465.69,732.76c.02-.24.04-.48.07-.72.37-4.1-2.16-9.21-4.98-12.02s-7.79-5.17-12.02-4.98c-4.4.2-8.96,1.64-12.02,4.98-.89.97-1.62,1.97-2.25,3-15.66-.65-32.03,3.03-46.78,5.64-12.55,2.22-20.57,3.78-33.37,3.89-2.86.03-5.73-.05-8.59-.25-1.14-.08-2.27-.19-3.41-.3-.43-.04-.72-.07-.93-.08-.07-.03-.21-.07-.46-.14-2.74-.71-5.54-1.11-8.27-1.91-1.36-.4-2.69-.87-4.03-1.31-.45-.15-.74-.24-.94-.29-.14-.09-.5-.28-1.27-.64-8.03-3.78-18.71-2.51-23.26,6.1-3.98,7.54-2.49,19.22,6.1,23.26,9.66,4.54,19.77,7.3,30.11,8.6-1.27,2.35-1.98,4.98-1.86,7.71.32,7.08,4.99,14.95,12.48,16.39,22.57,4.35,45.13,8.74,67.7,13.04,12.12,2.31,24.59,4.29,36.77,1.11,10.8-2.82,21.19-9.89,26.49-19.87,10.2-19.21.9-39.82-15.27-51.21Z"/>
    <path class="cls-1" d="M682.82,661.67c-10.93-19.34-30.39-43.47-55.13-31.25-9.64,4.76-14.6,14.95-22.73,21.55-.21.13-.47.3-.8.5-1.33.84-2.63,1.7-4,2.48-.91.51-1.85.97-2.77,1.47-.34.18-.58.32-.74.42-.06.02-.13.04-.22.07-2.49.86-4.92,1.71-7.48,2.32-.9.21-1.81.4-2.71.57.34-.09-2.03.22-2.84.27-5.82.38-11.49,3.46-14.59,8.25-7.14-2.13-16.11,1.29-19.56,7.82-4.56,8.63-1.76,17.89,6.1,23.26,17.63,12.04,37.42,21.22,57.98,26.98,18.54,5.19,42.06,9.89,59.36-1.51,21.85-14.39,21.98-42.21,10.13-63.19Z"/>
    <path class="cls-1" d="M641.58,463.12c-2.34-3.63-5.83-6.83-10.16-7.81-4.58-1.04-8.9-.48-13.1,1.71-.59.31-1.19.62-1.78.93-.37,0-.74,0-1.11.03-32.39,2.71-64.78,5.43-97.17,8.14-3.27.27-6.93,1.42-9.97,3.38-1.96-3.88-5.3-6.93-10.09-8.02-8.23-1.87-19.32,2.5-20.91,11.87-2.96,17.46-7.08,35.15-8.65,52.79-.84,9.49,1.92,19.62,9.17,26.15,6.82,6.14,16.07,8.53,25.09,7.48,15.96-1.87,31.55-8.61,46.05-15.22,13.45-6.13,26.32-13.57,38.35-22.17,12.76-9.12,24.74-19.24,35.61-30.52,1.99-.32,3.95-.97,5.87-1.98,2.24-1.17,4.47-2.34,6.71-3.52,3.68-1.93,6.73-6.23,7.81-10.16,1.12-4.07.61-9.49-1.71-13.1Z"/>
    <path class="cls-1" d="M741.84,404.5c-3-9.27-11.55-13.75-20.91-11.87-44.35,8.92-88.96,16.54-133.77,22.8-19.43,2.72-42.3,5.55-63.78,7.89-22.49,2.45-45.01,4.57-67.56,6.36-89.56,7.08-179.53,8.88-269.29,5.36-50.7-1.99-101.32-5.7-151.77-11.06-8.87-.94-17.38,8.49-17,17,.45,10.02,7.49,15.99,17,17,89.98,9.57,180.51,13.81,270.99,12.62,90.47-1.19,180.88-7.75,270.57-19.67,51.49-6.84,102.73-15.27,153.66-25.51,8.73-1.76,14.56-12.6,11.87-20.91Z"/>
    <path class="cls-2" d="M731.96,439.52c-7.93-4.19-18.73-2.25-23.26,6.1-4.28,7.89-8.56,15.78-12.83,23.67-1.23,1.08-2.39,2.32-3.46,3.71-6.96,9.02-13.92,18.04-20.87,27.06-.87.59-1.7,1.27-2.45,2.05-19.51,20.07-40.27,38.89-62.19,56.29-1.49,1.18-2.98,2.36-4.48,3.53-.45.35-.7.55-.84.66-.13.09-.38.29-.88.67-2.81,2.14-5.63,4.27-8.47,6.36-5.68,4.2-11.43,8.31-17.24,12.32-11.62,8.03-23.5,15.69-35.61,22.96-23.99,14.41-48.88,27.32-74.48,38.62-2.78,1.23-5.56,2.43-8.35,3.62-.59.24-2.85,1.18-3.33,1.38-1.76.72-3.52,1.44-5.29,2.15-6.56,2.63-13.15,5.16-19.79,7.58-13.01,4.75-26.18,9.09-39.46,13.01-30.49,9-61.62,15.76-93.09,20.23-8.84,1.26-14.45,12.95-11.87,20.91,3.13,9.68,11.44,13.22,20.91,11.87,33.57-4.78,66.59-12.26,98.9-22.14.69.03,1.39.01,2.11-.08,90.88-11.5,176.45-53.43,240.94-118.66,3.64-3.68,7.19-7.46,10.69-11.29,5.37-.32,10.2-3.41,13.94-8.27l15.31-19.89c1.55-1.23,2.98-2.71,4.25-4.43,5.76-7.85,11.52-15.69,17.28-23.54,2.78-3.61,5.56-7.22,8.34-10.83.58-.75,1.03-1.58,1.4-2.43,1.15-1.57,2.31-3.14,3.46-4.72,1.81-2.46,2.52-5.5,2.41-8.59,4.81-8.88,9.63-17.75,14.44-26.63,4.24-7.82,2.2-18.88-6.1-23.26Z"/>
    <path class="cls-2" d="M722.22,39.46c-20.12-19.61-47.19-26.85-74.49-29.01-27.28-2.16-55.25-.07-82.39,2.85-57.84,6.21-114.73,19.63-168.95,40.8-30.79,12.02-60.71,26.16-89.39,42.61-7.72,4.43-11.05,15.59-6.1,23.26,5.02,7.79,15,10.84,23.26,6.1,48.53-27.84,96.43-47.51,150.89-61.87,13.25-3.49,26.61-6.56,40.05-9.2,6.43-1.26,12.88-2.43,19.34-3.49,2.94-.48,5.88-.95,8.83-1.39,1.77-.27,3.54-.52,5.3-.77.89-.13,1.79-.25,2.68-.37-.42.06.12,0,1.65-.21,26.55-3.23,53.39-5.42,80.16-4.98,6.69.11,13.38.45,20.03,1.17-.06,0,1.67.22,2.55.32,1.11.18,3.24.52,3.57.58,3.48.62,6.95,1.38,10.37,2.3,2.89.78,5.75,1.67,8.57,2.7.33.12,2.67,1.11,2.77,1.12,1.34.62,2.68,1.27,3.99,1.96,2.62,1.39,5.04,3.02,7.55,4.6.3.19.54.34.73.45.15.13.33.29.54.48,1.51,1.32,3,2.64,4.43,4.04,6.37,6.21,17.78,6.83,24.04,0,6.16-6.71,6.8-17.41,0-24.04Z"/>
    <g>
      <path class="cls-2" d="M943.9,307.76c-8.6-21.27-25.17-36.29-46.46-44.45-42.51-16.31-87.9,2.98-119.86,31.67-19.54,17.54-35.04,39.1-50.43,60.21-5.26,7.21-1.46,19.27,6.1,23.26,8.84,4.67,17.65,1.6,23.26-6.1,11.77-16.14,21.31-29.43,35.54-44.09,3.09-3.18,6.28-6.28,9.58-9.24,1.64-1.48,3.32-2.92,5.02-4.33.66-.54,1.32-1.08,1.99-1.61.31-.24,1.33-1.02,1.77-1.35,7.34-5.39,15.17-10.05,23.45-13.84.03-.02.5-.21.9-.38.61-.23,1.68-.64,1.88-.72,2.05-.76,4.13-1.46,6.23-2.09,4.03-1.21,8.16-2.19,12.33-2.83-.19.09,3.65-.3,4.32-.33,1.81-.1,3.62-.13,5.44-.11,2.07.02,4.14.12,6.21.3.2.02.87.09,1.43.15.78.13,2.25.36,2.49.41,4.06.78,7.96,1.97,11.88,3.27.25.08.87.33,1.24.48.35.16.71.32,1.06.49,2.07.99,4.09,2.08,6.05,3.28,1.46.9,2.92,1.85,4.3,2.88.19.25,2.79,2.52,3.16,2.88,1.36,1.31,2.57,2.73,3.83,4.13.67.97,1.33,1.94,1.96,2.94,1.14,1.82,2.11,3.72,3.09,5.63.08.16.19.41.29.66-.08-.22-.17-.47-.29-.8.11.31.23.62.34.93.16.41.28.76.23.62.22.6.44,1.2.63,1.81.66,2.03,1.22,4.09,1.66,6.18.11.54.21,1.08.31,1.62.04.3.1.86.15,1.57.14,2.11.17,4.22.07,6.33-.03.59-.08,1.18-.13,1.77.06-.61.07-.51,0,.03-.03.33-.06.66-.08.99.03-.43.06-.75.08-.98-.04.31-.12.76-.23,1.3-.43,2.07-1.08,4.03-1.67,6.05-.03.09-.06.19-.1.29.07-.14.15-.29.24-.46-.09.16-.17.33-.25.49-.27.66-.74,1.49-.39.76-.43.84-.85,1.68-1.32,2.51-4.36,7.75-2.11,18.92,6.1,23.26,8.04,4.25,18.6,2.18,23.26-6.1,10.16-18.04,11.1-40.2,3.37-59.33Z"/>
      <path class="cls-2" d="M911.95,318.92c.16.44.25.67.28.75-.08-.21-.15-.41-.23-.62-.02-.04-.03-.09-.05-.13Z"/>
      <path class="cls-2" d="M912.9,346.63c-.19.37-.32.62-.4.79.13-.25.26-.51.39-.76,0-.01,0-.02.01-.03Z"/>
      <path class="cls-2" d="M914.91,338.94s0,.03,0,.04c0,0,0,0,0-.01,0-.01,0-.02,0-.03Z"/>
    </g>
  </g>
  <g id="Layer_1-2" data-name="Layer 1">
    <g>
      <g>
        <path class="cls-3" d="M687.62,695.83c-.22,1.05-.11.62,0,0h0Z"/>
        <g>
          <path class="cls-3" d="M717.95,73.04s0-.01,0-.02h0c0,1.05.03,1.48.06,1.54-.03-.51-.05-1.01-.05-1.52Z"/>
          <path class="cls-3" d="M654.02,194.55c.24-.43.41-.75.52-.97-.17.32-.34.64-.52.96,0,0,0,0,0,.01Z"/>
          <path class="cls-3" d="M885.02,417.21c19.46-6.98,38.01-16.07,53.68-30.03,23.69-21.12,38.09-53.17,30.84-84.94-6.84-29.97-32.03-53.1-60.27-63.09-32.07-11.35-68.21-3.64-97.69,11.31-28.01,14.2-50.95,36.22-72.4,58.98-22.27-39.05-53.24-72.44-89.06-99.5.85-2,1.4-4.21,1.6-6.57.03-.32.05-.57.06-.78.02-.08.04-.16.06-.25.33-1.34.57-2.68.95-4.01.36-1.28.81-2.52,1.23-3.77-.04.07-.07.13-.11.21.04-.07.08-.15.12-.22,0-.03.02-.06.03-.09.24-.73,1.05-1.97.49-.87,1.07-2.01,2.07-4.03,3.31-5.96.62-.96,1.34-1.87,1.94-2.84.08-.11.15-.2.21-.28.33-.4.65-.81.99-1.21,3.39-4.01,7.16-7.7,11.1-11.16,2.15-1.89,4.37-3.71,6.62-5.49.07-.06.14-.1.22-.17,1.58-1.18,3.16-2.35,4.76-3.5,20.2-14.52,40.82-27.42,55.45-48.1,14.55-20.58,18.04-49.24,3.26-70.75-13.05-19.01-34.48-29.49-56.29-35.13-23.32-6.02-48.25-7.61-72.24-8.57-24.88-1-49.83-.22-74.6,2.25-50.59,5.04-100.43,16.46-147.9,34.74-54.31,20.91-104.69,49.7-150.13,86.06-1.24.99-2.23,2.22-2.99,3.58-6.19,1.39-12.35,2.92-18.47,4.6-67.16,18.39-128.7,55.75-169.12,113.28C11.95,300-4.74,370.44,1.15,437.17c6.09,68.97,35.7,132.68,82.61,183.41,45.63,49.35,106.27,85.27,171.15,102.54,3.13.83,6.27,1.61,9.42,2.36.5,1.51,1.18,2.9,2.05,4.19.58,1.69,1.45,3.21,2.66,4.53.39.6.83,1.14,1.3,1.66.24,2.19.97,4.36,2.27,6.37,26.02,40.11,66.29,69.75,112.12,83.29,42.31,12.51,116.22,17.55,125.18-40.67,4.18-27.13-7.33-50.02-22.76-70.81,13.09-4.27,26.05-9.14,38.8-14.57.63,1.01,1.38,1.98,2.25,2.89,16.97,17.62,35.28,34.95,57.02,46.56,22.92,12.24,49.08,18.17,74.85,13.05,21.73-4.32,42.7-18.68,53.37-38.27,12.43-22.83,9.88-49.37-1.3-72.1-9.82-19.96-26.8-35.08-44.86-47.84,1.41-1.46,2.81-2.92,4.19-4.41,19.83-21.25,37.05-45.18,50.54-70.94,15.31,21.34,32.63,41.03,53.94,56.79,28.02,20.72,63.39,31.91,98.17,26.95,28.99-4.14,57.17-22.31,71.2-48.3,16.42-30.41,11.02-66.9-6.85-95.42-13.44-21.45-32.63-37.46-53.47-51.2ZM322.54,108.15c20.5-12.16,41.82-22.97,63.76-32.3.56-.23,1.57-.66,1.9-.79,1.27-.52,2.53-1.04,3.8-1.55,2.54-1.03,5.08-2.03,7.64-3.02,6.13-2.37,12.3-4.63,18.51-6.78,11.38-3.94,22.9-7.51,34.51-10.7,22.73-6.24,45.8-10.9,69.12-14.3.43-.06.75-.11,1.02-.15.26-.03.57-.07.97-.12,1.63-.2,3.26-.41,4.89-.61,2.72-.32,5.44-.63,8.16-.91,5.99-.62,11.99-1.15,17.99-1.57,12.01-.85,24.05-1.3,36.08-1.34,12.04-.04,24.08.33,36.09,1.11,6.01.39,12.01.89,18,1.49,2.72.27,5.45.57,8.17.88,1.36.16,2.72.32,4.08.49.61.08,1.23.15,1.84.23.1.01.18.03.29.04,9.75,1.54,19.4,3.58,28.73,6.87.75.26,5.66,2.29,4.48,1.71,1.64.75,3.27,1.51,4.86,2.34,2.28,1.19,4.51,2.49,6.66,3.9.7.46,1.38.97,2.09,1.43.05.04.08.06.12.09.44.37.89.73,1.32,1.11,1.53,1.35,2.99,2.77,4.35,4.29.65.72,2.83,3.93.39.31.45.67.93,1.31,1.36,1.99.66,1.01,1.27,2.05,1.84,3.12.04.08.3.61.55,1.13.24.64.56,1.46.6,1.57.52,1.62.88,3.26,1.25,4.91,0-.05,0-.09,0-.15,0,.05,0,.11,0,.16.14.63.1,1.62.05,1.52.05.87.1,1.74.09,2.62,0,.02-.02.65-.05,1.31-.11.6-.32,2.45-.35,2.55-.42,1.9-1,3.75-1.62,5.58.44-1.34-.73,1.82-.99,2.33-.76,1.52-1.59,2.99-2.47,4.45-.64,1.05-1.3,2.08-1.99,3.1-.52.76-1.05,1.51-1.6,2.26-.08.1-.15.19-.24.3-1.99,2.34-4.01,4.65-6.16,6.84-4.1,4.18-8.51,8.07-13.12,11.68-.43.31-2.22,1.66-2.39,1.78-1.23.9-2.48,1.78-3.73,2.65-2.4,1.66-4.83,3.28-7.24,4.92-5.06,3.44-10.09,6.94-14.96,10.63-18.44,13.99-34.53,30.23-40.87,51.98-2.56-1.58-5.13-3.15-7.72-4.67-56.44-33.22-120.49-53.66-185.17-62.83-39.36-5.58-79.54-7.67-119.34-4.99,4.77-3.04,9.59-6.01,14.46-8.9ZM477.01,775.35c-.04.96-.14,1.9-.21,2.85.31-4.18-.11.34-.27,1.1-.4,1.84-1,3.61-1.52,5.42-.03.12-.06.22-.09.32-.02.04-.05.07-.07.12-.6.98-1.05,2.06-1.65,3.05-.21.35-.44.67-.66,1.01-.03-.04-1.32,1.67-1.77,2.13-.2.2-2.19,1.88-2.08,1.89-.54.36-1.09.71-1.64,1.04-.9.54-1.83.99-2.75,1.5-.32.17-.56.31-.76.43-.24.05-.56.13-.99.24-2.05.55-4.05,1.22-6.13,1.68-1.23.27-2.48.46-3.71.69-.97.1-1.93.2-2.9.27-9.71.76-19.55.4-29.22-.66.05,0-1.59-.2-2.47-.31-.9-.14-2.1-.32-2.06-.31-2-.33-4-.69-5.99-1.08-5.23-1.03-10.41-2.3-15.53-3.79-4.63-1.35-9.21-2.88-13.73-4.59-1.48-.56-2.96-1.14-4.43-1.74-.31-.15-2.53-1.11-2.77-1.22-1.39-.63-2.77-1.28-4.14-1.94-8.69-4.21-17.06-9.09-25-14.59-1.04-.72-2.08-1.46-3.11-2.2-.24-.17-1.48-1.09-2.25-1.66-.61-.49-2.27-1.78-2.18-1.7-1.18-.96-2.36-1.93-3.52-2.92-4.26-3.62-8.35-7.43-12.25-11.42-3.91-4-7.53-8.23-11.12-12.52-.13-.15-.42-.52-.65-.82-.64-.85-1.28-1.71-1.91-2.57,48.24,5.62,97.57,2.11,144.81-9.17.6,1.02,1.29,2.01,2.07,2.97,1.66,2.03,3.32,4.06,4.94,6.13.27.36.77,1.01.87,1.15.84,1.15,1.69,2.29,2.52,3.45,3.44,4.84,6.63,9.88,9.3,15.2.41.81.79,1.64,1.18,2.46.18.41.44,1.01.51,1.19.91,2.58,1.8,5.15,2.44,7.81.22.92.38,1.86.6,2.78.03.14.07.27.1.39,0,.02,0,.03,0,.05.11,2.64.34,5.24.22,7.88ZM669.67,650c1.72,1.82,3.35,3.71,4.98,5.62.11.13.47.6.74.95.71.97,1.4,1.94,2.07,2.93,2.42,3.62,4.6,7.45,6.38,11.43.16.4.44,1.1.5,1.31.42,1.3.9,2.58,1.3,3.89.72,2.36,1.2,4.74,1.78,7.13.08.32.14.58.2.8,0,.09,0,.18.01.29.07,1.07.19,2.15.24,3.22.12,2.43.03,4.82-.1,7.25-.01.23-.08.65-.15,1.01.04-.19.09-.43.15-.73-.22,1.06-.4,2.12-.65,3.17-.25,1.05-.54,2.1-.86,3.14-.1.34-.94,2.51-.94,2.68-.59,1.25-1.23,2.48-1.92,3.67-.59,1.02-1.23,2.02-1.89,3-.1.15-.38.54-.65.92-.53.62-1.51,1.81-1.5,1.8-.64.71-1.29,1.4-1.96,2.07-1.4,1.42-2.89,2.75-4.43,4.02-.08-.02-2.75,1.9-3.32,2.26-1.63,1.03-3.3,1.98-5.01,2.87-.86.44-1.73.84-2.6,1.27-.11.05-.21.1-.31.15-.09.02-.18.05-.3.08-2.31.67-4.54,1.57-6.88,2.17-1.95.5-3.94.93-5.94,1.24.71-.16-4.3.28-4.79.3-2.3.09-4.61.07-6.9-.05-1.15-.06-2.3-.17-3.45-.24-.61-.04-.98-.05-1.22-.05-.19-.05-.53-.12-1.13-.23-4.86-.89-9.64-2.03-14.35-3.57-2.39-.78-4.77-1.64-7.09-2.6-.26-.13-.6-.28-1.04-.49-1.58-.75-3.15-1.5-4.71-2.3-5.15-2.65-10.1-5.68-14.87-8.96-5.21-3.58-6.4-4.5-11.68-8.99-6.72-5.72-13.09-11.83-19.29-18.1,30.08-15.62,58.48-34.59,83.99-56.69,2.48,1.65,4.95,3.31,7.37,5.04,1.71,1.21,3.4,2.45,5.07,3.71.35.27.79.61.91.7,1.3,1.06,2.61,2.11,3.89,3.2,3.61,3.07,7.07,6.31,10.33,9.75ZM719.11,421.22c-.17,2.26-.37,4.52-.6,6.78-.12,1.13-.25,2.26-.37,3.39-.03.24-.13,1.09-.18,1.52-.58,4.18-1.3,8.35-2.12,12.5-1.75,8.95-3.99,17.8-6.69,26.51-1.35,4.36-2.82,8.68-4.39,12.96-.79,2.14-1.6,4.27-2.45,6.39-.32.79-.64,1.59-.96,2.38-.17.41-.21.52-.2.52-.08.18-.21.47-.41.93-7.12,16.1-15.69,31.48-25.65,46-2.43,3.54-4.93,7.04-7.51,10.47-.59.78-1.18,1.56-1.77,2.34-.14.17-.29.36-.48.6-1.34,1.68-2.68,3.36-4.04,5.02-5.47,6.65-11.2,13.08-17.16,19.28-11.97,12.47-24.88,23.96-38.4,34.71-.35.28-.61.49-.82.65-.72.55-1.43,1.1-2.15,1.64-1.72,1.3-3.46,2.6-5.2,3.87-3.49,2.55-7.02,5.05-10.58,7.5-7.14,4.9-14.44,9.59-21.86,14.06-15.6,9.4-31.78,17.84-48.41,25.26-1.98.88-3.96,1.75-5.95,2.6-.39.17-.85.36-.98.41-1.05.43-2.11.87-3.16,1.3-4.22,1.71-8.47,3.36-12.75,4.94-8.55,3.16-17.19,6.06-25.92,8.68-17.43,5.24-35.18,9.39-53.13,12.38-10.02,1.66-13.58,2.13-24.17,3.13-9.02.85-18.08,1.4-27.14,1.64-18.39.48-36.81-.34-55.07-2.52-.6-.07-3.73-.49-3.95-.51-1.95-.28-3.89-.57-5.83-.88-4.76-.76-9.5-1.62-14.23-2.57-8.07-1.63-16.08-3.54-24.02-5.75-7.62-2.12-15.16-4.5-22.61-7.15-3.5-1.24-6.97-2.53-10.43-3.88-1.84-.72-3.67-1.47-5.51-2.21-.2-.08-.6-.25-.94-.39-.84-.36-1.68-.72-2.51-1.09-14.5-6.36-28.56-13.7-42.07-21.97-6.75-4.13-13.35-8.49-19.8-13.07-3.02-2.14-6-4.35-8.95-6.58-.11-.08-.2-.15-.29-.22-.71-.55-1.41-1.11-2.11-1.66-1.74-1.38-3.46-2.78-5.17-4.19-12.14-10.04-23.58-20.93-34.17-32.59-5.26-5.79-10.26-11.79-15.11-17.92-.04-.05-.07-.09-.12-.16-.43-.59-.89-1.17-1.33-1.76-1.17-1.57-2.34-3.15-3.48-4.75-2.43-3.39-4.79-6.82-7.09-10.31-8.64-13.13-16.25-26.94-22.68-41.28-.55-1.23-1.09-2.47-1.62-3.71-.03-.12-1.27-3.1-1.56-3.83-1.55-3.92-3-7.88-4.37-11.86-2.57-7.51-4.8-15.13-6.71-22.83-1.91-7.71-3.49-15.5-4.74-23.34-.27-1.72-.52-3.44-.78-5.16.56,3.69-.21-1.78-.34-2.87-.48-4.19-.87-8.4-1.16-12.61-1.12-15.85-.93-31.79.55-47.61.18-1.98.39-3.95.61-5.92.08-.73.34-2.74.4-3.27.54-3.79,1.14-7.56,1.83-11.32,1.42-7.79,3.17-15.51,5.23-23.16,2.06-7.62,4.45-15.16,7.16-22.58,1.27-3.47,2.61-6.91,4.01-10.33,0,0,0-.01,0-.02.4-.9.79-1.81,1.19-2.7.9-2.02,1.83-4.03,2.78-6.03,6.76-14.21,14.8-27.81,24.08-40.52.58-.8,1.17-1.59,1.76-2.37.14-.19.71-.94,1.06-1.39.16-.21.3-.39.34-.43.62-.77,1.23-1.54,1.85-2.31,2.65-3.26,5.38-6.44,8.2-9.56,5.4-5.96,11.1-11.65,17.06-17.06,2.8-2.54,5.65-5.02,8.55-7.43,1.55-1.28,3.11-2.54,4.68-3.79.17-.14.32-.26.46-.37.88-.67,1.77-1.34,2.66-2,6.42-4.77,13.06-9.24,19.88-13.43,6.82-4.19,13.82-8.08,20.96-11.69,3.35-1.7,6.74-3.33,10.16-4.9,1.82-.84,3.66-1.66,5.5-2.47.61-.27,1.22-.53,1.84-.79.31-.13,1.11-.46,1.75-.72,15.01-6.11,30.47-11.1,46.18-15.1,7.93-2.02,15.92-3.79,23.96-5.32,3.78-.72,7.58-1.39,11.38-2.01,2.03-.33,4.06-.65,6.1-.95,1.02-.15,2.04-.3,3.06-.44.25-.04.46-.07.66-.1.06,0,.12-.01.19-.02,32.8-3.97,65.78-4.96,98.76-2.85,7.93.51,15.86,1.18,23.76,2.02,3.87.41,7.74.86,11.61,1.36.35.04.69.09,1.04.13.08.01.17.02.25.03.29.04.59.08.88.11-.18-.02-.33-.04-.47-.06.12.02.23.03.31.04,2.18.31,4.36.62,6.53.95,15.54,2.35,30.98,5.36,46.26,9.03,15.55,3.74,30.93,8.17,46.07,13.32,7.43,2.53,14.8,5.23,22.1,8.12,1.59.63,3.18,1.27,4.77,1.91.91.37,1.81.75,2.71,1.12.07.03.11.05.17.07,3.75,1.62,7.49,3.25,11.2,4.95,14.1,6.46,27.87,13.65,41.18,21.62,6.6,3.95,13.08,8.08,19.44,12.41,2.97,2.02,5.9,4.08,8.81,6.19,1.35.98,2.7,1.97,4.04,2.97.77.57,1.52,1.15,2.29,1.72.26.19.47.35.64.48.13.1.28.22.45.36,11.93,9.4,23.29,19.5,33.87,30.4,4.27,4.41,8.41,8.95,12.42,13.6.37.97.85,1.92,1.47,2.82,18.95,27.85,29.91,54.91,35.72,88.48.22,1.28.65,2.49,1.24,3.62.07.6.14,1.2.21,1.8.48,4.49.82,9,1.02,13.52.4,9.05.25,18.12-.43,27.15ZM921.21,529.7c-.03.49-.04.79-.04.97-.04.19-.1.45-.17.83-.67,3.46-1.51,6.85-2.69,10.17-.45,1.26-1.79,3.77-.42,1.19-.66,1.25-1.22,2.55-1.89,3.8-1.46,2.71-3.21,5.17-4.88,7.74-.29.35-.57.7-.86,1.04-.92,1.08-1.87,2.14-2.85,3.17-2.14,2.25-4.43,4.31-6.78,6.33-.05.04-.19.15-.35.28-.45.33-1.14.84-1.34.98-1.18.83-2.37,1.63-3.59,2.4-2.64,1.67-5.38,3.19-8.19,4.56-.83.41-2.72,1.21-2.3,1.07-.98.38-1.97.76-2.96,1.11-2.95,1.03-5.96,1.9-9,2.6-1.4.32-2.81.61-4.23.86-.51.09-1.02.17-1.53.25-.24.02-.52.04-.87.07-3.66.28-7.3.46-10.97.38-1.69-.04-3.37-.12-5.05-.24-.84-.06-1.68-.14-2.52-.21-.04,0-.63-.07-1.1-.11-.46-.06-1.03-.14-1.07-.15-.83-.14-1.67-.28-2.5-.44-1.94-.36-3.87-.77-5.79-1.23-3.3-.79-6.57-1.74-9.79-2.81-1.62-.54-3.22-1.11-4.81-1.71-.88-.33-1.76-.68-2.63-1.04-.29-.13-.82-.36-1.19-.54-6.47-3.02-12.72-6.42-18.7-10.33-1.67-1.09-3.31-2.21-4.93-3.37-.69-.49-1.38-1-2.06-1.5-.28-.2-.46-.33-.58-.41-.01,0-.02-.02-.03-.03-3.33-2.61-6.56-5.38-9.68-8.24-5.84-5.34-11.35-11.04-16.56-17-2.61-2.99-5.15-6.04-7.63-9.14-.53-.67-1.06-1.33-1.58-2.01-.04-.05-.06-.08-.09-.12-.09-.12-.2-.27-.37-.49-1.37-1.82-2.73-3.64-4.06-5.48-4.84-6.67-9.44-13.51-13.91-20.42-.15-.24-.33-.46-.49-.69,11.59-32.17,17.28-66.34,15.21-101.12-.82-13.79-2.8-27.54-6.03-40.98,1.18-.71,2.29-1.58,3.28-2.65,9.98-10.83,19.99-21.67,30.6-31.9,5.29-5.1,10.72-10.04,16.37-14.74,1.35-1.12,2.72-2.23,4.09-3.33.26-.21.43-.34.55-.44.53-.4,1.05-.8,1.58-1.19,3.06-2.28,6.18-4.47,9.36-6.57,5.98-3.93,12.2-7.5,18.66-10.59,1.55-.74,3.1-1.46,4.68-2.14,1.81-.78.24-.08-.11.06.8-.32,1.59-.63,2.39-.93,3.46-1.32,6.98-2.5,10.54-3.52,3.27-.94,6.58-1.75,9.91-2.42,1.66-.33,3.33-.6,5-.88-2.75.46,2.15-.21,3.03-.29,3.36-.28,6.72-.4,10.09-.34,1.68.03,3.36.1,5.04.21.76.05,4.51.49,3.74.34,2.92.47,5.82,1.07,8.67,1.84,1.37.37,2.73.78,4.08,1.23.68.22,1.35.46,2.02.71.13.05.61.23,1.06.4.62.29,2.35,1.06,2.75,1.25,1.28.63,2.55,1.3,3.79,1.99,2.71,1.52,5.29,3.21,7.83,4.99.05.04.19.14.36.27.43.35,1.07.88,1.25,1.03,1.08.92,2.14,1.87,3.18,2.85,2.23,2.11,4.29,4.37,6.29,6.71.15.18.27.31.37.43.09.14.21.33.39.59.78,1.16,1.58,2.31,2.32,3.5.73,1.18,1.43,2.39,2.1,3.62.33.61.65,1.23.96,1.86.05.11.22.45.4.82.2.56.95,2.37,1.1,2.8.45,1.31.85,2.64,1.21,3.98.36,1.34.67,2.7.93,4.07.08.39.14.79.21,1.18,0,.15.02.32.03.53.14,2.97.14,5.87,0,8.84-.02.4-.02.67-.02.85-.03.15-.07.33-.11.55-.33,1.71-.67,3.41-1.11,5.09-.38,1.44-.8,2.87-1.27,4.29-.14.41-.74,2.03-1.01,2.8-.33.69-1.11,2.4-1.32,2.81-.79,1.57-1.64,3.12-2.54,4.64-1.39,2.34-2.9,4.59-4.5,6.79.25-.38-1.24,1.55-1.74,2.12-1.16,1.36-2.37,2.68-3.61,3.97-2.48,2.58-5.1,5.03-7.85,7.33-.5.42-1.01.83-1.51,1.24-.13.1-.28.21-.46.33-1.54,1.1-3.09,2.18-4.67,3.21-6.81,4.45-14.07,8.23-21.53,11.45-1.8.78-.32.13.04-.02-1.08.44-2.16.87-3.25,1.29-1.91.74-3.82,1.45-5.75,2.14-3.86,1.38-7.76,2.66-11.67,3.88-8.12,2.53-16.32,4.78-24.52,7.02-13.99,3.83-16.81,23.81-4.06,31.07,12.69,7.22,25.39,14.47,37.42,22.75,2.82,1.94,5.6,3.93,8.33,6,.02.02.04.03.06.04.63.5,1.25,1,1.88,1.5,1.54,1.25,3.07,2.53,4.57,3.83,5.53,4.81,10.77,9.98,15.48,15.6.35.41,1.67,2.11,1.85,2.32.81,1.1,1.61,2.2,2.37,3.33,1.99,2.93,3.84,5.96,5.53,9.07.78,1.43,1.53,2.89,2.24,4.35.36.73.7,1.47,1.04,2.21.02.04.23.54.41.95.16.42.36.94.38.99.37,1.02.75,2.03,1.09,3.05.6,1.78,1.15,3.58,1.64,5.4.42,1.55.79,3.11,1.12,4.68.1.47.44,2.35.6,3.18.06.73.28,2.84.32,3.36.12,1.85.17,3.7.15,5.56-.02,1.59-.13,3.17-.22,4.76Z"/>
        </g>
      </g>
      <path class="cls-3" d="M416.62,154.57c-.13-.02-.27-.04-.41-.05-.08-.01-.17-.02-.25-.03-.73-.09-1.21-.15.66.09Z"/>
    </g>
    <ellipse class="cls-6" cx="352.44" cy="411.77" rx="83" ry="96.5"/>
    <circle class="cls-5" cx="363.94" cy="390.77" r="40"/>
    <circle class="cls-5" cx="328.44" cy="458.27" r="12.5"/>
    <ellipse class="cls-6" cx="149.44" cy="411.77" rx="83" ry="96.5"/>
    <circle class="cls-5" cx="160.94" cy="390.77" r="40"/>
    <circle class="cls-5" cx="125.44" cy="458.27" r="12.5"/>
    <path class="cls-3" d="M254.5,527.56h-29.36c-8.89,0-17.41,7.82-17,17,.41,9.21,7.47,17,17,17h29.36c8.89,0,17.41-7.82,17-17-.41-9.21-7.47-17-17-17Z"/>
    <g>
      <path class="cls-3" d="M502.71,550.45c.59.05.8.04,0,0h0Z"/>
      <path class="cls-3" d="M672.02,448.92c-8.46-23.85-36.55-18.09-56.15-16.97-44.2,2.52-88.4,5.04-132.6,7.57-1.42-.31-2.9-.43-4.3-.48-.28,0-.56,0-.84.01-1.53.11-3.52.33-5.02.68-1.76.42-3.59,1.27-5.17,2.09-.25.13-.48.27-.72.43-1.27.83-2.71,1.94-3.83,2.98-2.71,2.52-4.68,6.26-5.68,9.79-.15.55-.28,1.12-.39,1.71-.82,1.96-1.36,4.12-1.61,6.44-2.05,19.36-4.29,38.71-6.12,58.09-1.85,19.6,2.16,38.61,18.37,51.13,28.09,21.7,68.99,11.49,97.96-2.61,32.78-15.95,58.89-42.64,82.33-69.96,11.54-13.44,30.78-31.09,23.75-50.9ZM628.33,470.98c-10.28,12.12-20.79,24.08-32.2,35.16-5.77,5.6-11.78,10.92-18.03,15.97-.25.2-.41.33-.52.43-.47.35-.93.71-1.4,1.05-1.59,1.18-3.19,2.34-4.81,3.47-3.01,2.1-6.09,4.12-9.23,6.03-3.13,1.91-6.33,3.72-9.58,5.42-1.5.78-3.01,1.54-4.53,2.27-1.02.49-2.04.95-3.06,1.43-.4.19-.93.41-1.2.53-6.8,2.77-13.85,4.96-21.03,6.49-1.65.35-3.3.66-4.96.94-.49.08-.98.15-1.47.23-.06,0-.11,0-.18,0-3.2.12-6.33.43-9.54.33-1.61-.05-3.21-.26-4.81-.32.4.01.71.03.93.04-.48-.04-1.2-.11-1.83-.23-2.67-.52-5.24-1.29-7.81-2.17.71.22-1.44-.65-2.45-1.23-.56-.32-1.09-.68-1.65-.99-.11-.06-.2-.11-.3-.16-.81-.88-1.76-1.82-2.66-2.63-.43-.73-.93-1.45-1.37-2.16-.03-.04-.16-.33-.28-.61-.13-.52-.57-1.91-.62-2.1-.18-.68-.32-1.36-.47-2.05-.04-.27-.09-.63-.1-.99-.21-4.35-.02-8.66.37-13,1.48-16.32,3.34-32.61,5.12-48.91,32.48-1.85,64.96-3.71,97.44-5.56,15.74-.9,31.48-1.91,47.23-2.73-1.68,2.01-3.3,4.08-4.98,6.06Z"/>
    </g>
  </g>
</svg>