<?xml version="1.0" encoding="UTF-8"?>
<svg id="Layer_2" data-name="Layer 2" xmlns="http://www.w3.org/2000/svg" viewBox="0 0 679.48 862.3">
  <defs>
    <style>
      .cls-1 {
        fill: #000;
      }

      .cls-1, .cls-2, .cls-3 {
        stroke-width: 0px;
      }

      .cls-2 {
        fill: #23c2fc;
      }

      .cls-3 {
        fill: #fff;
      }
    </style>
  </defs>
  <g id="Layer_2-2" data-name="Layer 2">
    <path class="cls-2" d="M619.76,229.74c-19.59-23.81-42.22-45.92-67.45-63.74-15.55-10.98-36.23-16.07-53.55-5.89-11.83,6.95-18.44,18.98-22.61,31.63l-55.06,63.24c-5.08,5.83-7.51,14.02-5.94,21.39-.06.04-.11.09-.15.15-.09.13-.18.27-.28.4-.04.06-.09.12-.13.18-.02.03-.02.03,0,0-.01.01-.02.03-.03.04-.03.03-.05.06-.08.1-.2.25-.41.49-.62.72-.13.14-.28.25-.41.38l-.1.08s0,.01-.01.02c-.29.27-.57.56-.88.8-.21.16-.18.54,0,.71.22.2.49.17.71,0,.41-.32.8-.68,1.17-1.05l1.19-1c.97,3.28,2.77,6.36,5.57,8.92,8.47,7.78,23.57,9.48,31.82,0,.57-.66,1.14-1.31,1.72-1.97,5.13,3.12,11.33,4.37,17.27,2.45,21.92-7.08,44.38-12.39,67.18-15.73.46-.07,3.79-.51,2.35-.34.95-.12,1.97-.24,1.98-.24,2.82-.34,5.64-.65,8.46-.93,5.65-.57,11.31-1.01,16.98-1.34,11.65-.68,23.33-.83,35-.53,8.94.23,17.19-5.84,20.56-13.83,3.74-8.86,1.26-17.39-4.65-24.58Z"/>
    <path class="cls-2" d="M652.58,710.7l-5.81-37.16c-1.03-2.44-2.06-4.88-3.09-7.31,2.11-37.48,4.22-74.97,6.33-112.45-.6-4.47-1.2-8.95-1.8-13.42-.86-3.64-2.19-7-3.94-10.12,3.29-20.41,6.58-40.83,9.87-61.24,2.1-6.71,2.41-13.42.9-20.14-.3-6.72-2.3-12.98-5.99-18.78-.84-1.43-1.79-2.85-2.83-4.24.37-3.87.67-7.75.91-11.63.37-6.02-1.85-11.93-5.6-16.76,1.73-16.13,3.46-32.27,5.19-48.4.52-4.82-1.76-11.18-4.89-15.84,3.93-8.36,8.22-16.54,12.87-24.52,7.38-12.66,3.34-31.24-10.05-38.31-13.4-7.08-30.43-3.48-38.31,10.05-.07.12-.14.25-.21.37l-97.28,4.75c-13.71.67-26.96,10.97-27.96,25.15-7.07.55-14.14,1.07-21.21,1.61-23.86,1.83-47.72,3.66-71.58,5.5-14.57,1.12-28.71,12.08-28,28,.47,10.48,6.97,21.37,16.62,25.9-5.24,8.17-8.03,17.28-8.54,27.62-2.49,51.03-4.98,102.05-7.47,153.08-1.59-41.14-3.19-82.28-4.78-123.41-1.26-32.52-2.52-65.05-3.78-97.57-.34-8.89-2.44-16.98-6.34-24.13,5.23-.36,10.45-.77,15.67-1.24,11.69-1.04,23.08-9.6,22.5-22.5-.14-3.2-1.01-6.48-2.45-9.52,34.19-40.48,68.39-80.97,102.58-121.45,5.98-7.08,8.41-15.68,4.65-24.58-3.47-8.22-11.52-13.75-20.56-13.83l-188.36-1.59c-28.69-.24-59.57-3.17-87.57,4.65-4.09-1.49-8.66-1.79-13.28-.5-6.78,1.89-13.36,4.41-19.67,7.51-.07.01-.13.04-.19.1-21.19,10.44-39.17,27.3-50.37,48.21-2.63,4.91-3.41,10.77-2.35,16.19-19.39,20.85-38.77,41.69-58.16,62.54-8.02,8.62-9.18,23.4,0,31.82,1,.92,2.07,1.74,3.21,2.47-4.27,1.72-8.14,4.13-11.57,7.28-11.88,9.18-21.29,24.32-20.1,40.05,4.59,60.76,9.17,121.51,13.76,182.27-.65,3.09-1.11,6.31-1.38,9.68-1.38,17.29-2.76,34.58-4.14,51.87-.42,5.25.67,10.97,2.7,16.48-3.26,9.66-4.25,19.59-1.36,30.08.75,2.73,1.83,5.51,3.16,8.24-6.32,24.47-7.04,50.92-1.64,75.74-6.31,8.68-10.56,20.11-10.1,30.36.59,13.19,4.92,26.87,14.94,36.06,8.77,8.05,19.31,13.49,31.12,14.68.95.26,1.9.48,2.87.65,60.98,10.21,121.96,20.42,182.94,30.63,6.78,2.13,13.56,2.43,20.34.91,5.04-.23,9.81-1.4,14.34-3.51,1.11,1.59,2.3,3.12,3.58,4.56,3.11,3.37,7,6.15,10.99,8.44,4.06,1.71,8.12,3.43,12.18,5.14.09.04.18.08.28.1.16.04.33.07.49.1,4.52.61,9.04,1.21,13.56,1.82.1.01.2.02.3.01.1,0,.2,0,.31-.02,4.52-.61,9.04-1.21,13.56-1.82.35-.06.66-.15,1-.27.29-.11,9.19-3.08,12.9-5.57,8.75-5.86,9.19-6.3,13.2-11.53.68.48,1.37.95,2.07,1.41.02-.14.03-.27.05-.41-.38-1.41-.48-2.98-.19-4.68-1.14-2.3-1.47-5.06-1.06-7.8.61-4.04,1.82-7.94,3.45-11.68-.25-3.43-.28-6.9-.2-10.35-4.79.91-9.92-.5-13.44-4.13-5.07-5.24-4.07-13.21-1.75-19.44.4-1.07.84-2.12,1.28-3.17.29-.7.51-1.24.69-1.67.08-.22.18-.47.27-.69.66-2.26,1.37-4.46,1.88-6.76,1.19-5.35,1.66-9.52,2.21-13.9,1.51-11.92,2.96-23.73,7.97-34.78,5.19-11.44,14.72-19.19,26.42-23.3,6.56-2.31,13.24,3.7,13.29,10.12.13,17.93-7.48,34-12.89,50.7-1.66,5.11-2.77,10.37-3.51,15.71,0,.08.02.15.03.23.1,1.2-.08,2.37-.47,3.46-1.11,10.37-.98,20.97-.83,31.28,0,.5.01.98.02,1.45,2.15,1.19,3.93,3.23,4.86,6.2,1.19,3.8,1.53,8.12,1.05,12.43,2.29,2.3,5.18,4.4,8.23,6.16,6.59,3.8,13.57,6.34,20.84,7.13,3.52-.24,7.09-.13,10.59-.11,4.63.03,8.67,3.17,10.02,7.42,4.93-2.14,9.57-5.01,13.66-8.51,17.42-.1,34.65-2.13,51.9-4.69,31.27-4.65,61.58-15.14,89.87-29.21,3.18.1,6.36-.2,9.54-.91,6.72-.3,12.98-2.3,18.78-5.99,5.89-3.17,10.61-7.51,14.17-13.01,4.46-4.88,7.48-10.6,9.04-17.17.6-4.47,1.2-8.95,1.8-13.42-.03-9.01-2.28-17.41-6.74-25.21ZM107.24,287.52c-7.65-1.13-15.28-2.4-22.89-3.82-1.33-.36-2.67-.66-4-.91.71-.76,1.42-1.53,2.13-2.29,9.93,2.74,19.93,5.29,29.97,7.64-1.74-.2-3.48-.41-5.21-.63ZM574.06,355.66c-.24-.92-.47-1.83-.71-2.75.55-.15,1.1-.3,1.65-.46-.32,1.07-.62,2.14-.94,3.2Z"/>
    <g>
      <g>
        <path class="cls-3" d="M651.25,737.66c-6.12-9.5-17.28-12.24-27.24-7.23-.38.11-.86.24-1.27.35.24-.03.4-.01.38.09-.03.01-.06.03-.08.04-.15.03-.51.04-.93.04-.07.02-.13.04-.16.05-.35.11-.59.19-.77.24-.03,0-.08,0-.12-.01.21-.08.53-.18.86-.27-.8,0-1.7-.02-1.6-.03-.23,0-.4.02-.56.03-.57-.15-1.08-.3-1.15-.32-.47-.12-5.57-1.32-5.57-1.82,0-.15,3.5,1.74.67.14-.89-.5-1.8-.95-2.68-1.46-1.79-1.04-3.49-2.19-5.2-3.36-.01-.01-.02-.02-.04-.03-.67-.56-1.34-1.12-1.99-1.69-1.72-1.52-3.38-3.13-4.96-4.79-12.13-12.77-21.77-27.17-36.86-36.9-18.81-12.12-40.36-10.66-61.23-5.92-4.59,1.04-9.17,2.18-13.78,3.1-1.15.23-2.31.43-3.46.65-.07.01-.25.04-.48.08-.67.08-1.69.21-2,.23-1.41.12-2.82.2-4.24.23-2.17.04-4.32-.1-6.49-.18-.4-.01-.69-.02-.94-.03-.58-.11-1.15-.23-1.68-.34-4.46-.86-8.83-2.15-13.08-3.75-.76-.28-1.5-.59-2.26-.88,4.46,1.72-.54-.32-1.16-.62-2.22-1.07-4.4-2.21-6.55-3.41-4.36-2.44-8.58-5.12-12.7-7.96-2.08-1.43-4.12-2.9-6.15-4.41-.62-.46-1.24-.93-1.86-1.4-.34-.26-.89-.69-1.43-1.12-4.14-3.28-8.2-6.65-12.24-10.04-8.01-6.71-20.54-8.43-28.28,0-.98,1.07-1.86,2.28-2.62,3.58-2.49-4.17-6.5-7.44-11.67-9.08-27.6-8.76-58.4,3.23-73.67,26.52-1.41.84-2.81,1.68-4.22,2.49-.27.16-.49.29-.68.4-.13.04-.26.09-.41.14-1.51.53-3.01,1.08-4.54,1.55-2.57.78-5.17,1.28-7.78,1.87-.1.02-.19.04-.28.06-1.32.06-2.63.23-3.95.29-3.22.14-6.4-.01-9.6-.23-.17-.01-.32-.02-.46-.03-.17-.04-.35-.09-.56-.14-1.3-.31-2.61-.53-3.91-.86-1.97-.49-4.34-.96-6.4-1.74-.05-.05-.41-.25-1.34-.74-1.29-.68-2.6-1.31-3.88-2.03-2.22-1.25-4.84-2.64-6.81-4.34-1.02-.99-2.63-2.54-3.11-3-1.89-1.83-3.57-3.83-5.32-5.78-.03-.05-.05-.09-.09-.13-.79-1.23-1.65-2.4-2.42-3.65-1.02-1.65-2.89-4.06-3.72-6.18-.04-.4-.14-.94-.33-1.47-.42-1.14-.81-2.29-1.17-3.45-.75-2.44-1.34-4.91-1.81-7.42-.08-.43-.51-3.7-.53-3.6-.13-1.21-.27-2.43-.39-3.64-.5-4.78-1.03-9.54-1.74-14.29-2.02-13.54-7.44-26.91-18.22-35.85-12.75-10.57-29.61-14.77-44.89-6.62-23.8,12.7-23.92,46.41-10.5,66.67,3.62,5.47,7.96,10.55,12.3,15.46,1.88,2.12,3.78,4.23,5.63,6.38.65.76,1.27,1.53,1.92,2.29.5.69,1,1.39,1.47,2.1.96,1.45,2.58,3.57,3.34,5.44.18,1.13.51,2.95.74,3.89,0,.22.03.44.04.66,0,.16,0,1.45-.03,2.53-.02.07-.03.12-.06.2-.12.43-.4,2.17-.75,3.52-.09.15-.21.35-.37.63-.24.41-.96,2.1-1.65,3.32-.12.12-.28.27-.49.48-.4.41-1.43,1.78-2.38,2.75-.26.08-.66.26-1.26.63-.57.36-1.16.7-1.76,1.01-.24.12-.44.21-.61.3-.94.23-1.96.42-2.2.49-.08.03-.15.05-.22.08-1.27,0-2.57,0-3.84.05-.12,0-.23,0-.33.01-1.23-.29-2.46-.55-3.67-.92-.65-.2-1.3-.44-1.94-.67-.84-.5-1.71-1.08-1.91-1.2-.34-.21-.66-.44-.99-.66-.7-.74-1.48-1.48-2.22-2.16-.35-.53-.71-1.06-1.03-1.61-.54-.92-.99-1.88-1.5-2.81-.24-.53-.42-.91-.53-1.15-.19-.48-.38-.96-.57-1.45-1.58-4.12-3.16-8.22-4.92-12.26-2.83-6.46-6.58-12.59-12.01-17.19-14.07-11.94-35.68-15.29-49.52-.89-7.5,7.8-7.75,20.49,0,28.28,4.83,4.85,9.43,9.82,13.92,14.98.51.7,1.01,1.4,1.49,2.11.92,1.36,1.8,2.75,2.61,4.17.72,1.26,2.07,2.97,2.28,4.37-.26-.64-.52-1.27-.78-1.91.36.92.69,1.85.99,2.79.45,1.42.75,2.88,1.13,4.32.03.12.06.23.09.34,0,.08,0,.15,0,.24.04,1.49.04,2.95.05,4.43,0,.14,0,.27,0,.38,0,.03-.02.06-.03.09-.11.4-.23,1.35-.42,2.25-.11.21-.29.56-.53,1.05-.24.41-.48.83-.72,1.24-.04.08-.06.14-.1.21-.08.06-.14.11-.24.19-.29.3-.6.57-.9.85-.86.47-1.73,1.09-2.51,1.59-.09.05-.14.09-.22.14-2.51.61-4.95,1.62-7.5,2.17-2.58.57-5.2.99-7.81,1.38-.48.07-1.36.19-2.02.27.45-.06,1.1-.14,2-.25-2.67.33-5.34.71-8,1.07-12.04,1.64-24.45,4.17-34.48,11.49-8.43,6.15-13.44,17.65-7.18,27.36,1.77,2.75,4.36,5.17,7.36,6.96,2.45,4.03,6.22,7.13,11.17,7.99,73.83,12.91,147.66,25.82,221.49,38.73,20.91,3.66,41.82,7.31,62.72,10.97,6.04,1.06,12.59-.1,17.49-3.5,3.27,1.48,6.64,2.75,10.1,3.77,5.54,1.64,11.74.37,16.58-2.83-.03-.74.01-1.49.12-2.24-.38-1.41-.48-2.98-.19-4.68-1.14-2.3-1.47-5.06-1.06-7.8.61-4.04,1.82-7.94,3.45-11.68-.25-3.43-.28-6.9-.2-10.35-4.79.91-9.92-.5-13.44-4.13-5.07-5.24-4.07-13.21-1.75-19.44.4-1.07.84-2.12,1.28-3.17.29-.7.51-1.24.69-1.67.08-.22.18-.47.27-.69.66-2.26,1.37-4.46,1.88-6.76,1.19-5.35,1.66-9.52,2.21-13.9,1.51-11.92,2.96-23.73,7.97-34.78,5.19-11.44,14.72-19.19,26.42-23.3,6.56-2.31,13.24,3.7,13.29,10.12.13,17.93-7.48,34-12.89,50.7-1.66,5.11-2.77,10.37-3.51,15.71,0,.08.02.15.03.23.1,1.2-.08,2.37-.47,3.46-1.11,10.37-.98,20.97-.83,31.28,0,.5.01.98.02,1.45,2.15,1.19,3.93,3.23,4.86,6.2,1.19,3.8,1.53,8.12,1.05,12.43,2.29,2.3,5.18,4.4,8.23,6.16,6.59,3.8,13.57,6.34,20.84,7.13,3.52-.24,7.09-.13,10.59-.11,4.92.04,9.18,3.58,10.24,8.24,2.95-.59,5.89-1.23,8.78-1.83,39.53-8.26,78.4-19.5,116.29-33.46,4.9-1.81,8.93-4.69,11.5-8.74,11.67,3.42,24.04,3.08,35.58-3.58,4.67-2.69,7.98-7.47,9.29-12.71,3.96-.9,7.92-2.31,11.84-4.31,9.34-4.76,12.79-18.65,7.18-27.36ZM176.21,606.53c-.02-.06-.04-.12-.05-.19-.03-.04-.05-.07-.08-.11,0-.04-.01-.09-.02-.14.01.02.03.03.04.04-.01-.03-.02-.07-.03-.11-.01-.05-.02-.08-.03-.13-.06-.45-.13-.9-.14-1.2,0-.08,0-.15,0-.23.15-.48.64.15.35,1.84.19.24.35.48.44.72-.17-.22-.32-.42-.46-.6,0,.03,0,.06-.02.09ZM177.24,610.19c-.09-.32-.18-.65-.27-.97-.13-.16-.26-.29-.39-.38.14.1.26.21.37.32-.21-.75-.42-1.5-.63-2.24.17.27.35.54.5.82.1.16.19.29.27.41.31.99.65,1.97.96,2.97-.11-.24-.23-.48-.34-.7.25.83-.06,1.27-.47-.22ZM528.04,711c.63,0,1.25,0,1.89.02.74.03,1.48.08,2.22.14.24.07.51.15.87.25.04.01.09.02.13.04-1.7-.18-3.4-.33-5.1-.45Z"/>
        <path class="cls-3" d="M622.74,730.78c-.23.03-.52.1-.81.18.06,0,.12,0,.18,0,.15-.04.37-.11.63-.18Z"/>
      </g>
      <path class="cls-3" d="M72.42,719.49c-1.37.17-.88.11,0,0h0Z"/>
      <path class="cls-3" d="M195.37,609.98c-.02-.26-.04-.51-.06-.77-.21-2.54-.93-5.06-2.1-7.32,0-.43-.02-.86-.03-1.29-.17-8.36-7.23-16.39-16-16-8.83.4-15.8,7.03-16,16-.02.72-.03,1.44-.05,2.17-.03.03-.06.05-.09.08-.83,1.08-1.67,2.16-2.5,3.24-1.45,2.5-2.18,5.19-2.18,8.08l-.57,4.27c-.08,2.2.38,4.26,1.38,6.16.65,1.98,1.75,3.7,3.31,5.15,1.11,1.2,2.4,2.1,3.83,2.76,2.7,5.31,8.4,9.27,14.37,9,8.95-.4,15.65-7.03,16-16,.15-3.98.31-7.96.46-11.94.24-1.15.33-2.34.23-3.59Z"/>
    </g>
    <path class="cls-3" d="M323.71,548.02c-10.27-9.49-25.65-12-37.51-3.82-.63.44-1.24.89-1.83,1.35-8.68,4.4-15.61,13.46-21.11,21.22-9.28,13.09-15.91,28.04-19.74,43.6-.37,1.5-.27,2.84.14,4-.3,3.75,2.25,7.37,6.77,7.56,29.96,1.2,68.18-1.67,81-34.16,5.32-13.48,3.2-29.66-7.73-39.75Z"/>
    <path class="cls-3" d="M127.88,521.93c-5.17-12.54-15.44-24.26-29.48-26.36-12.65-1.89-26.24,4.67-32.36,15.98-2.04,3.76-3.15,7.88-3.44,12.06-3.2,9.53-1.01,20.59,8.06,28.1.38.31.77.55,1.17.72.48.69,1.15,1.28,2.08,1.66,15.69,6.54,26.62,22.33,27.61,39.23.24,4.07,4.67,5.71,7.68,3.18,21.05-17.67,29.22-49.05,18.69-74.59ZM105.63,560.59c.26,0,.49-.05.73-.08.16.85.32,1.71.47,2.56-.77-.87-1.58-1.72-2.41-2.54.39.05.79.08,1.21.06ZM109.31,566.13c1.04.37,2.25.33,3.33-.06-.38,1.09-.8,2.17-1.26,3.23-.63-1.09-1.33-2.15-2.08-3.17ZM103.53,519.16c-2.12-1.85-4.65-3.25-7.52-4.08-.25-.3-.51-.61-.76-.91,3.26.5,5.99,2.41,8.28,4.99ZM116.06,518.45c-.12-.03-.25-.05-.38-.06-.94-1.56-1.96-3.08-3.05-4.55.48.54.95,1.09,1.39,1.67.73.96,1.4,1.94,2.04,2.94Z"/>
    <path class="cls-3" d="M150.03,424.3l-4.85-79.28c-.34-5.58-3.81-11.31-9.62-12.64-5.53-1.26-11.98.77-14.8,6.02-5.12,9.54-10.24,19.08-15.36,28.63l-15.83-36.64c-2.18-5.05-9.8-7.64-14.8-6.02-5.86,1.9-9.07,6.63-9.62,12.64-2.32,25.41-4.63,50.82-6.95,76.23-.62,6.85,6.47,13.4,13.11,13.11,7.63-.34,12.44-5.77,13.11-13.11.73-8.03,1.46-16.06,2.19-24.08,2.08,4.83,4.17,9.65,6.25,14.48,3.94,9.12,18.34,7.99,22.63,0l6.34-11.81c.66,10.83,1.33,21.66,1.99,32.49.42,6.83,5.73,13.44,13.11,13.11,6.74-.3,13.55-5.78,13.11-13.11Z"/>
    <path class="cls-3" d="M174.3,337.43c-7.36.33-12.78,5.76-13.11,13.11-1.13,25.91-2.26,51.81-3.39,77.72-.3,6.86,6.24,13.41,13.11,13.11,7.36-.33,12.78-5.76,13.11-13.11,1.13-25.91,2.26-51.81,3.39-77.72.3-6.86-6.24-13.41-13.11-13.11Z"/>
    <path class="cls-3" d="M325.24,457.27c5.84-4.48,8.36-10.24,6.1-13.9-7.99-12.91-15.98-25.82-23.96-38.72-2.11-3.42-9.66-2.67-15.1,1.51-5.84,4.48-8.36,10.24-6.1,13.9,7.99,12.91,15.98,25.82,23.96,38.72,2.11,3.42,9.66,2.67,15.1-1.51Z"/>
    <path class="cls-3" d="M292.27,409.71c-5.84-4.48-8.36-10.24-6.1-13.9,7.99-12.91,15.98-25.82,23.96-38.72,2.11-3.42,9.66-2.67,15.1,1.51,5.84,4.48,8.36,10.24,6.1,13.9-7.99,12.91-15.98,25.82-23.96,38.72-2.11,3.42-9.66,2.67-15.1-1.51Z"/>
    <path class="cls-3" d="M283.13,350.23c-7.36.35-12.78,6.14-13.11,13.98-1.13,27.63-2.26,55.25-3.39,82.88-.3,7.31,6.24,14.3,13.11,13.98,7.36-.35,12.78-6.14,13.11-13.98,1.13-27.63,2.26-55.25,3.39-82.88.3-7.31-6.24-14.3-13.11-13.98Z"/>
    <path class="cls-3" d="M262.64,439.41c-.39-8.8-6.47-13.54-14.63-14.63-9.29-1.24-18.57-2.48-27.86-3.72.97-22.29,1.95-44.58,2.92-66.87.3-6.86-6.24-13.41-13.11-13.11-7.36.33-12.78,5.76-13.11,13.11-1.13,25.91-2.26,51.81-3.39,77.72-.07,1.56.23,3.1.79,4.54,1.27,7.32,6.95,11.35,14.37,12.34,13.13,1.75,26.25,3.5,39.38,5.25,7.62,1.02,14.95-7.46,14.63-14.63Z"/>
    <path class="cls-1" d="M235.15,683.48c-6.62-6.08-16.02-6.04-22.63,0-.76.69-1.52,1.38-2.3,2.05-.74.63-1.78,1.29-.41.33-1.69,1.17-3.4,2.3-5.19,3.31-.89.51-1.8.99-2.72,1.45.05-.02-1.88.83-2.47,1.12-.57.2-1.39.49-1.53.54-.97.33-1.95.64-2.94.92-1.98.57-3.99.99-6.01,1.4-.16.03-.29.06-.4.08-1,.1-2,.18-3,.23-2.05.11-4.11.11-6.16,0-1.03-.05-2.05-.13-3.07-.24-.04,0-.07,0-.11-.01-.24-.06-.55-.13-.93-.22-1.95-.45-3.89-.89-5.81-1.49-.77-.24-4.24-1.65-3.8-1.39-3.41-1.64-6.63-3.55-9.73-5.72,1.35.95.52.45-.32-.26-.76-.65-1.52-1.3-2.25-1.98-1.65-1.52-3.22-3.15-4.69-4.85-.11-.12-.75-.93-1.11-1.36-.33-.48-.85-1.23-.94-1.35-1.25-1.88-2.37-3.82-3.42-5.82-3.9-7.42-14.85-10.28-21.89-5.74-7.55,4.87-9.91,13.96-5.74,21.89,10.4,19.78,30.51,35.28,52.66,39.2,24.31,4.3,48.68-2.81,66.91-19.48,6.19-5.66,6.17-16.96,0-22.63Z"/>
    <path class="cls-2" d="M505.75,76.97c-88.12-4.63-176.25-9.26-264.37-13.89-24.94-1.31-49.88-2.62-74.82-3.93-9.42-.49-18.42,8.63-18,18,.46,10.18,7.91,17.47,18,18,88.12,4.63,176.25,9.26,264.37,13.89,24.94,1.31,49.88,2.62,74.82,3.93,9.42.49,18.42-8.63,18-18-.46-10.18-7.91-17.47-18-18Z"/>
  </g>
  <g id="Layer_1-2" data-name="Layer 1">
    <ellipse class="cls-1" cx="111.16" cy="539.07" rx="58" ry="83"/>
    <ellipse class="cls-3" cx="100.9" cy="519.07" rx="27.73" ry="32"/>
    <ellipse class="cls-3" cx="126.13" cy="580.57" rx="9.97" ry="11.5"/>
    <ellipse class="cls-1" cx="248.16" cy="559.07" rx="58" ry="83"/>
    <ellipse class="cls-3" cx="237.9" cy="539.07" rx="27.73" ry="32"/>
    <ellipse class="cls-3" cx="263.13" cy="600.57" rx="9.97" ry="11.5"/>
    <g>
      <path class="cls-1" d="M168.86,66.96s0,0,0,0c.07-.12.13-.23.18-.33-.06.11-.12.22-.18.32Z"/>
      <path class="cls-1" d="M679.47,760.94c-1.33-126.01-2.66-252.01-3.99-378.02-.38-35.95-.76-71.9-1.14-107.85-.04-3.78-1.45-7.48-3.77-10.47-.29-2.07-.95-4.05-2.02-5.77-29.83-47.95-69.41-89.19-115.9-121.21-8.99-6.19-18.24-11.96-27.72-17.36,9.62-31.47,15.43-69.46-11.35-94.34C488.18,2.32,449.5,2.03,416.95.7c-39.35-1.6-78.76-.28-118.05,2.25-19.84,1.28-39.65,2.87-59.46,4.55-19.36,1.64-39.77,2.22-58.23,8.82-19.74,7.06-37.13,20.27-44.7,40.37-4.68,12.41-4.09,27.41,1.72,39.64-.11.18-.22.36-.32.55-41.56,51.57-83.12,103.15-124.69,154.72-2.45,3.03-4.14,6.75-4.66,10.54-.74,1.87-1.18,3.92-1.22,6.1-1.16,68.8-2.32,137.6-3.48,206.4-1.15,68.47-2.31,136.94-3.46,205.41-.58,34.7-2.47,70.47,12.09,102.72,1.31,6.05,5.4,11.59,11.84,12.73,92.83,16.5,185.66,33,278.49,49.5,23.16,4.12,46.31,8.23,69.47,12.35.1.03.19.07.3.1.84.15,1.69.3,2.53.45.56.18,1.12.25,1.68.28.26.08.52.15.81.21,8.77,1.84,17.64,3.11,26.57,3.88.91.08,1.74.02,2.49-.13,5.18.14,10.4-.49,15.42-1.78.11-.03.22-.07.34-.11.05.01.1.02.15.03,64.59-7.6,128.21-22.74,189.09-45.74,19.58-7.4,38.89-15.56,57.87-24.38.03-.03.05-.06.09-.07.73-.31,1.46-.64,2.18-.98.45-.26.88-.57,1.31-.86.33-.23.67-.48,1-.73.35-.41.69-.85.99-1.36,1.98-3.32,3.33-6.86,4.07-10.51.1-1.11.2-2.22.3-3.33-.11-3.79-.2-7.58-.01-11.36ZM512.75,213.98c.54.38,1.13.71,1.82.96,35.49,13.49,70.99,26.97,106.48,40.46-60.61,9.38-121.22,18.77-181.84,28.15l-9.68,1.5c27.74-23.69,55.48-47.39,83.22-71.08ZM539.47,169.77c12.79,9.05,23.73,17.9,36.73,29.97,12.65,11.75,23.69,23.34,33.76,35.48-30.23-11.49-60.45-22.97-90.68-34.46-1.02-15.39-2.04-30.79-3.06-46.18,7.93,4.78,15.69,9.84,23.25,15.19ZM504.33,201.51c-30.36,25.93-60.73,51.87-91.09,77.8,29.44-39.86,58.88-79.73,88.33-119.59.92,13.93,1.84,27.86,2.77,41.78ZM167.51,72.01c.02.14.21-1.31.49-2.36.18-.67.38-1.33.59-1.98.08-.26.17-.49.26-.7-.03.06-.06.12-.1.19.04-.06.07-.13.11-.19.39-.94.71-1.33.18-.32.63-1.15,1.23-2.31,1.94-3.42.39-.61.82-1.19,1.21-1.79.06-.05.12-.1.19-.17,1.11-1,2.05-2.23,3.13-3.26.59-.56,3.09-2.57,2.53-2.23,2.46-1.74,5.03-3.31,7.72-4.69.81-.42,4.44-1.92,2.72-1.31,1.74-.64,3.49-1.28,5.27-1.83,8.25-2.55,15.05-3.6,21.76-4.31,8.62-.92,17.27-1.57,25.91-2.3,17.5-1.48,35-2.88,52.52-4.06,35.65-2.39,71.41-3.84,107.14-3.07,16.67.36,33.41,1,50,2.71,1.25.13,2.49.28,3.73.43.26.04,1.72.24,2.54.37,3.34.54,6.67,1.2,9.96,2,3.01.74,5.99,1.6,8.92,2.63.4.14,2.05.8,2.73,1.05.4.19.82.38.97.46.83.4,1.65.83,2.46,1.27,1.41.77,2.79,1.58,4.13,2.47.56.37,1.1.76,1.65,1.15.1.09.21.19.35.32,1.17,1.09,2.35,2.17,3.44,3.35.12.12.41.45.7.77.33.45.89,1.17,1,1.33,1.01,1.51,1.87,3.09,2.73,4.69.09.17.17.31.24.45.3.84.6,1.68.87,2.53.52,1.69.94,3.4,1.29,5.14.05.23.17,1.04.26,1.62.05.57.11,1.28.12,1.43.26,3.9.17,7.83-.17,11.72-.07.79-.18,1.59-.24,2.38,0,.09-.01.18-.02.25-.04.23-.09.49-.14.8-.33,1.87-.66,3.73-1.05,5.58-.7,3.38-1.53,6.74-2.44,10.07-88.05-3.5-176.09-7-264.14-10.49-18.65-.74-37.29-1.48-55.94-2.22-.53-.66-1.12-1.29-1.8-1.85-1.06-.87-2.02-1.79-2.99-2.75-.03-.03-.04-.04-.07-.07-.28-.45-.57-.89-.84-1.35-.23-.4-.44-.82-.66-1.24-.4-1.46-.8-2.91-1.17-4.38-.03-.47-.07-.95-.08-1.41-.03-1.13.02-2.26.1-3.39ZM111.83,776.66c-23.51-4.18-47.03-8.36-70.54-12.54-.23-.6-.46-1.19-.53-1.4-1.24-3.49-2.28-7.05-3.15-10.65-.81-3.35-1.44-6.73-2-10.14.06.27-.34-2.54-.41-3.15-.22-2.01-.39-4.03-.54-6.05-1.13-15.2-.63-30.48-.37-45.7.57-33.9,1.14-67.8,1.71-101.71,1.14-67.47,2.27-134.94,3.41-202.42.49-29.24.99-58.48,1.48-87.73,86.08,22.87,175.2,34.86,264.25,35.47,14.75.1,29.5-.14,44.25-.67,2.42,63.83,4.84,127.66,7.25,191.49,2.59,68.47,5.19,136.94,7.78,205.41,1.2,31.77,2.41,63.54,3.61,95.31-85.4-15.18-170.8-30.36-256.2-45.54ZM359.19,295.58c-37.73,1.71-75.54,1.39-113.24-1.02-46.13-2.95-87.57-8.38-132.73-17.41-21.8-4.36-43.46-9.44-64.93-15.18,35.51-44.07,71.03-88.14,106.54-132.21,4.45-1.15,8.3-3.91,10.66-7.68,87.75,3.49,175.49,6.97,263.24,10.46,16.48.65,32.95,1.31,49.43,1.96-39.66,53.69-79.31,107.38-118.97,161.08ZM556.44,797.57c-34.34,10.58-69.41,18.82-104.87,24.61-15.81,2.58-30.04,4.42-46.03,5.96-.68.01-1.36.02-2.03.03-.04,0-.07.01-.11.02l-.5-.05s-.04,0-.06.01c-.21-.1-.4-.23-.5-.44-.11-.21-.12-.44-.09-.66,0,0-.02,0-.03-.01-2.4-63.3-4.8-126.6-7.19-189.9-2.59-68.47-5.19-136.94-7.78-205.41-1.29-34.12-2.59-68.25-3.88-102.37.56-.41,1.08-.85,1.59-1.32,2.91-.43,5.73-1.53,8.15-3.15,68.37-10.59,136.74-21.17,205.11-31.76,14.08-2.18,28.17-4.36,42.25-6.54,1.31,123.99,2.62,247.98,3.92,371.96.37,35.13.74,70.27,1.11,105.4-28.54,12.91-57.79,23.99-89.06,33.62Z"/>
    </g>
    <path class="cls-2" d="M396.71,324.78c-2.41-.06-5.33-.12-7.88.57-.43.07-.86.18-1.27.35-.03,0-.06,0-.09,0-.06,0-.13,0-.19.02-.18.02-.35.05-.51.1-.27.04-.53.1-.75.21-.72.13-1.27.49-1.65.98-.05.04-.1.08-.16.12-.37.37-.63.82-.77,1.32-.04.27-.07.53-.11.8,0,.54.14,1.05.41,1.51.02.05.05.09.07.14.19.35.45.63.77.84.29.27.63.44,1.02.54.4.12.8.14,1.2.05.1,0,.19-.03.28-.05.66.08,1.34-.08,1.99-.54.11-.06.23-.12.33-.19.84-.14,1.68-.28,2.53-.38.03,0,.05.03.08.03.27.04.53.07.8.11.52,0,1-.13,1.45-.38.2,0,.41,0,.61.01.36.02.7-.05,1.02-.17.27,0,.54,0,.8,0,3.86.09,3.86-5.91,0-6Z"/>
    <path class="cls-1" d="M401.51,322.43c-3.98.47-7.92,1.21-11.8,2.24-1.78.47-3.73.87-5.37,1.74-1.38.74-2.4,2.11-2.11,3.73.11.63,1.08.36.96-.27-.32-1.77,1.66-2.71,3.02-3.15,1.62-.53,3.27-.98,4.92-1.39,3.41-.85,6.88-1.48,10.37-1.9.63-.08.64-1.08,0-1Z"/>
    <path class="cls-2" d="M166.46,122.97c.24-.26.12-.83-.36-.87-2-.17-4.01-.34-6.01-.51-.17-.11-.38-.13-.55,0-.16.06-.25.21-.26.37-1.66,2.89-3.32,5.77-4.99,8.66-.32.56.54,1.06.86.5.23-.41.47-.81.7-1.22.02.07.02.14.05.22.11.29.41.39.66.31.21.25.62.32.78-.05.24-.53.48-1.06.72-1.6l.2-.12c.14.11.32.14.52,0,.72-.5,1.44-.99,2.16-1.49.14.34.66.5.9.09.22-.39.45-.78.67-1.17.29-.2.58-.4.87-.6.21-.14.25-.36.21-.55.29-.2.58-.4.87-.6.1-.07.15-.15.19-.24.07.01.13.02.2.03.24.04.43-.06.53-.22.26,0,.53,0,.79-.02.48-.04.68-.63.27-.91Z"/>
    <path class="cls-1" d="M165.03,117.61c.16-.45-.43-.95-.81-.53-.1.11-.2.21-.3.32-.18-.16-.44-.2-.64.03,0,0-.01.01-.02.02-.12,0-.25.04-.36.15-2.99,3.22-5.99,6.44-8.98,9.66-.44.47.27,1.18.71.71.28-.3.56-.6.84-.9.14.08.3.09.46-.01-1.17,1.26-2.34,2.51-3.51,3.77-.44.47.27,1.18.71.71,4.06-4.36,8.13-8.72,12.19-13.09.3-.33.06-.76-.27-.84Z"/>
    <path class="cls-1" d="M119.55,100.58c-.07-.24-.36-.44-.62-.35-1.21.45-2.43.9-3.64,1.35-.25.09-.43.34-.35.62.07.24.36.44.62.35,1.21-.45,2.43-.9,3.64-1.35.25-.09.43-.34.35-.62Z"/>
    <path class="cls-2" d="M497.05,65.63c-80.32-3.87-160.73-5.65-241.14-5.3-22.59.1-45.19.37-67.78.8-12.85.24-12.9,20.24,0,20,80.4-1.53,160.83-.97,241.19,1.73,22.58.76,45.16,1.69,67.73,2.77,12.87.62,12.83-19.38,0-20Z"/>
    <path class="cls-1" d="M521.6,85.52c1.07-2.12,1.39-4.65.95-7.34-.72-4.33-1.45-8.67-2.17-13-.12-.73-.37-1.41-.7-2.06-.42-1.38-1.12-2.55-2.01-3.49-1.58-3.36-4.55-5.78-8.8-5.78-3.97,0-8.54,3.04-9.75,7.08-.58,1.16-.86,2.4-.81,3.74.12.89.24,1.77.36,2.66.15.55.36,1.06.6,1.57.02.42.05.83.11,1.25.75,5.39.32,11.03-.83,16.32-1.08,4.97,1.28,10.17,6.07,12,3.84,2.45,9.39,2.19,12.78-.81,2.92-1.81,5.12-4.92,4.68-8.36-.16-1.25-.32-2.5-.47-3.76Z"/>
  </g>
</svg>