<?xml version="1.0" encoding="UTF-8"?>
<svg id="Layer_2" data-name="Layer 2" xmlns="http://www.w3.org/2000/svg" viewBox="0 0 685.22 476.39">
  <defs>
    <style>
      .cls-1, .cls-2, .cls-3 {
        stroke: #000;
        stroke-miterlimit: 10;
      }

      .cls-1, .cls-4 {
        fill: #000;
      }

      .cls-2, .cls-3 {
        stroke-width: 34px;
      }

      .cls-2, .cls-5 {
        fill: #83a956;
      }

      .cls-4, .cls-5, .cls-6 {
        stroke-width: 0px;
      }

      .cls-3 {
        fill: #ff7261;
      }

      .cls-6 {
        fill: #fff;
      }
    </style>
  </defs>
  <g id="Layer_1-2" data-name="Layer 1">
    <ellipse class="cls-2" cx="473.77" cy="234.57" rx="194.44" ry="217.57"/>
    <ellipse class="cls-2" cx="212.34" cy="242.54" rx="217.57" ry="194.44" transform="translate(-65.61 405.82) rotate(-79.23)"/>
    <ellipse class="cls-3" cx="276.98" cy="101.64" rx="44.82" ry="63.61" transform="translate(44.37 283.13) rotate(-58.11)"/>
    <ellipse class="cls-3" cx="454.26" cy="67.6" rx="63.61" ry="44.82" transform="translate(-4.84 79.79) rotate(-9.99)"/>
    <path class="cls-4" d="M496.52,274.22c1.59,4.08,7.04,5.62,10.79,3.84,4.19-1.98,5.44-6.71,3.84-10.79-7.18-18.36-2.49-41.45,12.63-54.49,14.9-12.84,38.66-15.07,54.76-3.15,15.2,11.25,21.75,33.87,12.63,50.89-4.59,8.58-12.85,15.52-22.54,17.25-9.55,1.71-19.86-1.36-25.9-9.18-6.16-7.97-6.94-21.27,1.24-28.22,3.31-2.81,8.07-4.2,12.06-1.83,2.64,1.58,4.36,5.79,2.06,8.13-3.07,3.11-3.95,7.87-.94,11.42,2.64,3.11,8.33,4.07,11.42.94,11.77-11.95,6.51-32.16-9.81-36.76-17.12-4.82-32.6,8.19-36.12,24.53-3.2,14.87,3.32,31,15.66,39.8,12.43,8.86,29.36,10.06,43.23,4.05,28.82-12.48,37.29-48.93,22.79-75.21-6.87-12.44-17.95-22.43-31.58-26.83-14.27-4.61-29.87-3.66-43.67,2.1-32.12,13.4-44.79,52.19-32.54,83.51Z"/>
    <path class="cls-5" d="M387.36,221.71c.31-3.63.27-7.29-.16-10.91,0-.2.04-.39.04-.59-.1-.82-.19-1.63-.29-2.45.08-1.99-.34-3.85-1.25-5.57-.3-.93-.72-1.79-1.24-2.58-3.07-5.87-10.14-9.16-16.7-7.36-5.23,1.44-9.05,5.79-10.22,10.84-2.31,1.13-4.31,2.97-5.65,5.66l-.76,1.52c-1.67,3.35-2.15,7.08-1.44,10.52-.07,1.46-.14,2.92-.21,4.38-4.89,2.48-8.61,7.33-8.25,13.28-1.15,1.44-1.99,3.13-2.36,5.02-2.41,12.47-4.82,24.95-7.23,37.42-1.48,7.66,2.16,15.6,10.1,17.78,2.46.68,5.18.58,7.74-.14,1.5,1.35,3.36,2.41,5.6,3.03,6.88,1.89,16.55-2.34,17.78-10.1.22-1.38.39-2.75.57-4.13.21-.43.39-.88.54-1.34.72-1.37,1.12-2.83,1.22-4.37.14-1.06.28-2.11.43-3.17,0-1.86-.36-3.62-1.02-5.29.01-.48.04-.95.05-1.43,1.27-2.05,2.02-4.58,1.99-7.62-.04-4.08-.43-8.05-1.11-11.93,1.11-2.05,1.77-4.39,1.89-6.84,0-.18.02-.35.03-.53,2.76-1.93,4.93-4.85,6.36-8.24,1.06-2.51,1.86-5.11,2.46-7.75.53-1.3.86-2.65.99-4.06.11-.71.17-1.43.18-2.16-.03-.3-.05-.6-.08-.89Z"/>
    <path class="cls-4" d="M529.79,326.96c-20.3-19.9-53.53-18.99-71.66,3.43-6.96,8.61,5.24,20.95,12.27,12.27,12.15-15.03,33.02-17.26,47.13-3.43,7.98,7.82,20.26-4.44,12.27-12.27Z"/>
    <circle class="cls-1" cx="274.81" cy="258" r="55.66"/>
    <circle class="cls-6" cx="268.62" cy="250.54" r="24.58"/>
    <ellipse class="cls-6" cx="285.5" cy="291.14" rx="8.67" ry="5.78" transform="translate(-58.6 72.36) rotate(-13.11)"/>
    <circle class="cls-1" cx="148.36" cy="205.82" r="55.66"/>
    <circle class="cls-6" cx="142.17" cy="198.35" r="24.58"/>
    <ellipse class="cls-6" cx="159.05" cy="238.95" rx="8.67" ry="5.78" transform="translate(-50.06 42.31) rotate(-13.11)"/>
    <path class="cls-4" d="M202.56,303.56c-17.69,3.39-36.09-5.07-45.12-20.62-5.59-9.62-20.88-1.4-15.25,8.29,13,22.38,38.91,34.1,64.3,29.23,10.97-2.11,7.02-19-3.94-16.9Z"/>
    <path class="cls-4" d="M466.97,227.01c-6.87-12.44-17.95-22.43-31.58-26.83-9.4-3.04-19.38-3.64-29.04-2.07,1.44-2.08,1.99-4.73,1.35-7.48-.79-3.38-1.58-6.76-2.37-10.14-1.07-4.59-6.57-7.74-11.07-6.29-4.79,1.55-7.43,6.15-6.29,11.07.15.66.31,1.32.46,1.98-3.88.45-7.29,3.2-6.97,8.27.25,3.94.49,7.89.74,11.83-24.99,16.46-33.98,50.42-23.02,78.43,1.59,4.08,7.04,5.62,10.79,3.84,4.19-1.98,5.44-6.71,3.84-10.79-6.68-17.08-3.08-38.25,9.63-51.62.29,4.67.58,9.33.88,14,.23,3.6,2.21,6.03,4.75,7.3-1.73,3.04-3.03,6.37-3.78,9.85-3.2,14.87,3.32,31,15.66,39.8,12.43,8.86,29.36,10.06,43.23,4.05,28.82-12.48,37.29-48.93,22.79-75.21ZM453.84,272.09c-4.59,8.58-12.85,15.52-22.54,17.25-9.55,1.71-19.86-1.36-25.9-9.18-6.16-7.97-6.94-21.27,1.24-28.22,3.31-2.81,8.07-4.2,12.06-1.83,2.64,1.58,4.36,5.79,2.06,8.13-3.07,3.11-3.95,7.87-.94,11.42,2.64,3.11,8.33,4.07,11.42.94,11.77-11.95,6.51-32.16-9.81-36.76-7.24-2.04-14.18-.88-20.06,2.36-.41-6.61-.83-13.22-1.24-19.84,13.5-5.01,29.34-3.86,41.09,4.84,15.2,11.25,21.75,33.87,12.63,50.89Z"/>
    <path class="cls-5" d="M388.13,191.2c-.77-6.05-6.54-12.8-11.48-15.89-5.47-3.43-13.64-5.05-19.95-3.21-6.35,1.85-12.53,5.57-15.89,11.48-3.66,6.46-4.15,12.63-3.21,19.95.13,1.01.25,2.02.37,3.03.19,2.44.4,4.89.55,7.34.3,5.14.44,10.29.42,15.44-.05,10.31-.79,20.59-2.1,30.81-1.67,13.03,11.12,25.96,23.76,26.72-.85,3.61,1.04,7.89,4.08,9.8,4.47,2.8,9.42.99,12.4-2.86,7.96-10.28,12.3-23.24,12.22-36.23,2.44-22.18,1.64-44.22-1.18-66.38Z"/>
    <path class="cls-4" d="M400.19,167.87c-.14-.51-.25-1.02-.39-1.53-.12-.44-.27-.85-.43-1.24-.81-2.66-1.64-5.31-2.52-7.94-3.67-10.92-21.07-6.24-17.36,4.79,1.23,3.67,2.38,7.36,3.46,11.07.99,3.77,1.88,7.55,2.68,11.34.03.38.08.76.16,1.15-.04.84-.02,1.69.1,2.54.75,5.27,1.51,10.54,2.26,15.81.13.91.48,1.74.95,2.48,1.78,16.71,1.7,33.6-.26,50.45-.13,1.11.05,2.18.44,3.17-.21,1.38-.44,2.76-.68,4.13-.85,4.78,1.3,9.7,6.29,11.07,4.36,1.2,10.21-1.48,11.07-6.29.38-2.15.73-4.3,1.05-6.45,2.35-1.38,4.09-3.82,4.2-7.33.97-29.44-2.76-58.97-11-87.24Z"/>
  </g>
</svg>